<svg id="campaign-illustration" xmlns="http://www.w3.org/2000/svg" xmlns:xlink="http://www.w3.org/1999/xlink" width="250" height="250" viewBox="0 0 250 250">
  <defs>
    <clipPath id="clip-path">
      <rect id="Rectangle_1" data-name="Rectangle 1" width="250" height="250" fill="none" stroke="#707070" stroke-width="1"/>
    </clipPath>
  </defs>
  <g id="Mask_Group_1" data-name="Mask Group 1" clip-path="url(#clip-path)">
    <g id="Group" transform="translate(26.179 80.922)">
      <g id="Group-2" data-name="Group" transform="translate(11.059 57.102)">
        <path id="Path" d="M1.826.712c.574,2.144.341,4.8-1.548,6.249a.591.591,0,0,0-.2.785.578.578,0,0,0,.785.207A6.075,6.075,0,0,0,3,4.753,8.253,8.253,0,0,0,2.934.406.575.575,0,0,0,1.826.712Z" transform="translate(160.15 63.307)" fill="#c4c4c4"/>
        <path id="Path-2" data-name="Path" d="M7.711,6.665a5.711,5.711,0,0,1,3.131-1.52.726.726,0,0,0,.528-.329.685.685,0,0,0-.025-.469A5.046,5.046,0,0,0,5.795,1.041a3.035,3.035,0,0,1-1.106.111A3.213,3.213,0,0,1,3.565.528a2.793,2.793,0,0,0-2.4-.408A1.455,1.455,0,0,0,1,.191q.285,1.993.639,3.976A1.941,1.941,0,0,1,.86,6.094l-.044.031A1.959,1.959,0,0,0,1.934,9.672l4.634.082A8.679,8.679,0,0,1,7.711,6.665Z" transform="translate(136.298 60.623)" fill="#c4c4c4"/>
        <path id="Path-3" data-name="Path" d="M8.686,7.647a5.681,5.681,0,0,1,2.973-1.4,1.242,1.242,0,0,0,.777-.574,1.413,1.413,0,0,0-.056-1.16,5.5,5.5,0,0,0-.88-1.5A5.786,5.786,0,0,0,8.745,1.2,5.359,5.359,0,0,0,7.1.962a5.5,5.5,0,0,0-.812.082,2.5,2.5,0,0,1-.94.107A2.305,2.305,0,0,1,4.557.688,4.02,4.02,0,0,0,3.512.164a3.043,3.043,0,0,0-2.226.1.583.583,0,0,0-.264.647q.209,1.46.454,2.917a7.31,7.31,0,0,1,.191,1.3,1.382,1.382,0,0,1-.272.791c-.207.268-.517.413-.743.666a2.584,2.584,0,0,0-.507.84A2.5,2.5,0,0,0,.157,9.135,2.578,2.578,0,0,0,2.6,10.817l2.324.042,2.22.038a.588.588,0,0,0,.555-.421A8.073,8.073,0,0,1,8.684,7.64a.59.59,0,0,0,0-.812.574.574,0,0,0-.812,0A9.168,9.168,0,0,0,6.59,10.17l.553-.421-4.3-.077H2.381a.636.636,0,0,1-.134-.025c-.044-.01-.136-.038-.2-.057l-.073-.027c.1.036.015,0,0,0-.054-.029-.105-.054-.155-.084s-.191-.144-.107-.069a2.63,2.63,0,0,1-.243-.241c-.073-.078-.013-.017,0,0l-.056-.08a1.64,1.64,0,0,1-.1-.167c-.015-.027-.084-.2-.042-.084-.019-.054-.038-.105-.054-.161a1.587,1.587,0,0,1-.04-.165.806.806,0,0,1-.017-.094c.011.08,0,.044,0-.017a2.283,2.283,0,0,1,0-.362c-.013.115,0-.021.017-.063a1.973,1.973,0,0,1,.056-.191c.04-.124-.023.025.04-.092.029-.054.056-.105.088-.155l.057-.086s-.052.063,0,.013a1.832,1.832,0,0,1,.167-.178,3.4,3.4,0,0,1,.32-.253,2.473,2.473,0,0,0,.905-1.723,5.582,5.582,0,0,0-.176-1.506Q2.358,2.213,2.13.613l-.264.649c-.09.04.132-.044.109-.038A1.882,1.882,0,0,1,2.2,1.168a1.677,1.677,0,0,1,.31-.019,2.364,2.364,0,0,1,.766.153c.521.191.907.6,1.4.831a1.966,1.966,0,0,0,1,.18c.327-.027.641-.119.957-.167a4.594,4.594,0,0,1,1.273.034,4.653,4.653,0,0,1,2.4,1.259,4.085,4.085,0,0,1,.81,1.1,2.747,2.747,0,0,1,.22.534s.056.161.038.163c-.059,0,.092-.165.088-.157-.015.056-.245.09-.333.113a6.069,6.069,0,0,0-3.279,1.64.591.591,0,0,0,0,.812.574.574,0,0,0,.823,0Z" transform="translate(135.732 60.046)" fill="#c4c4c4"/>
        <path id="Path-4" data-name="Path" d="M.386,8.807c.93,2.073,3.474,3.757,2.839,5.934a10.981,10.981,0,0,1-.978,1.811A4.149,4.149,0,0,0,4.38,22.077a15.128,15.128,0,0,1,2.844.89c1.214.766,1.592,2.354,2.559,3.413a4.968,4.968,0,0,0,4.261,1.376,10.514,10.514,0,0,0,4.276-1.734,16.1,16.1,0,0,0,2.488-1.9A38.09,38.09,0,0,0,13.87,5.842C12.5,3.872,11.053,1.885,9.51,0,9.053.011,8.6.048,8.141.1a10.686,10.686,0,0,0-6.2,2.517A5.666,5.666,0,0,0,.386,8.807Z" transform="translate(158.658 33.378)" fill="#c4c4c4"/>
        <path id="Path-5" data-name="Path" d="M.456,9.665A16.748,16.748,0,0,0,2.37,12.457c.159.22.312.444.452.676.065.109.126.218.191.329.029.054.056.109.08.165s.034.075.05.111c-.023-.056,0,0,.01.031a3.455,3.455,0,0,1,.109.337c.013.057.027.115.038.172s.01.057.015.086c.015.1,0-.077,0,.021a2,2,0,0,1-.038.651,7.233,7.233,0,0,1-.9,1.69,4.335,4.335,0,0,0-.5,1.638,4.835,4.835,0,0,0,.781,3.1A4.563,4.563,0,0,0,5.444,23.4a8.406,8.406,0,0,1,1.862.521,2.974,2.974,0,0,1,1.1,1.068,10.3,10.3,0,0,0,2.167,2.925,5.617,5.617,0,0,0,3.61,1.028,9.453,9.453,0,0,0,4.09-1.305,18.643,18.643,0,0,0,1.851-1.175c.31-.222.616-.456.913-.7.136-.111.268-.224.4-.339a2.088,2.088,0,0,0,.442-.438,1,1,0,0,0,.05-.622c-.019-.191-.038-.383-.059-.574q-.063-.551-.144-1.1c-.1-.687-.22-1.37-.362-2.05a35.112,35.112,0,0,0-1.114-4.062,41.131,41.131,0,0,0-3.56-7.716,71.355,71.355,0,0,0-5.158-7.381c-.247-.318-.5-.632-.748-.946a1.792,1.792,0,0,0-.408-.448,1.249,1.249,0,0,0-.7-.061A17.764,17.764,0,0,0,7.515.276,11.9,11.9,0,0,0,3.729,1.6,6.947,6.947,0,0,0,.013,7.864,5.317,5.317,0,0,0,.465,9.67a.578.578,0,0,0,.785.207.591.591,0,0,0,.207-.787,4.161,4.161,0,0,1-.253-2.3A5.742,5.742,0,0,1,2.18,4.451,7.873,7.873,0,0,1,6.7,1.626a14.972,14.972,0,0,1,3.382-.48L9.679.977c1.179,1.443,2.3,2.934,3.374,4.452,1.009,1.418,1.985,2.854,2.856,4.36A38.7,38.7,0,0,1,19.822,19.1a31.9,31.9,0,0,1,.988,5.581l.168-.406a16.291,16.291,0,0,1-3.321,2.377,7.983,7.983,0,0,1-3.619,1.131,4.344,4.344,0,0,1-3.017-.991,15.412,15.412,0,0,1-1.8-2.647,4,4,0,0,0-1.269-1.192A6.83,6.83,0,0,0,6.1,22.361a4.238,4.238,0,0,1-1.5-.546,3.549,3.549,0,0,1-.905-.892,3.681,3.681,0,0,1-.657-2.6c-.013.109.015-.084.015-.084a.69.69,0,0,1,.031-.149,3.154,3.154,0,0,1,.086-.32,3.212,3.212,0,0,1,.346-.716,6.458,6.458,0,0,0,.865-1.692c.635-2.517-1.989-4.249-2.921-6.288A.574.574,0,0,0,.672,8.87a.588.588,0,0,0-.216.794Z" transform="translate(158.092 32.819)" fill="#c4c4c4"/>
        <path id="Path-6" data-name="Path" d="M.724,4.936a59.927,59.927,0,0,1,9.785-2.7A63.045,63.045,0,0,1,20.735,1.163Q23.67,1.1,26.6,1.3a.574.574,0,0,0,.574-.574A.588.588,0,0,0,26.6.151,64.362,64.362,0,0,0,5.892,2.1Q3.115,2.834.418,3.835a.59.59,0,0,0-.4.706.574.574,0,0,0,.706.4Z" transform="translate(139.141 30.108)" fill="#c4c4c4"/>
        <path id="Path-7" data-name="Path" d="M7.155,17.233a14.143,14.143,0,0,0,7.132-4.49,17.359,17.359,0,0,0,4.1-8.789,25.373,25.373,0,0,0-6.663,1.34c.509-2.169-.034-4.948-2.239-5.26A4.208,4.208,0,0,0,5.35,2.254c-.823,1.558-.163,3.221-.327,4.862-.178,1.772-1.393,2.32-2.488,3.574A10.566,10.566,0,0,0,.295,14.86,9.7,9.7,0,0,0,0,16.527a10.532,10.532,0,0,0,7.155.706Z" transform="translate(134.17 0.559)" fill="#c4c4c4"/>
        <path id="Path-8" data-name="Path" d="M7.878,18.353c4.866-1.2,8.642-5.168,10.514-9.687a17.671,17.671,0,0,0,1.12-3.993.584.584,0,0,0-.555-.727A25.424,25.424,0,0,0,12.141,5.3l.708.706A5.924,5.924,0,0,0,12.2,1.293,3.062,3.062,0,0,0,10.246.049,4.506,4.506,0,0,0,7.344.6a4.816,4.816,0,0,0-1.987,2.09A6.434,6.434,0,0,0,5,6.009,4.648,4.648,0,0,1,4.68,8.739a4,4,0,0,1-.7.852c-.306.3-.628.586-.928.892A10.939,10.939,0,0,0,0,17.086a.563.563,0,0,0,.285.5,11.337,11.337,0,0,0,7.6.766c.72-.17.415-1.279-.3-1.106a10.073,10.073,0,0,1-6.718-.657l.283.5a9.712,9.712,0,0,1,2.264-5.3c.536-.632,1.192-1.148,1.736-1.763A4.069,4.069,0,0,0,6.182,7.634c.094-1.016-.122-2.027-.1-3.041a3.374,3.374,0,0,1,.978-2.354A3.7,3.7,0,0,1,9.168,1.157a2.969,2.969,0,0,1,1.026.046,2.526,2.526,0,0,1,.266.084c.017,0,.1.046.013,0,.033.013.065.031.1.046a2.236,2.236,0,0,1,.207.121l.107.075c-.065-.048,0,0,.027.025.073.063.142.13.209.191l.069.078s.107.14.042.05a3.235,3.235,0,0,1,.279.463c.017.033.033.065.048.1.056.117-.013-.044.031.069s.065.176.094.268a4.479,4.479,0,0,1,.147.593.988.988,0,0,0,.025.147.331.331,0,0,1,.011.084c.011.1.021.191.027.3.013.2.015.408.01.611a5.359,5.359,0,0,1-.153,1.173c-.092.4.272.861.706.706a24.309,24.309,0,0,1,6.508-1.317l-.553-.727a16.353,16.353,0,0,1-7.333,11.408,12.344,12.344,0,0,1-3.51,1.493c-.71.176-.406,1.284.312,1.106Z" transform="translate(133.598)" fill="#c4c4c4"/>
        <path id="Path-9" data-name="Path" d="M0,0H121.732V8.357H0Z" transform="translate(0 60.288)" fill="#c4c4c4"/>
      </g>
      <path id="Path-10" data-name="Path" d="M93.877,60.377a199.8,199.8,0,0,0-1.5-33.716c-.645-5.593-1.411-11.172-2.2-16.748-.546-3.87-2.082-7.608-6.45-8.586C75.5-.515,66.851.1,58.463.094,46.213.084,32.576-.1,21.036.739,14.857,1.2,8.212,1.284,2.314,3.162A3.271,3.271,0,0,0,.286,4.768,4.581,4.581,0,0,0,0,6.7C-.026,25.268,1.518,43.754,1.784,62.288c.04,3.005.745,5.225,2.548,6.316s4.037,1.2,6.159,1.238c13.456.234,26.914.149,40.368.01,6.64-.071,13.284.121,19.92-.138,4.481-.174,8.8-.5,13.251-1.1,4.605-.628,9.446-2.461,9.8-7.562.017-.22.033-.45.044-.672Z" transform="translate(31.088 9.089)" fill="#6573c9"/>
      <path id="Path-11" data-name="Path" d="M94.48,60.669A198.4,198.4,0,0,0,93.1,28.059c-.6-5.375-1.326-10.736-2.075-16.092-.5-3.595-1.122-7.639-4.523-9.687a8.837,8.837,0,0,0-2.733-1.014C82.529,1,81.273.786,80.012.618A72.323,72.323,0,0,0,72.183.043c-5.2-.126-10.4.065-15.6.054C46.458.076,36.321-.028,26.206.459,23.8.574,21.4.753,19,.908c-2.513.161-5.03.3-7.534.563A48.726,48.726,0,0,0,4.169,2.713,7.749,7.749,0,0,0,1.175,3.9,3.45,3.45,0,0,0,.027,6.666c-.1,5.453.111,10.931.3,16.382s.446,10.941.693,16.409.484,10.937.643,16.407q.057,2.052.1,4.1c.025,1.275,0,2.559.1,3.828a7.186,7.186,0,0,0,1.88,4.772C5.3,70.014,7.653,70.291,9.68,70.381c2.643.115,5.3.1,7.943.124q8.23.084,16.446.046t16.448-.123c5.43-.056,10.862.048,16.292-.033a148.9,148.9,0,0,0,16.078-1.026c3.47-.427,7.509-1.053,9.909-3.887a7.772,7.772,0,0,0,1.681-4.814c.021-.369-.553-.368-.574,0a7,7,0,0,1-1.973,4.9,10.605,10.605,0,0,1-4.5,2.4,37.058,37.058,0,0,1-6.351,1.037c-2.557.276-5.124.469-7.693.6-5.289.274-10.583.249-15.887.23-5.348-.019-10.7.059-16.048.1q-7.941.057-15.887.044-4.02-.011-8.039-.05c-2.615-.027-5.237-.011-7.848-.124-2.025-.086-4.515-.366-5.9-2.037-1.263-1.518-1.374-3.685-1.4-5.564-.08-5.287-.264-10.569-.484-15.852C1.445,35.725.856,25.108.659,14.462.611,11.815.509,9.147.6,6.5A2.849,2.849,0,0,1,1.1,4.775a3.208,3.208,0,0,1,1.455-.993,25.572,25.572,0,0,1,3.392-.9c4.839-1.028,9.8-1.164,14.719-1.51C30.382.686,40.119.64,49.852.66c4.933,0,9.863.029,14.794-.038a102.64,102.64,0,0,1,15.454.59c1.235.17,2.463.383,3.681.653a7.773,7.773,0,0,1,2.731,1.116,8.111,8.111,0,0,1,2.973,4.182,32.084,32.084,0,0,1,1.131,6.068q.557,4,1.078,8.018a249.767,249.767,0,0,1,2.4,31.634q0,3.9-.2,7.794c0,.364.57.362.588-.006Z" transform="translate(30.772 8.797)" fill="#6573c9"/>
      <g id="Group-3" data-name="Group" transform="translate(30.384 9.089)">
        <path id="Path-12" data-name="Path" d="M2.676,9.98q.725-1.041,1.5-2.05l-.063.082.107-.138.163-.209c.144-.182.289-.366.436-.547q.383-.477.781-.946Q7.239,4.23,9.044,2.44a1.448,1.448,0,0,0,0-2.031,1.464,1.464,0,0,0-2.031,0A58.94,58.94,0,0,0,.2,8.525a1.434,1.434,0,0,0,.515,1.964,1.478,1.478,0,0,0,1.964-.515Z" transform="translate(0 5.027)" fill="#81e2d2"/>
        <path id="Path-13" data-name="Path" d="M2.45,26.531q3.805-4.841,7.733-9.584,3.9-4.7,7.92-9.308,2.283-2.617,4.605-5.195a1.459,1.459,0,0,0,0-2.031,1.453,1.453,0,0,0-2.029,0q-4.121,4.577-8.118,9.26-3.968,4.647-7.811,9.4Q2.565,21.771.421,24.5A1.568,1.568,0,0,0,0,25.516a1.46,1.46,0,0,0,.421,1.014,1.445,1.445,0,0,0,1.014.421,1.391,1.391,0,0,0,1.014-.421Z" transform="translate(0.597 3.568)" fill="#81e2d2"/>
        <path id="Path-14" data-name="Path" d="M2.45,44.1Q5.62,40.057,8.778,36t6.3-8.119q3.221-4.175,6.437-8.351,3.129-4.077,6.242-8.165t6.215-8.186l.766-1.02a1.436,1.436,0,0,0,.144-1.1A1.47,1.47,0,0,0,34.222.2,1.443,1.443,0,0,0,33.115.051a1.694,1.694,0,0,0-.859.658q-3.078,4.083-6.175,8.144t-6.209,8.129q-3.126,4.079-6.269,8.146l-.383.488s.176-.23.078-.1l-.086.111-.232.3c-.26.337-.523.674-.783,1.013L10.642,28.96Q9.075,30.981,7.505,33q-3.141,4.037-6.3,8.064c-.262.335-.526.67-.789,1.007A1.562,1.562,0,0,0,0,43.085a1.437,1.437,0,0,0,1.436,1.436A1.384,1.384,0,0,0,2.452,44.1Z" transform="translate(1.521 2.826)" fill="#81e2d2"/>
        <path id="Path-15" data-name="Path" d="M2.444,57q4.879-5.07,9.614-10.275t9.379-10.491Q26.1,30.93,30.69,25.561t9.134-10.709L49.2,3.817l1.166-1.372a1.531,1.531,0,0,0,.419-1.014A1.464,1.464,0,0,0,50.369.414a1.455,1.455,0,0,0-2.031,0l-9.4,11.054Q34.369,16.842,29.79,22.2t-9.237,10.69q-4.634,5.3-9.354,10.514T1.619,53.713L.412,54.972A1.459,1.459,0,0,0,.412,57,1.448,1.448,0,0,0,2.44,57Z" transform="translate(2.434 4.48)" fill="#81e2d2"/>
        <path id="Path-16" data-name="Path" d="M2.45,67.112A159.915,159.915,0,0,1,14.317,54.194c4.037-3.995,8.192-7.863,12.26-11.825A154.262,154.262,0,0,0,37.8,30.454c1.836-2.215,3.491-4.559,5.25-6.831-.031.042-.172.222,0,.011l.144-.191.366-.465c.243-.31.49-.618.737-.924q.7-.875,1.426-1.736,1.46-1.746,2.982-3.445c4.05-4.511,8.378-8.763,12.817-12.9q.821-.766,1.646-1.531a1.447,1.447,0,0,0,0-2.031,1.466,1.466,0,0,0-2.031,0C56.675,4.535,52.29,8.758,48.165,13.233q-3.069,3.325-5.92,6.843-1.5,1.872-2.934,3.8c-.41.555-.813,1.114-1.229,1.663l-.322.412-.126.165c0,.013-.22.285-.077.1s-.069.086-.078.1l-.128.165L37,26.928A134.957,134.957,0,0,1,25.991,38.933c-4.02,3.972-8.165,7.823-12.212,11.773-4.161,4.064-8.23,8.23-11.967,12.686q-.7.838-1.393,1.69A1.556,1.556,0,0,0,0,66.1a1.459,1.459,0,0,0,.419,1.014,1.452,1.452,0,0,0,2.031,0Z" transform="translate(13.228 2.914)" fill="#81e2d2"/>
        <path id="Path-17" data-name="Path" d="M2.459,55.608q4.785-5.084,9.519-10.213t9.379-10.261q4.686-5.168,9.325-10.39t9.188-10.437Q44.463,9.05,49,3.746l1.114-1.3a1.531,1.531,0,0,0,.421-1.014A1.437,1.437,0,0,0,48.082.414q-4.534,5.31-9.117,10.571T29.778,21.432q-4.63,5.223-9.312,10.4T11.087,42.106Q6.36,47.24,1.582,52.329L.409,53.579a1.464,1.464,0,0,0,0,2.029,1.438,1.438,0,0,0,2.031,0Z" transform="translate(31.891 15.138)" fill="#81e2d2"/>
        <path id="Path-18" data-name="Path" d="M2.447,42.058q3.637-3.526,7.111-7.195t6.812-7.478q3.327-3.811,6.508-7.75,3.244-4.031,6.328-8.19Q32.218,7.379,35.062,3.2l.708-1.049A1.447,1.447,0,0,0,35.256.184,1.47,1.47,0,0,0,33.292.7q-2.814,4.18-5.79,8.242-1.493,2.042-3.03,4.05c-.115.149-.23.3-.346.45l-.212.276c-.061.08-.3.383-.042.056q-.373.482-.748.957-.779,1-1.568,1.987-3.147,3.943-6.443,7.76T8.365,31.941q-3.445,3.671-7.044,7.2l-.9.884a1.441,1.441,0,0,0,0,2.029,1.46,1.46,0,0,0,2.029,0Z" transform="translate(51.348 27.932)" fill="#81e2d2"/>
        <path id="Path-19" data-name="Path" d="M2.442,22.664q3.507-3.828,6.9-7.748T16,7.013q1.855-2.266,3.673-4.563A1.562,1.562,0,0,0,20.1,1.436,1.457,1.457,0,0,0,19.674.421,1.439,1.439,0,0,0,18.66,0a1.384,1.384,0,0,0-1.016.421Q14.422,4.487,11.086,8.46T4.335,16.287Q2.392,18.476.411,20.637a1.459,1.459,0,0,0,0,2.029,1.457,1.457,0,0,0,2.031,0Z" transform="translate(67.894 47.222)" fill="#81e2d2"/>
        <path id="Path-20" data-name="Path" d="M85.191,32.734h7.832q-.295-3.041-.649-6.073c-.645-5.593-1.411-11.172-2.2-16.748-.546-3.87-2.082-7.608-6.45-8.586C75.5-.515,66.851.1,58.463.094,46.213.084,32.575-.1,21.036.739,14.857,1.2,8.211,1.284,2.314,3.162A3.271,3.271,0,0,0,.285,4.768,4.581,4.581,0,0,0,0,6.7v.013A1.194,1.194,0,0,0,1.3,7.9c2.789-.241,5.587-.371,8.3-.574,11.538-.835,25.174-.657,37.426-.647,8.387,0,17.035-.609,25.266,1.235,4.366.976,5.9,4.716,6.448,8.586.561,3.983,1.112,7.968,1.615,11.959a4.881,4.881,0,0,0,4.841,4.274Z" transform="translate(0.704 0)" fill="#81e2d2"/>
        <path id="Path-21" data-name="Path" d="M4.877,0A4.875,4.875,0,0,0,.017,5.283,175.339,175.339,0,0,1,.578,29.718c-.011.222-.025.444-.04.664A7.6,7.6,0,0,1,.346,31.59q.907-.109,1.82-.232c4.605-.628,9.446-2.461,9.8-7.562.015-.22.031-.442.042-.664A172.482,172.482,0,0,0,11.559,0Z" transform="translate(82.561 37.246)" fill="#81e2d2"/>
      </g>
      <path id="Path-22" data-name="Path" d="M22.328,85.1c-2.488-.046-5.12-.191-7.239-1.5s-2.946-4.02-2.992-7.683c-.191-15.255-1.217-30.847-1.914-46.223-.18-3.945-.341-7.892-.461-11.84-.1-3.179-.689-6.732.6-9.746,2.105-4.942,7.733-5.656,12.47-6.2,4.234-.49,8.495-.664,12.742-1C43.28.3,63.858.1,71.636.193,63.762.1,53.493,0,50.823,0,42.767-.02,34.706.193,26.671.819c-6.282.49-13.709.191-19.68,2.412C2.139,5.032-.137,10.312.006,15.178c.551,18.716,1.769,37.4,2.58,56.1.176,4.077-.362,9.729,3.65,12.231,2.119,1.319,4.743,1.459,7.239,1.5q6.092.107,12.191.142C24.545,85.131,23.438,85.118,22.328,85.1Z" transform="translate(12.069 1.422)" fill="#282a3a"/>
      <path id="Path-23" data-name="Path" d="M23.768,85.085c-.655-.013-1.307-.031-1.96-.075-.314-.021-.628-.046-.942-.082-.065,0-.415-.056-.191-.023-.191-.027-.383-.057-.574-.094a11.6,11.6,0,0,1-1.788-.49c-.266-.1-.111-.042-.052-.015l-.191-.088c-.13-.061-.256-.124-.383-.191-.253-.134-.48-.3-.724-.444-.163-.1.191.176.057.044-.034-.034-.077-.063-.113-.1-.073-.063-.145-.13-.216-.191a2.729,2.729,0,0,1-.235-.249c-.075-.086-.22-.285-.059-.054a11.172,11.172,0,0,1-.7-1.2c-.075-.142.036.084.04.1-.019-.052-.042-.1-.061-.153-.044-.123-.09-.243-.13-.368-.086-.255-.159-.515-.222-.777s-.115-.517-.161-.775c-.021-.124-.04-.251-.059-.383-.029-.167,0,.04,0,.061-.013-.107-.027-.216-.038-.325-.14-1.34-.113-2.693-.136-4.039q-.04-2.249-.1-4.494-.121-4.473-.3-8.946c-.245-6.02-.553-12.038-.861-18.053S13.051,31.694,12.81,25.7c-.117-2.919-.176-5.842-.35-8.759A30.744,30.744,0,0,1,12.4,13c.013-.17.027-.343.046-.513,0-.063.056-.417.021-.191q.078-.505.191-1a8.788,8.788,0,0,1,.287-.905l.075-.207s.1-.23.034-.088.023-.048.029-.061l.13-.27c.113-.224.235-.446.369-.658.059-.1.122-.191.191-.285s.3-.4.107-.159A8.629,8.629,0,0,1,14.86,7.64c.094-.084.191-.159.289-.243s-.071.054-.08.059l.13-.1c.2-.144.412-.285.626-.417a12.043,12.043,0,0,1,1.3-.674c.253-.113-.191.077.061-.025.119-.046.239-.094.36-.138.243-.09.488-.172.735-.249.48-.151.97-.279,1.462-.383s.957-.2,1.443-.289c.241-.04.482-.08.725-.117q.191-.033.383-.057l.255-.036.253-.033.333-.042.766-.092q1.039-.121,2.081-.222c1.506-.147,3.015-.262,4.525-.366,2.488-.172,4.99-.354,7.486-.517,3.382-.222,6.776-.318,10.164-.4q6.209-.161,12.418-.212c3.547-.034,7.094-.056,10.64-.036l1.859.015A1.45,1.45,0,0,0,74.5,1.632,1.466,1.466,0,0,0,73.069.2Q65.393.1,57.724.035C53.14,0,48.557-.028,43.973.062q-4.858.1-9.712.348c-3.041.161-6.075.433-9.117.584C19.531,1.274,13.66,1.266,8.3,3.178a11.745,11.745,0,0,0-5.828,4.5A15,15,0,0,0,.1,14.41,25.661,25.661,0,0,0,.051,18.3q.075,2.417.167,4.833.178,4.875.4,9.748c.295,6.5.632,12.993.957,19.487s.668,12.991.957,19.489c.191,4.326-.362,9.5,2.764,12.968,1.926,2.14,4.887,2.795,7.639,2.976,3.124.209,6.28.145,9.41.178q2.37.023,4.741.038a1.436,1.436,0,1,0,0-2.871c-1.112-.015-2.222-.029-3.332-.048a1.447,1.447,0,0,0-1.436,1.436,1.462,1.462,0,0,0,1.436,1.436c1.11.019,2.22.033,3.332.048V85.15q-4.785-.031-9.57-.1c-1.48-.023-2.961-.017-4.439-.107-.339-.021-.676-.048-1.014-.084l-.216-.023-.1-.013-.167-.027-.285-.048a11.364,11.364,0,0,1-1.924-.53c-.224-.082.168.078-.052-.019l-.191-.088c-.149-.071-.3-.147-.444-.23a7.656,7.656,0,0,1-.775-.5c.191.145.044.031-.052-.054s-.191-.168-.278-.256-.176-.178-.26-.27-.3-.369-.111-.119a6.992,6.992,0,0,1-.766-1.258c-.023-.048-.042-.1-.067-.144-.094-.178.088.239.021.05-.036-.1-.078-.191-.115-.3-.092-.253-.172-.509-.245-.766a13.379,13.379,0,0,1-.318-1.5c-.011-.073-.021-.145-.033-.22,0,0,.031.274.013.105-.013-.128-.031-.258-.046-.383-.027-.26-.05-.523-.069-.783-.078-1.051-.094-2.105-.115-3.158-.052-2.823-.222-5.648-.356-8.472q-.23-4.785-.477-9.57c-.325-6.355-.662-12.707-.967-19.062S3.1,24.5,2.9,18.144a27.381,27.381,0,0,1,.059-3.78c.017-.168-.011.078-.013.092.013-.077.023-.153.034-.23.019-.117.038-.232.059-.346q.08-.431.191-.856a13.862,13.862,0,0,1,.482-1.56c.048-.128.1-.253.147-.383-.1.262.017-.036.063-.136.113-.247.234-.488.36-.727a12.564,12.564,0,0,1,.892-1.409c.161-.224-.119.138.056-.073.086-.1.17-.207.258-.308q.281-.323.59-.626c.18-.172.364-.341.555-.5.08-.067.346-.264.117-.1.126-.092.251-.191.383-.27a9.84,9.84,0,0,1,1.445-.8c.021-.01.207-.084.05-.023s.071-.025.111-.04c.149-.057.3-.111.452-.163q.465-.163.936-.306a30.449,30.449,0,0,1,3.918-.888c.339-.056.676-.105,1.014-.153-.22.031.214-.027.276-.034l.586-.071q1.034-.115,2.069-.191,2.073-.164,4.154-.249c5.981-.279,11.948-.777,17.935-.969C45.091,2.887,50.1,2.857,55.117,2.9q7.111.056,14.223.14l3.721.042V.21c-3.275-.038-6.552-.025-9.827,0Q56.906.256,50.579.388C46.867.468,43.156.564,39.45.77c-1.981.105-3.956.272-5.934.4-3.078.2-6.156.392-9.22.743-4.152.475-8.881,1-11.949,4.175A10.938,10.938,0,0,0,9.52,13.264a35.077,35.077,0,0,0,.092,4.087c.086,1.443.126,2.884.176,4.33.211,6.146.509,12.29.821,18.432s.635,12.26.905,18.392c.27,6.094.484,12.191.574,18.289.034,2.435.191,5.026,1.462,7.178a8.365,8.365,0,0,0,6.069,3.7A28.565,28.565,0,0,0,23.763,88a1.436,1.436,0,1,0,0-2.871Z" transform="translate(10.629)" fill="#282a3a"/>
      <g id="Group-4" data-name="Group" transform="translate(57.603 8.801)">
        <path id="Path-24" data-name="Path" d="M9.36.367h1.516C7.314.367,3.662.345,0,.351c3.17,0,6.309.013,9.36.015Z" transform="translate(18.151 0.015)" fill="#eac36e"/>
        <path id="Path-25" data-name="Path" d="M9.647.591h1.516a.287.287,0,1,0,0-.574C7.538.016,3.912,0,.287,0a.287.287,0,1,0,0,.574c3.12,0,6.24.019,9.36.021a.287.287,0,1,0,0-.574C6.527.022,3.407.007.287,0V.575q5.438,0,10.876.015V.016H9.647a.287.287,0,1,0,0,.574Z" transform="translate(17.864 0.078)" fill="#eac36e"/>
        <path id="Path-26" data-name="Path" d="M19.621.1Q9.811.2,0,.23C8.02.241,16.04.178,24.058.1L25.589.084C23.6.077,21.61.077,19.621.1Z" transform="translate(0.287 70.036)" fill="#eac36e"/>
        <path id="Path-27" data-name="Path" d="M19.908.011Q12.252.088,4.573.132L.287.145a.287.287,0,0,0,0,.574Q5.273.72,10.263.7T20.241.626C22.117.609,23.995.584,25.872.574a.287.287,0,0,0,0-.574C23.884,0,21.9,0,19.908.011a.287.287,0,0,0,0,.574C21.9.565,23.884.567,25.872.574V0C22.548.017,19.223.063,15.9.088S9.245.134,5.92.142H.287V.716Q7.957.7,15.623.624L19.908.582a.287.287,0,0,0,0-.57Z" transform="translate(0 69.834)" fill="#eac36e"/>
        <path id="Path-28" data-name="Path" d="M32.9,26.661c-.645-5.593-1.411-11.172-2.2-16.748-.546-3.87-2.082-7.608-6.45-8.586C18.507.046,12.593-.046,6.692.013A64.023,64.023,0,0,1,19.812,1.326c4.366.978,5.9,4.716,6.448,8.586.785,5.576,1.552,11.155,2.2,16.748a200.6,200.6,0,0,1,1.5,33.716c-.013.222-.027.444-.042.664-.358,5.1-5.2,6.935-9.8,7.562-4.441.6-8.77.928-13.251,1.1-2.3.088-4.578.124-6.87.136,3.771.013,7.539.011,11.306-.136,4.481-.174,8.8-.5,13.251-1.1,4.605-.628,9.446-2.461,9.8-7.562.015-.22.031-.442.042-.664A200.4,200.4,0,0,0,32.9,26.661Z" transform="translate(32.964 0.288)" fill="#eac36e"/>
        <path id="Path-29" data-name="Path" d="M33.473,26.949c-.394-3.419-.835-6.831-1.3-10.24q-.35-2.607-.718-5.212a27.686,27.686,0,0,0-.7-3.815,9.014,9.014,0,0,0-3.679-5.359A10.834,10.834,0,0,0,23.3,1.061c-1.629-.314-3.275-.538-4.927-.7A108.732,108.732,0,0,0,6.983.01a.287.287,0,0,0,0,.574A67.423,67.423,0,0,1,18.643,1.6a9.591,9.591,0,0,1,4.28,1.61A7.813,7.813,0,0,1,25.185,6.2a14.576,14.576,0,0,1,1.049,3.809c.295,1.914.542,3.842.8,5.761.54,3.953,1.053,7.909,1.5,11.867A229.287,229.287,0,0,1,30.164,51.4q.025,2.976-.061,5.953-.044,1.531-.124,3.043a11,11,0,0,1-.278,2.282c-.679,2.536-2.848,4.115-5.214,4.977a19.791,19.791,0,0,1-3.884.932c-1.9.279-3.817.479-5.731.649-3.889.348-7.794.526-11.7.59-.957.015-1.914.023-2.886.029a.287.287,0,0,0,0,.574c5.245.017,10.489-.021,15.724-.364,2.59-.168,5.168-.406,7.748-.733A24.057,24.057,0,0,0,29.2,68.153a9.762,9.762,0,0,0,4.088-2.662A6.91,6.91,0,0,0,34.5,63.414a9.437,9.437,0,0,0,.479-2.825,157.407,157.407,0,0,0,0-15.847c-.247-5.306-.712-10.6-1.294-15.875-.071-.641-.144-1.284-.218-1.926-.042-.364-.616-.368-.574,0,.593,5.137,1.087,10.286,1.388,15.448s.413,10.38.234,15.569c-.042,1.233-.052,2.488-.191,3.709a6.494,6.494,0,0,1-.766,2.427,7.7,7.7,0,0,1-3.549,3.087,17.5,17.5,0,0,1-4.977,1.386c-2.479.364-4.977.6-7.478.794-5.107.383-10.225.482-15.343.477H.279v.574c4.058-.021,8.116-.134,12.164-.423,1.979-.142,3.954-.323,5.934-.557a37.666,37.666,0,0,0,4.647-.752c2.454-.618,4.99-1.761,6.4-3.966a7.878,7.878,0,0,0,1.11-3.922c.117-2.025.176-4.054.191-6.083A207.665,207.665,0,0,0,29.4,30.249c-.433-4.085-.942-8.162-1.485-12.233q-.4-2.988-.817-5.976a28.737,28.737,0,0,0-.854-4.626,8.451,8.451,0,0,0-4.986-5.763,15.684,15.684,0,0,0-2.53-.614c-.957-.18-1.914-.329-2.871-.456C13.892.324,11.919.175,9.945.091,8.954.049,7.963.026,6.971.01V.585c3.285-.033,6.573-.021,9.85.22,1.627.121,3.254.3,4.862.555A16.586,16.586,0,0,1,26,2.4a7.825,7.825,0,0,1,4.006,4.822,19.141,19.141,0,0,1,.752,3.464q.348,2.469.685,4.936c.517,3.771,1.007,7.543,1.443,11.324.054.366.628.371.586,0Z" transform="translate(32.673 0)" fill="#eac36e"/>
      </g>
      <g id="Group-5" data-name="Group" transform="translate(20.04 0.029)">
        <path id="Path-30" data-name="Path" d="M113.787,74.938c.7-13.488-.207-26.988-1.679-40.406-.737-6.718-1.615-13.421-2.521-20.121a22.68,22.68,0,0,0-1.914-7.273,10.186,10.186,0,0,0-4.85-4.795A18.159,18.159,0,0,0,98.57,1.195c-1.637-.3-3.286-.53-4.94-.706A97.979,97.979,0,0,0,83.773.006C77.435-.032,71.1.125,64.758.109,52.317.081,39.843-.017,27.434.875c-6,.433-12.189-.356-18.074,1.148A13.171,13.171,0,0,0,2.852,5.48,10.512,10.512,0,0,0,.264,10.918C-.425,15,.415,19.089.741,23.159c.237,2.974.222,5.978.331,8.96q.18,5.022.4,10.043c.289,6.806.6,13.611.844,20.421q.18,5.049.295,10.1c.065,2.971-.191,6.125.626,9.019a8.613,8.613,0,0,0,1.631,3.2A7.655,7.655,0,0,0,8.2,87.079c2.827,1.045,6.048.848,9.011.892q10.158.149,20.316.121t20.316-.132c6.787-.071,13.575,0,20.362-.057A179.058,179.058,0,0,0,98,86.753c4.661-.559,10.114-1.238,13.374-5.051a9.967,9.967,0,0,0,1.748-2.944,12.368,12.368,0,0,0,.666-3.828,1.436,1.436,0,0,0-2.871,0,11.142,11.142,0,0,1-.161,1.665,8.778,8.778,0,0,1-.216.858c-.027.092-.057.191-.088.272-.017.048-.218.547-.113.31a7.761,7.761,0,0,1-.733,1.294c.013-.017-.245.333-.124.176s-.153.18-.138.165c-.191.218-.383.425-.591.624-.176.168-.362.325-.547.482-.327.279.222-.145-.132.1l-.218.155a12.038,12.038,0,0,1-1.4.831c-.226.115-.457.222-.689.325s.308-.119-.109.046c-.13.05-.26.1-.383.151-.534.191-1.078.371-1.627.523a48.019,48.019,0,0,1-7.758,1.206c-3.189.333-6.387.555-9.589.7-6.554.3-13.115.2-19.675.2-6.655,0-13.312.117-19.967.159q-9.882.063-19.767.015-4.94-.031-9.884-.1c-2.7-.04-5.7.191-8.186-.844a6.537,6.537,0,0,1-.882-.459c-.1-.061-.191-.126-.293-.191-.333-.212.174.191-.111-.086-.155-.147-.312-.287-.454-.444-.023-.025-.283-.352-.1-.107-.1-.14-.2-.283-.291-.433-.117-.191-.214-.392-.318-.591-.2-.383.078.245-.077-.168-.042-.113-.082-.224-.122-.337a10.989,10.989,0,0,1-.419-1.723,7.507,7.507,0,0,1-.1-.787c-.027-.295-.046-.591-.059-.888-.038-.833-.033-1.669-.048-2.5q-.036-2.417-.1-4.835c-.165-6.665-.436-13.326-.724-19.987-.283-6.565-.574-13.129-.812-19.7-.1-2.749-.082-5.514-.323-8.253-.174-1.991-.452-3.97-.607-5.96-.078-1-.126-2.01-.107-3.017,0-.465.033-.93.077-1.393,0-.1.082-.7.034-.358.034-.241.075-.482.122-.724a10.862,10.862,0,0,1,.329-1.277c.073-.226.153-.448.243-.668-.109.274-.033.075,0,.019.069-.142.134-.283.207-.423a8.518,8.518,0,0,1,.691-1.1c-.191.251.191-.214.237-.27a7.779,7.779,0,0,1,.616-.614L5.623,6.8c.023-.017.358-.276.119-.1.18-.134.364-.26.553-.383a10.189,10.189,0,0,1,1.541-.81c-.235.1.339-.126.272-.1.182-.069.366-.134.549-.191q.456-.155.923-.289a22.628,22.628,0,0,1,2.238-.5,48.778,48.778,0,0,1,8.571-.49c5.813,0,11.6-.528,17.408-.718,6.125-.2,12.25-.247,18.375-.253,6.184,0,12.369.073,18.553-.01a158.456,158.456,0,0,1,18.9.4q2.308.245,4.594.681c.672.128,1.34.262,2.008.429a7.21,7.21,0,0,1,1.554.551,6.443,6.443,0,0,1,2.35,1.876,7.816,7.816,0,0,1,.729,1.08q.178.3.333.62c.065.126.126.255.191.383,0,0,.176.413.082.191a28.813,28.813,0,0,1,1.506,7.153q.672,4.977,1.3,9.974a317.5,317.5,0,0,1,2.892,39.079q0,4.785-.245,9.57a1.433,1.433,0,1,0,2.865-.006Z" transform="translate(0)" fill="#282a3a"/>
        <path id="Path-31" data-name="Path" d="M95.632,61.244a198.4,198.4,0,0,0-1.376-32.61c-.611-5.426-1.34-10.837-2.1-16.245A22.748,22.748,0,0,0,90.8,6.431a8.677,8.677,0,0,0-3.422-4.071A9.27,9.27,0,0,0,84.5,1.286c-1.3-.278-2.6-.494-3.914-.668A72.811,72.811,0,0,0,72.759.043c-5.2-.126-10.4.065-15.6.054C47.034.076,36.9-.028,26.782.459c-2.406.115-4.806.295-7.208.45-2.513.161-5.03.3-7.534.563A49.739,49.739,0,0,0,4.592,2.734a8.2,8.2,0,0,0-3.254,1.34A3.933,3.933,0,0,0,.027,7.242c-.1,5.453.111,10.931.3,16.382s.446,10.941.693,16.409.484,10.937.643,16.407q.057,2.052.1,4.1c.025,1.275,0,2.559.1,3.828a7.791,7.791,0,0,0,2.048,5.179c1.675,1.556,4.152,1.885,6.341,1.979,2.643.115,5.3.1,7.943.124q8.23.084,16.446.046t16.448-.123c5.43-.056,10.862.048,16.292-.033a148.9,148.9,0,0,0,16.078-1.026c3.616-.446,7.811-1.1,10.315-4.056a8.393,8.393,0,0,0,1.849-5.22c.061-1.108-1.661-1.1-1.723,0a6.418,6.418,0,0,1-1.8,4.494,9.956,9.956,0,0,1-4.251,2.251,36.984,36.984,0,0,1-6.2,1.018c-2.557.276-5.124.469-7.693.6-5.289.274-10.583.249-15.887.23-5.348-.019-10.7.059-16.048.1q-7.941.057-15.887.044-4.02-.011-8.039-.05c-2.615-.027-5.237-.011-7.848-.124-1.866-.08-4.236-.312-5.5-1.868C3.62,66.54,3.545,64.5,3.52,62.773c-.08-5.287-.264-10.569-.484-15.852C2.6,36.292,2.006,25.675,1.809,15.029c-.048-2.647-.149-5.315-.061-7.964a2.316,2.316,0,0,1,.383-1.38A2.588,2.588,0,0,1,3.279,4.9,24.923,24.923,0,0,1,6.671,4c4.785-1.016,9.7-1.148,14.566-1.489,9.712-.687,19.449-.733,29.182-.714,4.933,0,9.863.029,14.794-.038a101.854,101.854,0,0,1,15.3.574c1.235.17,2.465.383,3.681.653a7.36,7.36,0,0,1,2.617,1.06,7.418,7.418,0,0,1,2.71,3.84,32.236,32.236,0,0,1,1.131,6.068q.546,3.931,1.057,7.865a249.767,249.767,0,0,1,2.4,31.634q0,3.9-.2,7.794c-.057,1.108,1.665,1.1,1.725,0Z" transform="translate(10.154 8.193)" fill="#282a3a"/>
        <path id="Path-32" data-name="Path" d="M10.221,1.739h1.516a.861.861,0,1,0,0-1.723C8.112.016,4.487,0,.861,0a.861.861,0,0,0,0,1.723c3.12,0,6.24.019,9.36.021a.861.861,0,0,0,0-1.723C7.1.022,3.981.007.861,0V1.724q5.438,0,10.876.015V.016H10.221a.861.861,0,1,0,0,1.723Z" transform="translate(54.853 8.276)" fill="#282a3a"/>
        <path id="Path-33" data-name="Path" d="M20.482.011Q12.826.088,5.147.132L.861.145A.869.869,0,0,0,0,1.007a.879.879,0,0,0,.861.861q4.986,0,9.976-.021t9.978-.073c1.876-.017,3.753-.042,5.631-.052a.861.861,0,0,0,0-1.723c-1.989,0-3.976,0-5.964.011a.861.861,0,0,0,0,1.723c1.989-.021,3.976-.019,5.964-.011V0C23.122.017,19.8.063,16.471.088S9.819.134,6.494.142H.861V1.864q7.67-.013,15.335-.092l4.286-.042a.861.861,0,1,0,0-1.723Z" transform="translate(36.989 78.031)" fill="#282a3a"/>
        <path id="Path-34" data-name="Path" d="M34.586,27.519c-.4-3.47-.848-6.933-1.315-10.393q-.354-2.607-.72-5.212a27.971,27.971,0,0,0-.7-3.815A9.588,9.588,0,0,0,27.91,2.4a11.182,11.182,0,0,0-3.918-1.319c-1.679-.323-3.378-.555-5.08-.72A108.732,108.732,0,0,0,7.522.01a.862.862,0,0,0,0,1.723,66.594,66.594,0,0,1,11.507,1,15.142,15.142,0,0,1,2.465.6,5.256,5.256,0,0,1,.752.346c.147.08.293.167.434.256l.191.124a2.144,2.144,0,0,0,.191.13,7.049,7.049,0,0,1,2.172,2.871c.078.172.052.107.122.287.056.14.107.281.157.423.111.314.209.634.3.957a18.043,18.043,0,0,1,.415,1.993c.295,1.914.542,3.84.8,5.761.532,3.9,1.037,7.807,1.481,11.72a229.287,229.287,0,0,1,1.623,23.755q.025,2.976-.061,5.953-.044,1.531-.124,3.043a9.532,9.532,0,0,1-.256,2.13c-.044.159-.092.318-.145.473-.025.071-.05.14-.077.209-.1.264.067-.142-.048.117a6.11,6.11,0,0,1-.448.823,3.866,3.866,0,0,1-.415.574,7.343,7.343,0,0,1-.674.685c-.117.1-.234.191-.356.3.1-.075-.191.138-.235.168a9.348,9.348,0,0,1-.8.5,9.761,9.761,0,0,1-1.614.733,19.9,19.9,0,0,1-3.886.936c-1.849.27-3.715.461-5.578.628-3.889.348-7.794.526-11.7.59-.957.015-1.914.023-2.886.029a.862.862,0,0,0,0,1.723c5.245.017,10.489-.021,15.724-.364,2.59-.168,5.168-.406,7.748-.733a24.715,24.715,0,0,0,5.6-1.192,10.321,10.321,0,0,0,4.341-2.812A7.689,7.689,0,0,0,35.6,64.151a10.017,10.017,0,0,0,.5-2.978,157.405,157.405,0,0,0,0-15.847c-.247-5.306-.712-10.6-1.294-15.875-.071-.641-.144-1.284-.218-1.926a.887.887,0,0,0-.861-.861.866.866,0,0,0-.861.861c.593,5.137,1.087,10.286,1.388,15.448s.413,10.38.234,15.569c-.042,1.233-.052,2.488-.191,3.709-.013.1,0,.034,0,.013a1.362,1.362,0,0,1-.029.191c-.017.094-.034.191-.054.279-.048.224-.107.444-.176.662-.031.1-.065.191-.1.3-.011.031-.09.23-.044.119a5.582,5.582,0,0,1-.285.574c-.1.172-.2.339-.312.5-.048.069-.1.138-.147.2-.084.113.071-.086-.019.023-.034.044-.071.086-.107.128a7.045,7.045,0,0,1-.829.827,6.316,6.316,0,0,1-.856.614,10.548,10.548,0,0,1-1.072.574l-.283.13-.059.027-.1.042c-.191.078-.383.153-.59.224-.4.144-.81.268-1.221.383a22.379,22.379,0,0,1-2.578.526c-2.429.356-4.881.588-7.327.766-5.107.383-10.225.482-15.343.477H.828v1.723c4.058-.021,8.116-.134,12.164-.423,1.979-.142,3.954-.323,5.934-.557a40.546,40.546,0,0,0,4.8-.766c2.605-.657,5.248-1.9,6.745-4.23a8.517,8.517,0,0,0,1.187-4.211c.117-2.025.176-4.054.191-6.083a207.665,207.665,0,0,0-1.33-24.462c-.433-4.085-.942-8.162-1.485-12.233q-.408-3.063-.838-6.125a28.694,28.694,0,0,0-.852-4.626A10.952,10.952,0,0,0,25.43,4.12a8,8,0,0,0-3.472-2.442,15.737,15.737,0,0,0-2.538-.622c-1-.191-2.008-.343-3.018-.475-1.96-.255-3.933-.406-5.907-.49C9.5.049,8.511.026,7.52.01V1.733c3.285-.033,6.573-.021,9.85.22,1.575.117,3.149.283,4.709.534q1.225.191,2.442.457c.314.067.626.136.932.23.145.042.287.09.429.142s.295.113.383.153a7.249,7.249,0,0,1,3.742,4.479,19.079,19.079,0,0,1,.752,3.464q.348,2.467.685,4.936c.509,3.719.991,7.442,1.422,11.17a.888.888,0,0,0,.861.861.86.86,0,0,0,.859-.861Z" transform="translate(69.697 8.201)" fill="#282a3a"/>
      </g>
      <g id="Group-6" data-name="Group" transform="translate(15.335 33.474)">
        <path id="Path-35" data-name="Path" d="M1.436,2.871H3.254A1.481,1.481,0,0,0,4.268,2.45a1.072,1.072,0,0,0,.3-.461,1.083,1.083,0,0,0,.124-.553A1.459,1.459,0,0,0,4.268.419,1.5,1.5,0,0,0,3.254,0H1.436A1.48,1.48,0,0,0,.421.419,1.612,1.612,0,0,0,0,1.436,1.455,1.455,0,0,0,.421,2.45a1.489,1.489,0,0,0,1.014.421Z" fill="#ed7a7a"/>
        <path id="Path-36" data-name="Path" d="M1.436,2.871H3.254A1.481,1.481,0,0,0,4.268,2.45a1.072,1.072,0,0,0,.3-.461,1.083,1.083,0,0,0,.124-.553A1.462,1.462,0,0,0,4.268.419,1.5,1.5,0,0,0,3.254,0H1.436A1.48,1.48,0,0,0,.421.419,1.612,1.612,0,0,0,0,1.436,1.455,1.455,0,0,0,.421,2.45a1.489,1.489,0,0,0,1.014.421Z" transform="translate(0.53 6.133)" fill="#ed7a7a"/>
        <path id="Path-37" data-name="Path" d="M1.437,2.871H3.255A1.481,1.481,0,0,0,4.269,2.45a1.072,1.072,0,0,0,.3-.461,1.1,1.1,0,0,0,.124-.553A1.455,1.455,0,0,0,4.269.421,1.489,1.489,0,0,0,3.255,0H1.437A1.481,1.481,0,0,0,.422.421a1.06,1.06,0,0,0-.3.461A1.08,1.08,0,0,0,0,1.436,1.455,1.455,0,0,0,.422,2.45a1.489,1.489,0,0,0,1.014.421Z" transform="translate(1.059 12.265)" fill="#ed7a7a"/>
      </g>
      <g id="Group-7" data-name="Group" transform="translate(0 26.91)">
        <path id="Path-38" data-name="Path" d="M4.72,6.885H17.441q2.768-.165,5.518-.471a1.839,1.839,0,0,0,1.051-.341.909.909,0,0,0,.147-.842Q23.7,2.6,23.022,0L0,.327A26.8,26.8,0,0,0,1.1,6.605q1.807.176,3.621.279Z" transform="translate(66.033 60.519)" fill="#282a3a"/>
        <path id="Path-39" data-name="Path" d="M6.152,9.762h12.6c1,0,2.021-.124,3.022-.212Q23.04,9.44,24.3,9.3A4.948,4.948,0,0,0,25.725,9a2.105,2.105,0,0,0,1.265-1.4,3.713,3.713,0,0,0-.075-1.627c-.071-.4-.147-.8-.226-1.2q-.247-1.246-.544-2.479Q26,1.675,25.838,1.06A1.455,1.455,0,0,0,24.458,0l-2.3.033-5.5.078L10,.207,4.263.287C3.334.3,2.4.3,1.478.327h-.04A1.451,1.451,0,0,0,0,1.763,28.856,28.856,0,0,0,1.15,8.428,1.487,1.487,0,0,0,2.534,9.482q1.809.167,3.621.274A1.443,1.443,0,0,0,7.591,8.32,1.47,1.47,0,0,0,6.156,6.885q-1.813-.107-3.621-.274L3.918,7.664a27.628,27.628,0,0,1-.905-4.211l.052.383Q2.927,2.8,2.873,1.755L1.437,3.191l2.3-.033,5.5-.078,6.655-.094L21.633,2.9c.926-.013,1.859,0,2.785-.04h.04L23.074,1.809a52.013,52.013,0,0,1,1.148,5.359l-.052-.383a1.564,1.564,0,0,1,0,.341l.052-.383a.971.971,0,0,1-.056.191l.145-.343c-.054.092-.04.082.034-.029a.645.645,0,0,1,.262-.234c-.059.021-.117.067-.174.094l.343-.144a2.68,2.68,0,0,1-.634.147l.383-.052c-1.382.172-2.773.289-4.163.383-.563.042-1.127.1-1.692.1H6.152a1.452,1.452,0,0,0,0,2.9Z" transform="translate(64.601 59.086)" fill="#282a3a"/>
        <path id="Path-40" data-name="Path" d="M123.168,31.429H6.376c-1.575,0-3.16-.056-4.735,0H1.434l1.436,1.436V13.412A10.443,10.443,0,0,1,13.4,2.875h95.73a13.718,13.718,0,0,1,4.9.706,11.852,11.852,0,0,1,7.7,10.516c.088,2.255.011,4.523.011,6.78v12a1.436,1.436,0,0,0,2.871,0V16.046a27.884,27.884,0,0,0-.069-2.8A14.635,14.635,0,0,0,121.7,5.884,14.788,14.788,0,0,0,109.952,0c-2.446-.01-4.894,0-7.342,0H13.958a14.478,14.478,0,0,0-6.891,1.56A13.464,13.464,0,0,0,.006,13.4c-.013,5.893,0,11.789,0,17.68v1.792a1.457,1.457,0,0,0,1.436,1.436H118.226c1.577,0,3.156.027,4.733,0h.209a1.44,1.44,0,0,0,0-2.879Z" transform="translate(9.625 65.972)" fill="#282a3a"/>
        <path id="Path-41" data-name="Path" d="M139.644.014H7c-1.792,0-3.587-.031-5.379,0H1.387a1.436,1.436,0,0,0,0,2.871H134.04c1.79,0,3.585.031,5.377,0h.235a1.436,1.436,0,0,0,0-2.871Z" transform="translate(0 97.388)" fill="#282a3a"/>
        <path id="Path-42" data-name="Path" d="M16.649,0H11.882A11.882,11.882,0,0,0,0,11.882v19.55H29.817V13.171A13.169,13.169,0,0,0,16.649,0Z" transform="translate(11.059 67.404)" fill="#282a3a"/>
        <path id="Path-43" data-name="Path" d="M18.084.013h-5.1A13.318,13.318,0,0,0,.239,10.83,18.071,18.071,0,0,0,0,14.04V32.874A1.457,1.457,0,0,0,1.438,34.31H27.584c1.208,0,2.416.021,3.623,0h.048a1.457,1.457,0,0,0,1.436-1.436V14.932a16.536,16.536,0,0,0-.341-3.459,14.164,14.164,0,0,0-2.389-5.359,14.985,14.985,0,0,0-4.487-4.108A14.828,14.828,0,0,0,19.55.082,13.381,13.381,0,0,0,18.086,0a1.451,1.451,0,0,0-1.436,1.436,1.459,1.459,0,0,0,1.436,1.436,13.7,13.7,0,0,1,1.792.122l-.383-.052a13.289,13.289,0,0,1,3.348.921L22.5,3.717a13.226,13.226,0,0,1,1.74.9q.415.255.812.54l.176.13.1.075c.17.128-.145-.111-.142-.109.113.021.3.243.383.316a13.464,13.464,0,0,1,1.386,1.359c.1.119.2.237.3.358l.136.172c.061.075.155.211-.107-.144l.094.124q.293.383.555.8a13.41,13.41,0,0,1,1.032,1.954l-.145-.343a13.37,13.37,0,0,1,.921,3.348l-.052-.383a22.45,22.45,0,0,1,.121,3V30.422c0,.8-.023,1.608,0,2.41v.034l1.436-1.436H5.107c-1.206,0-2.416-.031-3.621,0h-.05l1.436,1.436V15.159c0-.8-.025-1.608.013-2.408.017-.343.048-.683.094-1.024l-.052.383a12.083,12.083,0,0,1,.833-3.043l-.144.345a12.007,12.007,0,0,1,.812-1.575c.153-.249.318-.494.488-.731.038-.052.075-.1.113-.153a.519.519,0,0,1,.075-.1,1.472,1.472,0,0,1-.128.167c.092-.115.191-.23.278-.341A11.867,11.867,0,0,1,6.479,5.424q.151-.136.31-.264l.172-.138c.22-.178-.272.2-.042.033s.475-.345.724-.5A11.971,11.971,0,0,1,9.4,3.623l-.343.145A12.007,12.007,0,0,1,12.1,2.934l-.383.052a19.768,19.768,0,0,1,2.586-.107h3.776a1.451,1.451,0,0,0,1.436-1.436A1.462,1.462,0,0,0,18.084.013Z" transform="translate(9.623 65.963)" fill="#282a3a"/>
        <path id="Path-44" data-name="Path" d="M.767.8A.921.921,0,0,0,0,1.753c.413,11.588,1.164,24.81,1.591,36.472a.915.915,0,0,0,.84.879c5.522.44,12.931.281,18.272.574,10.173.546,17.718-.649,27.905-.854a2.554,2.554,0,0,0,1.811-.513,2.609,2.609,0,0,0,.461-1.914q-.549-17.227-2.752-34.346a6.02,6.02,0,0,0-.153-.817.909.909,0,0,0-.859-.658C37.364.371,25.217.147,23.19.134,15.991.1,7.92-.4.767.8Z" transform="translate(47.883 1.442)" fill="#282a3a"/>
        <path id="Path-45" data-name="Path" d="M1.82.856A2.373,2.373,0,0,0,0,3.2C0,3.886.05,4.575.077,5.26Q.163,7.5.268,9.747q.191,4.617.417,9.232c.287,6.115.586,12.229.827,18.346.029.722.056,1.445.082,2.167a2.649,2.649,0,0,0,.371,1.4A2.377,2.377,0,0,0,3.327,41.9a6.7,6.7,0,0,0,1.162.128l1.024.065c.657.036,1.315.067,1.971.094,2.84.109,5.681.136,8.521.182,1.361.023,2.72.048,4.081.094s2.76.132,4.14.176c3,.1,6.008.05,9.011-.084,2.888-.13,5.773-.333,8.659-.507,1.478-.088,2.957-.168,4.437-.232q1.212-.052,2.421-.088A18.8,18.8,0,0,0,51.19,41.6a2.951,2.951,0,0,0,2.13-1.416,4.6,4.6,0,0,0,.436-2.439q-.077-2.469-.191-4.934-.226-4.883-.574-9.762-.72-9.8-1.975-19.552a5.934,5.934,0,0,0-.253-1.33A2.337,2.337,0,0,0,49.628.85a5.854,5.854,0,0,0-2.46-.295L43.024.471Q39,.387,34.985.314C31.54.249,28.095.167,24.659.142,18.58.1,12.482-.229,6.414.284,4.883.414,3.361.6,1.847.858a1.439,1.439,0,0,0-.858.66A1.459,1.459,0,0,0,.846,2.625a1.474,1.474,0,0,0,1.765,1Q3.376,3.5,4.142,3.4l-.383.052a81.054,81.054,0,0,1,10.667-.574c3.436,0,6.871.113,10.307.14,1.587.011,3.172.044,4.758.071q4.2.073,8.4.155,4.812.092,9.626.191c.383,0,.766,0,1.139.027l-.383-.052a1.033,1.033,0,0,1,.17.034c.163.027-.325-.163-.128-.052S48.093,3.2,48.2,3.31s-.178-.316-.082-.1c-.013-.031-.105-.335-.065-.151.015.077.038.149.056.226.034.167.061.333.084.5L48.144,3.4c.609,4.609,1.1,9.235,1.518,13.865s.741,9.277.974,13.923q.1,1.964.176,3.928c.025.637.05,1.275.071,1.914a10.964,10.964,0,0,1,0,1.723l.052-.383c-.027.172-.092.333-.124.5.054-.287.105-.243.017-.084-.128.23.228-.287.015-.034-.08.075-.031.038.151-.107-.038.027-.078.054-.121.078l-.063.034c-.134.063-.086.044.144-.059-.165.017-.339.1-.505.123l.383-.052c-.766.1-1.57.065-2.347.09q-1.256.038-2.506.094c-1.592.073-3.185.163-4.785.26-3.062.191-6.125.4-9.187.513-3.254.121-6.508.123-9.748-.05-2.862-.149-5.731-.178-8.6-.222-2.951-.046-5.9-.088-8.851-.283-.331-.023-.664-.038-.993-.077l.383.052a.957.957,0,0,1-.132-.031c.235.111.291.132.161.065-.2-.121.253.249.086.063.144.2.191.256.123.165a.748.748,0,0,1-.05-.084c.094.245.119.3.073.157a1.034,1.034,0,0,1-.025-.134l.052.383c-.086-1.166-.09-2.343-.138-3.51s-.1-2.373-.149-3.56q-.161-3.656-.333-7.31c-.228-4.864-.463-9.727-.674-14.591Q3.108,8.78,3.03,6.8q-.04-1-.078-1.994c-.011-.327-.025-.657-.036-.986A5.235,5.235,0,0,1,2.9,2.986l-.052.383c.065-.312-.067.08-.063.09a1.125,1.125,0,0,1,.067-.115c-.157.191-.191.245-.119.165s-.335.2-.078.065c.1-.052.036-.027-.191.078A.81.81,0,0,1,2.6,3.618a1.444,1.444,0,0,0,1-1.765,1.47,1.47,0,0,0-1.784-1Z" transform="translate(46.446 0)" fill="#282a3a"/>
      </g>
      <path id="Path-46" data-name="Path" d="M.767.8A.919.919,0,0,0,0,1.755c.412,11.588,1.164,24.81,1.591,36.472a.911.911,0,0,0,.84.877c5.522.442,12.931.283,18.272.574,10.173.546,17.718-.649,27.905-.854a2.538,2.538,0,0,0,1.809-.515,2.618,2.618,0,0,0,.463-1.914q-.549-17.227-2.754-34.344a5.742,5.742,0,0,0-.151-.817.909.909,0,0,0-.859-.658C37.354.369,25.217.147,23.19.134,15.99.1,7.916-.4.767.8Z" transform="translate(52.691 24.17)" fill="#fff"/>
      <path id="Path-47" data-name="Path" d="M1.436,2.871H4.99A1.481,1.481,0,0,0,6.006,2.45,1.436,1.436,0,0,0,4.99,0H1.436A1.434,1.434,0,0,0,0,1.436,1.46,1.46,0,0,0,1.436,2.871Z" transform="translate(21.659 108.036)" fill="#eac36e"/>
      <g id="Group-8" data-name="Group" transform="translate(52.899 107.504)">
        <path id="Path-48" data-name="Path" d="M1.437,2.871H27.066A1.451,1.451,0,0,0,28.5,1.436,1.46,1.46,0,0,0,27.066,0H1.437A1.452,1.452,0,0,0,0,1.436,1.46,1.46,0,0,0,1.437,2.871Z" transform="translate(0 3.711)" fill="#282a3a"/>
        <path id="Path-49" data-name="Path" d="M.749.415A1.914,1.914,0,0,1,3.218.49a2.1,2.1,0,0,1-.323,3.568A2.131,2.131,0,0,1,.043,2.308,1.868,1.868,0,0,1,.749.415Z" transform="translate(41.806 1.428)" fill="#282a3a"/>
        <path id="Path-50" data-name="Path" d="M2.887,3.089a2.261,2.261,0,0,1,.436-.255l-.343.144a2.2,2.2,0,0,1,.538-.145l-.383.052a2.065,2.065,0,0,1,.461,0l-.383-.052a1.933,1.933,0,0,1,.507.138l-.343-.144a2.077,2.077,0,0,1,.383.226l-.291-.226a2.638,2.638,0,0,1,.44.436l-.224-.289a2.693,2.693,0,0,1,.348.6L3.89,3.227a2.488,2.488,0,0,1,.165.609L4,3.453a2.37,2.37,0,0,1,0,.574l.05-.383a1.991,1.991,0,0,1-.138.5L4.062,3.8a1.839,1.839,0,0,1-.228.383L4.06,3.9a2.153,2.153,0,0,1-.333.327L4.016,4a2.209,2.209,0,0,1-.442.255l.343-.144a2.188,2.188,0,0,1-.5.142L3.8,4.2a2.065,2.065,0,0,1-.486,0l.383.052a2.079,2.079,0,0,1-.5-.136l.345.145A2.3,2.3,0,0,1,3.088,4l.291.224a2.5,2.5,0,0,1-.442-.446l.226.291A2.735,2.735,0,0,1,2.839,3.5l.145.343a2.718,2.718,0,0,1-.17-.609l.052.383a2.172,2.172,0,0,1,0-.511l-.052.383a2.038,2.038,0,0,1,.138-.511l-.144.343a2.021,2.021,0,0,1,.235-.4l-.226.291a2.2,2.2,0,0,1,.36-.358A1.437,1.437,0,0,0,3.6,1.847,1.466,1.466,0,0,0,3.178.831,1.445,1.445,0,0,0,2.163.411L1.781.463a1.424,1.424,0,0,0-.634.367,3.166,3.166,0,0,0-.685.794,2.9,2.9,0,0,0-.394.97A3.884,3.884,0,0,0,.408,5.049,3.788,3.788,0,0,0,1.763,6.563a3.2,3.2,0,0,0,1.914.517,3.4,3.4,0,0,0,3.1-2.421,3.858,3.858,0,0,0-.875-3.48A3.365,3.365,0,0,0,1.434.6a1.577,1.577,0,0,0-.66.858A1.468,1.468,0,0,0,.919,2.569a1.453,1.453,0,0,0,.858.66,1.371,1.371,0,0,0,1.11-.14Z" transform="translate(40.391 0)" fill="#282a3a"/>
      </g>
      <path id="Path-51" data-name="Path" d="M.715.4A1.828,1.828,0,0,1,3.077.47a2.01,2.01,0,0,1-.308,3.411A2.038,2.038,0,0,1,.041,2.208,1.788,1.788,0,0,1,.715.4Z" transform="translate(95.375 108.939)" fill="#81e2d2"/>
      <path id="Path-52" data-name="Path" d="M2.862,3.08a2.169,2.169,0,0,1,.417-.245l-.343.145a2.071,2.071,0,0,1,.515-.14l-.383.052a2.01,2.01,0,0,1,.442,0L3.128,2.84a1.872,1.872,0,0,1,.486.134l-.343-.145a2.105,2.105,0,0,1,.371.216l-.291-.224a2.414,2.414,0,0,1,.421.417l-.224-.291a2.542,2.542,0,0,1,.333.574l-.145-.343a2.45,2.45,0,0,1,.159.574l-.052-.383a2.278,2.278,0,0,1,0,.547L3.9,3.535a1.987,1.987,0,0,1-.132.48l.144-.343a1.816,1.816,0,0,1-.216.368l.224-.291a1.885,1.885,0,0,1-.318.312l.291-.224a2.178,2.178,0,0,1-.425.243l.343-.144a2.188,2.188,0,0,1-.48.136l.383-.052a2.105,2.105,0,0,1-.465,0l.383.05a1.883,1.883,0,0,1-.48-.115l.343.145a2.186,2.186,0,0,1-.429-.251l.291.224a2.414,2.414,0,0,1-.423-.427l.226.291A2.592,2.592,0,0,1,2.845,3.4l.144.343a2.68,2.68,0,0,1-.163-.584l.052.383a2.082,2.082,0,0,1,0-.488l-.05.383a1.828,1.828,0,0,1,.132-.488l-.145.343a2.105,2.105,0,0,1,.224-.383l-.23.281a1.991,1.991,0,0,1,.343-.341,1.434,1.434,0,0,0,.421-1.016A1.46,1.46,0,0,0,3.151.819,1.445,1.445,0,0,0,2.136.4L1.754.45A1.436,1.436,0,0,0,1.12.819a3.063,3.063,0,0,0-.666.766,2.8,2.8,0,0,0-.383.944,3.66,3.66,0,0,0,0,1.436,3.987,3.987,0,0,0,.339.957,3.669,3.669,0,0,0,1.317,1.47,3.116,3.116,0,0,0,.873.392,2.957,2.957,0,0,0,.993.113A3.623,3.623,0,0,0,5.7,6.031a3.041,3.041,0,0,0,.921-1.5,3.761,3.761,0,0,0-.852-3.39A3.275,3.275,0,0,0,1.417.589a1.562,1.562,0,0,0-.664.879A1.47,1.47,0,0,0,.9,2.574a1.427,1.427,0,0,0,1.966.505Z" transform="translate(93.953 107.497)" fill="#81e2d2"/>
      <path id="Path-53" data-name="Path" d="M.747.415A1.914,1.914,0,0,1,3.217.49,2.1,2.1,0,0,1,2.9,4.058,2.13,2.13,0,0,1,.043,2.308,1.868,1.868,0,0,1,.747.415Z" transform="translate(106.495 108.932)" fill="#282a3a"/>
      <path id="Path-54" data-name="Path" d="M2.883,3.089a2.276,2.276,0,0,1,.438-.255l-.345.144a2.186,2.186,0,0,1,.54-.145l-.383.052a2.065,2.065,0,0,1,.461,0l-.383-.052a1.968,1.968,0,0,1,.509.138l-.343-.144a2.125,2.125,0,0,1,.383.226l-.291-.226a2.638,2.638,0,0,1,.44.436l-.222-.289a2.693,2.693,0,0,1,.348.6l-.144-.343a2.68,2.68,0,0,1,.165.609l-.052-.383a2.37,2.37,0,0,1,0,.574l.052-.383a2.073,2.073,0,0,1-.138.5L4.064,3.8a1.914,1.914,0,0,1-.226.383L4.062,3.9a2.073,2.073,0,0,1-.333.327L4.02,4a2.278,2.278,0,0,1-.444.255l.343-.144a2.188,2.188,0,0,1-.5.142L3.8,4.2a2.065,2.065,0,0,1-.486,0l.383.052a2.033,2.033,0,0,1-.5-.136l.343.145A2.232,2.232,0,0,1,3.09,4l.289.224a2.429,2.429,0,0,1-.44-.446l.224.291A2.643,2.643,0,0,1,2.841,3.5l.144.343a2.821,2.821,0,0,1-.17-.609l.052.383a2.172,2.172,0,0,1,0-.511l-.052.383a2.042,2.042,0,0,1,.14-.511l-.145.343a2.121,2.121,0,0,1,.235-.4l-.224.291a2.105,2.105,0,0,1,.358-.358A1.429,1.429,0,0,0,3.6,1.847,1.466,1.466,0,0,0,3.178.831,1.443,1.443,0,0,0,2.163.411L1.781.463a1.424,1.424,0,0,0-.634.367,3.166,3.166,0,0,0-.685.794,2.98,2.98,0,0,0-.394.97A3.872,3.872,0,0,0,.41,5.049,3.782,3.782,0,0,0,1.763,6.563a3.2,3.2,0,0,0,1.914.517,3.4,3.4,0,0,0,3.1-2.421A3.858,3.858,0,0,0,5.9,1.179,3.365,3.365,0,0,0,1.432.6a1.573,1.573,0,0,0-.658.858,1.436,1.436,0,0,0,1,1.767,1.368,1.368,0,0,0,1.108-.14Z" transform="translate(105.085 107.504)" fill="#282a3a"/>
      <path id="Path-55" data-name="Path" d="M.714.4A1.828,1.828,0,0,1,3.076.47a2.009,2.009,0,0,1-.308,3.411A2.039,2.039,0,0,1,.04,2.208,1.793,1.793,0,0,1,.714.4Z" transform="translate(107.166 108.939)" fill="#eac36e"/>
      <path id="Path-56" data-name="Path" d="M2.862,3.08a2.169,2.169,0,0,1,.417-.245l-.343.145a2.094,2.094,0,0,1,.515-.14l-.383.052a1.991,1.991,0,0,1,.44,0L3.127,2.84a1.872,1.872,0,0,1,.486.134L3.27,2.829a2.169,2.169,0,0,1,.369.216l-.291-.224a2.349,2.349,0,0,1,.421.417l-.224-.291a2.542,2.542,0,0,1,.333.574l-.144-.343a2.54,2.54,0,0,1,.157.574l-.052-.383a2.184,2.184,0,0,1,0,.547l.052-.383a1.987,1.987,0,0,1-.132.48l.145-.343a1.914,1.914,0,0,1-.218.368l.224-.291a1.885,1.885,0,0,1-.318.312l.291-.224a2.123,2.123,0,0,1-.425.243L3.8,3.937a2.234,2.234,0,0,1-.482.136L3.7,4.021a2.105,2.105,0,0,1-.465,0l.383.05a1.883,1.883,0,0,1-.479-.128l.343.145a2.186,2.186,0,0,1-.429-.251l.291.224a2.339,2.339,0,0,1-.421-.427l.224.291a2.68,2.68,0,0,1-.308-.538l.145.343a2.68,2.68,0,0,1-.165-.584l.052.383a2.082,2.082,0,0,1,0-.488l-.052.383a1.9,1.9,0,0,1,.132-.488l-.145.343A2,2,0,0,1,3.037,2.9l-.228.295a2,2,0,0,1,.345-.341A1.436,1.436,0,0,0,2.137.4L1.754.45a1.445,1.445,0,0,0-.634.369,3.063,3.063,0,0,0-.666.766,2.883,2.883,0,0,0-.383.944,3.625,3.625,0,0,0,0,1.436,3.981,3.981,0,0,0,.337.957,3.669,3.669,0,0,0,1.317,1.47,3.141,3.141,0,0,0,.873.392,2.957,2.957,0,0,0,.993.113A3.623,3.623,0,0,0,5.7,6.031a3.041,3.041,0,0,0,.921-1.5,3.756,3.756,0,0,0-.852-3.39A3.275,3.275,0,0,0,1.415.589a1.562,1.562,0,0,0-.662.879A1.47,1.47,0,0,0,.9,2.574a1.424,1.424,0,0,0,1.964.505Z" transform="translate(105.743 107.497)" fill="#eac36e"/>
      <path id="Path-57" data-name="Path" d="M.747.415A1.914,1.914,0,0,1,3.216.49a2.1,2.1,0,0,1-.322,3.568A2.13,2.13,0,0,1,.043,2.308,1.87,1.87,0,0,1,.747.415Z" transform="translate(118.288 108.932)" fill="#282a3a"/>
      <path id="Path-58" data-name="Path" d="M2.9,3.085a2.205,2.205,0,0,1,.436-.255l-.343.144a2.2,2.2,0,0,1,.538-.145l-.383.052a2.065,2.065,0,0,1,.461,0l-.383-.052a1.968,1.968,0,0,1,.509.138l-.343-.144a2.061,2.061,0,0,1,.383.226l-.291-.226a2.567,2.567,0,0,1,.44.436L3.7,2.97a2.779,2.779,0,0,1,.35.6L3.9,3.223a2.68,2.68,0,0,1,.165.609l-.052-.383a2.276,2.276,0,0,1,0,.574l.052-.383a2.073,2.073,0,0,1-.138.5L4.074,3.8a1.914,1.914,0,0,1-.226.383l.224-.289a2,2,0,0,1-.333.327l.291-.226a2.171,2.171,0,0,1-.444.255l.343-.144a2.188,2.188,0,0,1-.5.142L3.808,4.2a2.065,2.065,0,0,1-.486,0l.383.052a2.056,2.056,0,0,1-.5-.136l.343.145A2.232,2.232,0,0,1,3.1,3.995l.291.224a2.439,2.439,0,0,1-.442-.446l.224.291A2.728,2.728,0,0,1,2.851,3.5L3,3.843a2.827,2.827,0,0,1-.172-.609l.052.383a2.28,2.28,0,0,1,0-.511l-.05.383a1.962,1.962,0,0,1,.138-.511l-.145.343a2.121,2.121,0,0,1,.235-.4l-.234.295a2.105,2.105,0,0,1,.358-.358A1.429,1.429,0,0,0,3.6,1.847,1.466,1.466,0,0,0,3.179.831,1.443,1.443,0,0,0,2.164.411L1.781.463a1.414,1.414,0,0,0-.634.367,3.174,3.174,0,0,0-.687.794,2.98,2.98,0,0,0-.394.97A3.9,3.9,0,0,0,.409,5.049,3.773,3.773,0,0,0,1.764,6.563a3.2,3.2,0,0,0,1.914.517,3.4,3.4,0,0,0,3.1-2.421A3.858,3.858,0,0,0,5.9,1.179,3.365,3.365,0,0,0,1.433.6a1.573,1.573,0,0,0-.658.858,1.436,1.436,0,0,0,1,1.767A1.407,1.407,0,0,0,2.9,3.085Z" transform="translate(116.863 107.508)" fill="#282a3a"/>
      <path id="Path-59" data-name="Path" d="M.715.4A1.826,1.826,0,0,1,3.075.47a2.009,2.009,0,0,1-.308,3.411A2.037,2.037,0,0,1,.041,2.208,1.788,1.788,0,0,1,.715.4Z" transform="translate(118.958 108.939)" fill="#ed7a7a"/>
      <path id="Path-60" data-name="Path" d="M2.858,3.08a2.228,2.228,0,0,1,.417-.245l-.343.145a2.094,2.094,0,0,1,.515-.14l-.383.052a1.991,1.991,0,0,1,.44,0L3.122,2.84a1.872,1.872,0,0,1,.486.134l-.343-.145a2.105,2.105,0,0,1,.369.216l-.291-.224a2.349,2.349,0,0,1,.421.417l-.224-.291a2.624,2.624,0,0,1,.335.574l-.145-.343a2.446,2.446,0,0,1,.157.574l-.052-.383a2.184,2.184,0,0,1,0,.547l.052-.383a1.914,1.914,0,0,1-.132.48L3.9,3.673a1.824,1.824,0,0,1-.218.368l.226-.291a1.9,1.9,0,0,1-.32.312l.291-.224a2.163,2.163,0,0,1-.423.243L3.8,3.937a2.234,2.234,0,0,1-.482.136L3.7,4.021a2.083,2.083,0,0,1-.463,0l.383.05a1.914,1.914,0,0,1-.479-.128l.345.145a2.186,2.186,0,0,1-.429-.251l.289.224a2.339,2.339,0,0,1-.421-.427l.224.291a2.68,2.68,0,0,1-.308-.538l.145.343a2.567,2.567,0,0,1-.163-.584l.05.383a2.083,2.083,0,0,1,0-.488l-.052.383a1.983,1.983,0,0,1,.132-.488l-.144.343A1.9,1.9,0,0,1,3.034,2.9l-.228.295a1.991,1.991,0,0,1,.343-.341A1.436,1.436,0,0,0,2.134.4L1.752.45a1.445,1.445,0,0,0-.634.369,3.015,3.015,0,0,0-.664.766,2.846,2.846,0,0,0-.383.944,3.66,3.66,0,0,0,0,1.436,4.065,4.065,0,0,0,.337.957,3.66,3.66,0,0,0,1.319,1.47,3.129,3.129,0,0,0,.871.392,2.963,2.963,0,0,0,1,.113A3.623,3.623,0,0,0,5.7,6.031a3.045,3.045,0,0,0,.923-1.5,3.757,3.757,0,0,0-.854-3.39A3.275,3.275,0,0,0,1.417.589a1.57,1.57,0,0,0-.668.879A1.47,1.47,0,0,0,.894,2.574a1.424,1.424,0,0,0,1.964.505Z" transform="translate(117.538 107.497)" fill="#ed7a7a"/>
      <g id="Group-9" data-name="Group" transform="translate(144.59 56.873)">
        <path id="Path-61" data-name="Path" d="M51.783,65.95a4.153,4.153,0,0,0-6.726-.291l.991.574a5.223,5.223,0,0,0,.463-2.735c.015-1.062.094-2.119.1-3.181a31.965,31.965,0,0,0-.986-7.922,43.131,43.131,0,0,0-6.958-14.411,72.161,72.161,0,0,0-6.092-7.614l-.559.957c.685.134,1.064-.957,1.326-1.42.526-.942,1.041-1.889,1.554-2.84.421-.781.848-1.562,1.242-2.358a15.047,15.047,0,0,0,1.267-4.439A12.346,12.346,0,0,0,34.241,9.68C33.247,8.708,31.821,7.909,31.4,6.5a1.818,1.818,0,0,1-.046-.858c.048-.383.115-.748.147-1.127a4.569,4.569,0,0,0-.53-2.68A3.662,3.662,0,0,0,26.456.253c-1.853.754-2.779,2.735-3.12,4.594l.706-.4a19.677,19.677,0,0,0-5.966-.191,25.157,25.157,0,0,0-5.869,1.281l.708.706a6.5,6.5,0,0,0-.283-4.079A3.227,3.227,0,0,0,9.4.221,4.873,4.873,0,0,0,5.543,2.659,5,5,0,0,0,5,5.379a12.052,12.052,0,0,1,.059,2.7C4.8,9.5,3.39,10.294,2.532,11.336a10.983,10.983,0,0,0-2.3,4.7c-.63,3.074.094,6.3,1.108,9.214a55.425,55.425,0,0,0,3.93,8.422,1.72,1.72,0,0,1,.316,1.087,4.021,4.021,0,0,1-.637,1.171,21.955,21.955,0,0,0-1.187,2.2,17.384,17.384,0,0,0-1.378,4.389,43.187,43.187,0,0,0-.061,10.451q.224,3.062.609,6.115.191,1.548.429,3.093c.151,1,.383,2,.494,3a1.437,1.437,0,0,1-.214.957,5.007,5.007,0,0,1-.712.655A2.5,2.5,0,0,0,2.2,68.526a2.559,2.559,0,0,0,2.105,2.54,10.909,10.909,0,0,0,1.437.057l7.5.132,11.639.2,12.214.214,9,.159,2.182.038a3.871,3.871,0,0,0,3.445-2.161,3.981,3.981,0,0,0,.067-3.755c-.354-.649-1.34-.069-.991.574.856,1.577-.36,4.15-2.262,4.192-.475.011-.957-.017-1.43-.025l-7.758-.136-11.437-.191L16.122,70.16l-8.787-.155L5.1,69.967H4.718A1.4,1.4,0,0,1,3.35,68.679a1.374,1.374,0,0,1,.526-1.189A2.647,2.647,0,0,0,5.011,65.46,6.192,6.192,0,0,0,4.843,64.2c-.086-.5-.17-1-.249-1.5q-.239-1.493-.436-2.99A110.147,110.147,0,0,1,3.216,48a20.909,20.909,0,0,1,1.3-8.705,19.491,19.491,0,0,1,1.062-2.127A7.873,7.873,0,0,0,6.728,35a3.675,3.675,0,0,0-.743-2.383q-.507-.924-.991-1.862A37.774,37.774,0,0,1,1.627,22.14a15.571,15.571,0,0,1-.444-4.421,9.781,9.781,0,0,1,2.831-6.265,14.714,14.714,0,0,0,1.48-1.531c1.06-1.4.7-3.072.655-4.7a3.609,3.609,0,0,1,.674-2.389A3.79,3.79,0,0,1,8.544,1.582a2.31,2.31,0,0,1,3,.957,5.1,5.1,0,0,1,.272,3.413c-.09.4.27.861.706.706a23.968,23.968,0,0,1,5.562-1.238,18.783,18.783,0,0,1,5.662.159.581.581,0,0,0,.706-.4c.262-1.443.869-3.084,2.28-3.771a2.507,2.507,0,0,1,3.254,1.036A3.727,3.727,0,0,1,30.33,4.8a5.192,5.192,0,0,0-.086,1.841,6.636,6.636,0,0,0,2.553,3.3,10.948,10.948,0,0,1,3.61,9.042,15.018,15.018,0,0,1-.459,2.795c-.119.461-.256.921-.41,1.372-.069.207-.14.412-.216.614,0,.011-.086.241-.094.249s.082-.17.031-.071c-.329.6-.628,1.229-.957,1.838q-.812,1.531-1.65,3.04c-.212.383-.425.766-.643,1.148-.069.121-.138.243-.211.362-.023.036-.05.073-.069.111-.063.124.113-.113.155-.136l.442-.059a.574.574,0,0,0-.557.957,66.471,66.471,0,0,1,5.3,6.527,54.666,54.666,0,0,1,4.211,6.6,34.725,34.725,0,0,1,4.163,14.788c.046,1.271-.063,2.528-.075,3.8,0,.536,0,1.072-.042,1.606a2.586,2.586,0,0,1-.27,1.148.574.574,0,0,0,.991.574,3,3,0,0,1,4.743.293.576.576,0,0,0,.991-.584Z" transform="translate(0 0)" fill="#282a3a"/>
        <path id="Path-62" data-name="Path" d="M1.492,2.9c.115-.113.234-.222.358-.325.029-.025.061-.046.09-.073-.174.161-.1.075-.046.036s.136-.1.207-.145a5.29,5.29,0,0,1,.854-.456l-.207.086a5.3,5.3,0,0,1,1.2-.337.861.861,0,0,0,.515-.4A.879.879,0,0,0,4.544.625a.871.871,0,0,0-.4-.515A1,1,0,0,0,3.486.022,5.914,5.914,0,0,0,.274,1.679.861.861,0,1,0,1.492,2.9Z" transform="translate(4.266 13.245)" fill="#282a3a"/>
        <path id="Path-63" data-name="Path" d="M.632,2.514A4.423,4.423,0,0,0,4.573,1.463a.867.867,0,0,0,0-1.217.877.877,0,0,0-1.217,0C3.294.3,3.231.349,3.164.4c.174-.163.073-.056.019-.017l-.1.069A3.708,3.708,0,0,1,2.639.7L2.609.715c.138-.057,0,0-.031.01C2.5.753,2.425.778,2.347.8a3.7,3.7,0,0,1-.521.111l.23-.031a3.675,3.675,0,0,1-.917,0l.228.031C1.271.9,1.175.881,1.081.86a.875.875,0,0,0-1.058.6.874.874,0,0,0,.6,1.06Z" transform="translate(3.773 19.812)" fill="#282a3a"/>
        <path id="Path-64" data-name="Path" d="M8.777.033a8.3,8.3,0,0,0-5.216,5,11.538,11.538,0,0,0,.029,8.1,20.787,20.787,0,0,0,2.268,4.55l.649-.842A5.323,5.323,0,0,0,.664,19.2a4.542,4.542,0,0,0-.647,1.742.593.593,0,0,0,.4.706.578.578,0,0,0,.706-.4,3.924,3.924,0,0,1,1.836-2.768,4.211,4.211,0,0,1,1.608-.637,3.69,3.69,0,0,1,1.646.1A.579.579,0,0,0,6.86,17.1,16.01,16.01,0,0,1,4.008,9.427,8.779,8.779,0,0,1,6.1,3.065,6.393,6.393,0,0,1,9.084,1.131.574.574,0,0,0,8.777.025Z" transform="translate(8.694 48.805)" fill="#282a3a"/>
      </g>
      <path id="Path-65" data-name="Path" d="M1.437,2.871A1.452,1.452,0,0,0,2.872,1.436,1.46,1.46,0,0,0,1.437,0,1.452,1.452,0,0,0,0,1.436,1.46,1.46,0,0,0,1.437,2.871Z" transform="translate(153.901 72.881)" fill="#ed7a7a"/>
      <path id="Path-66" data-name="Path" d="M1.089,5.834A3.21,3.21,0,0,1,.8,3.3,5.132,5.132,0,0,1,2.167,1.1,2.924,2.924,0,0,1,4.846.067,2.008,2.008,0,0,1,6.232,1.923c.013.517-.155,1.03-.1,1.543a7.35,7.35,0,0,0,.239.94A3.742,3.742,0,0,1,4.251,8.573,3.084,3.084,0,0,0,3.407,9c-.362.32-.49.859-.884,1.135A1.262,1.262,0,0,1,1.047,9.97,3.506,3.506,0,0,1,.18,8.649a1.34,1.34,0,0,1-.174-.794c.067-.345.383-.574.628-.819s.48-.6.335-.924" transform="translate(151.086 96.927)" fill="#c4c4c4"/>
      <path id="Path-67" data-name="Path" d="M2.153,6.1c-.89-1.483.057-3.237,1.215-4.255A2.072,2.072,0,0,1,5.4,1.218a1.523,1.523,0,0,1,.821,1.6A5.412,5.412,0,0,0,6.172,4.3a6.177,6.177,0,0,0,.172.639c.029.1.056.191.077.3a1.148,1.148,0,0,1,.034.241A3.062,3.062,0,0,1,5.96,7.4a3.179,3.179,0,0,1-1.51,1.256A2.488,2.488,0,0,0,3.3,9.462c-.191.268-.337.679-.614.794a.553.553,0,0,1-.356,0,.909.909,0,0,1-.417-.241,3.35,3.35,0,0,1-.681-1.148c-.067-.161-.124-.31-.057-.431a2.105,2.105,0,0,1,.383-.4A1.473,1.473,0,0,0,2.091,6.5a.59.59,0,0,0-.706-.4.574.574,0,0,0-.4.706c.029.073.05.036,0,.117a.932.932,0,0,1-.14.191c-.161.176-.354.32-.505.505a1.552,1.552,0,0,0-.159,1.7c.383.919.957,1.9,2.038,2.069A1.6,1.6,0,0,0,3.69,10.9c.281-.314.417-.781.766-1,.383-.241.829-.343,1.206-.6a4.343,4.343,0,0,0,1.02-.924,4.4,4.4,0,0,0,.934-2.488A4.274,4.274,0,0,0,7.4,4.48a2.412,2.412,0,0,1-.132-.7,8.463,8.463,0,0,1,.086-.856A2.68,2.68,0,0,0,6.147.33,2.785,2.785,0,0,0,3.179.567C1.264,1.825-.131,4.529,1.165,6.692a.573.573,0,0,0,.991-.574Z" transform="translate(150.519 96.373)" fill="#c4c4c4"/>
      <g id="Group-10" data-name="Group" transform="translate(143.419 61.252)">
        <path id="Path-68" data-name="Path" d="M1.067,2.815A7.827,7.827,0,0,0,1.739.721.632.632,0,0,0,1.681.278.59.59,0,0,0,1.337.014a.581.581,0,0,0-.706.4A7.235,7.235,0,0,1,.4,1.4c-.052.161-.107.32-.168.477-.011.034-.027.067-.04.1s-.017.044.017-.038L.181,2c-.034.077-.069.153-.105.23a.614.614,0,0,0-.057.442.574.574,0,0,0,1.049.138Z" transform="translate(12.381 0.945)" fill="#282a3a"/>
        <path id="Path-69" data-name="Path" d="M.416,1.126q1.784.31,3.53.791A.575.575,0,1,0,4.25.808C3.088.489,1.909.225.721.018a.588.588,0,0,0-.706.4.585.585,0,0,0,.4.708Z" transform="translate(24.154)" fill="#282a3a"/>
        <path id="Path-70" data-name="Path" d="M3.487,8.457a17.911,17.911,0,0,1,2.76-7.082A6.364,6.364,0,0,0,6.592.8L6.171.156c-.249-.327-.842-.1-.94.3A1.156,1.156,0,0,0,5.7,1.534a6.416,6.416,0,0,0-4.02.766A3.351,3.351,0,0,0,.091,5.842C.474,7.264,1.965,8.1,3.4,8.445Z" transform="translate(0.568 30.175)" fill="#282a3a"/>
        <path id="Path-71" data-name="Path" d="M4.61,9.177a16.855,16.855,0,0,1,1.02-3.736A18.1,18.1,0,0,1,6.5,3.617c.362-.668.808-1.29,1.148-1.964a.574.574,0,0,0,0-.574L7.281.516a1.036,1.036,0,0,0-1.1-.5,1.2,1.2,0,0,0-.957.924,1.728,1.728,0,0,0,.626,1.564l.406-.98c-1.95-.167-4.132.214-5.4,1.847A3.784,3.784,0,0,0,0,5.929,3.478,3.478,0,0,0,1.2,8.27a6.092,6.092,0,0,0,2.7,1.313.588.588,0,0,0,.706-.4.574.574,0,0,0-.4-.706,5.292,5.292,0,0,1-1.987-.858A2.488,2.488,0,0,1,1.167,6.052a2.194,2.194,0,0,1,.059-.926,2.946,2.946,0,0,1,.448-.94A3.445,3.445,0,0,1,3.435,2.93a6.948,6.948,0,0,1,2.819-.253A.58.58,0,0,0,6.66,1.7a.84.84,0,0,1-.318-.515c0-.1.021-.019-.023.021q.075-.067,0-.017a.406.406,0,0,1,.069-.04c.036-.019.033-.017-.015,0h.05a.165.165,0,0,1-.1-.023c-.059-.034-.124-.157-.048-.04.05.08.1.159.153.237l.224.341V1.085c-.352.687-.808,1.321-1.175,2a20.89,20.89,0,0,0-.936,1.987A16.832,16.832,0,0,0,3.487,8.883a.591.591,0,0,0,.4.706.6.6,0,0,0,.722-.412Z" transform="translate(0 29.608)" fill="#282a3a"/>
      </g>
      <g id="Group-11" data-name="Group" transform="translate(60.297 12.655)">
        <path id="Path-72" data-name="Path" d="M.074.863a31.825,31.825,0,0,0,2.358,4,.591.591,0,0,0,.787.207.574.574,0,0,0,.2-.787,31.825,31.825,0,0,1-2.358-4,.574.574,0,0,0-.785-.2A.586.586,0,0,0,.074.863Z" transform="translate(85.959 38.555)" fill="#c4c4c4"/>
        <path id="Path-73" data-name="Path" d="M0,.572A14.3,14.3,0,0,0,.491,2.98.575.575,0,0,0,1.6,2.674q-.163-.54-.279-1.095c-.038-.191-.073-.369-.1-.555Q1.194.9,1.176.766A.7.7,0,0,0,1.163.681l.01.065C1.163.689,1.157.632,1.151.574A.63.63,0,0,0,.983.168.59.59,0,0,0,.577,0C.3.013-.035.255,0,.574Z" transform="translate(94.429 37.439)" fill="#c4c4c4"/>
        <path id="Path-74" data-name="Path" d="M.555,1.148A.575.575,0,0,0,.555,0,.575.575,0,0,0,.555,1.148Z" transform="translate(93.944 34.818)" fill="#c4c4c4"/>
        <path id="Path-75" data-name="Path" d="M.279.553A29.477,29.477,0,0,1,.016,4.764a.6.6,0,0,0,.4.706.578.578,0,0,0,.706-.4,31.268,31.268,0,0,0,.3-4.515.575.575,0,0,0-1.148,0Z" transform="translate(102.011 33.967)" fill="#c4c4c4"/>
        <path id="Path-76" data-name="Path" d="M.555,1.148A.575.575,0,0,0,.555,0,.575.575,0,0,0,.555,1.148Z" transform="translate(108.286 38.187)" fill="#c4c4c4"/>
        <path id="Path-77" data-name="Path" d="M.555,1.148A.575.575,0,0,0,.555,0,.575.575,0,0,0,.555,1.148Z" transform="translate(108.286 38.187)" fill="#c4c4c4"/>
        <path id="Path-78" data-name="Path" d="M.168.98l.926.735a.456.456,0,0,0,.191.119.436.436,0,0,0,.22.048.574.574,0,0,0,.574-.574A.561.561,0,0,0,1.914.9L.988.169A.448.448,0,0,0,.8.05.44.44,0,0,0,.574,0,.574.574,0,0,0,0,.575.559.559,0,0,0,.168.98Z" transform="translate(0 17.873)" fill="#c4c4c4"/>
        <path id="Path-79" data-name="Path" d="M.074.862c.054.111.105.222.153.337L.17,1.061A6.422,6.422,0,0,1,.514,2.139a.574.574,0,0,0,.706.4.588.588,0,0,0,.4-.706A7.071,7.071,0,0,0,1.066.284.574.574,0,0,0,.723.02.59.59,0,0,0,.279.077.574.574,0,0,0,.017.42.634.634,0,0,0,.074.862Z" transform="translate(3.178 14.865)" fill="#c4c4c4"/>
        <path id="Path-80" data-name="Path" d="M.187.423.02,1a.438.438,0,0,0-.01.228.456.456,0,0,0,.067.214A.431.431,0,0,0,.227,1.6a.457.457,0,0,0,.191.1l.153.019a.551.551,0,0,0,.289-.078A.6.6,0,0,0,1.125,1.3L1.291.727A.446.446,0,0,0,1.3.5.423.423,0,0,0,1.232.285.412.412,0,0,0,1.084.124a.421.421,0,0,0-.191-.1L.74,0A.574.574,0,0,0,.451.078.611.611,0,0,0,.187.423Z" transform="translate(7.663 14.365)" fill="#c4c4c4"/>
        <path id="Path-81" data-name="Path" d="M.072.868l.419.748a.588.588,0,0,0,.346.258.427.427,0,0,0,.23.011.436.436,0,0,0,.214-.069.574.574,0,0,0,.262-.343.593.593,0,0,0-.057-.442L1.069.286A.59.59,0,0,0,.724.022.419.419,0,0,0,.5.011.436.436,0,0,0,.282.079.584.584,0,0,0,.018.422.613.613,0,0,0,.075.864Z" transform="translate(30.605 45.626)" fill="#c4c4c4"/>
        <path id="Path-82" data-name="Path" d="M.168.98,1,1.81a.593.593,0,0,0,.408.168A.574.574,0,0,0,1.981,1.4.611.611,0,0,0,1.813,1L.98.168A.574.574,0,0,0,0,.574.607.607,0,0,0,.168.98Z" transform="translate(33.188 43.459)" fill="#c4c4c4"/>
        <path id="Path-83" data-name="Path" d="M.27,1.066l.919.406a.436.436,0,0,0,.214.069.427.427,0,0,0,.23-.011.59.59,0,0,0,.36-.262A.574.574,0,0,0,2.05.823.555.555,0,0,0,1.786.48L.867.075A.628.628,0,0,0,.425.017.59.59,0,0,0,.079.272.574.574,0,0,0,.021.716a.559.559,0,0,0,.262.343Z" transform="translate(35.192 40.722)" fill="#c4c4c4"/>
        <path id="Path-84" data-name="Path" d="M.555,1.148A.575.575,0,0,0,.555,0,.575.575,0,0,0,.555,1.148Z" transform="translate(8.265 23.843)" fill="#c4c4c4"/>
        <path id="Path-85" data-name="Path" d="M.555,1.148A.575.575,0,0,0,.555,0,.575.575,0,0,0,.555,1.148Z" transform="translate(26.349 37.439)" fill="#c4c4c4"/>
        <path id="Path-86" data-name="Path" d="M32.347,5.5A7.92,7.92,0,0,0,29.409.936,5.691,5.691,0,0,0,26.945.05a10.844,10.844,0,0,0-3.229.226c-2.789.479-5.564,1.028-8.336,1.6-1.317.274-2.632.574-3.953.835-.873.174-1.753.3-2.63.45A16.13,16.13,0,0,0,3.284,4.844a6.278,6.278,0,0,0-2.06,1.887A7.563,7.563,0,0,0,.141,10.278,33.839,33.839,0,0,0,1.23,22.4a12.6,12.6,0,0,0,1.365,3.5A5.382,5.382,0,0,0,5.351,28a12.205,12.205,0,0,0,3.361.574c1.38.075,2.764.09,4.144.065.312,0,.63-.033.94-.01a.477.477,0,0,1,.425.207,3.717,3.717,0,0,1,.308.785l.383,1.074.7,1.966a.583.583,0,0,0,1.051.138A22.125,22.125,0,0,0,18.8,27.786l-.4.4,7.2-1.74a24.6,24.6,0,0,0,5.61-1.761,6.73,6.73,0,0,0,2.04-1.564,5.664,5.664,0,0,0,1.263-2.808,16.461,16.461,0,0,0,.117-3.474,31.685,31.685,0,0,0-.4-3.556,74.166,74.166,0,0,0-1.88-7.769.574.574,0,0,0-1.106.3c1.217,4.341,2.523,8.847,2.243,13.4a5.488,5.488,0,0,1-.8,2.76,5.091,5.091,0,0,1-1.7,1.518,18.727,18.727,0,0,1-5.086,1.69L18.089,27.1a.574.574,0,0,0-.4.4,20.775,20.775,0,0,1-2.008,4.73l1.049.138-.7-1.968c-.23-.643-.429-1.311-.708-1.935a1.66,1.66,0,0,0-1.516-.972c-.678-.038-1.319.019-1.973.019-1.281,0-2.569-.013-3.845-.126a7.763,7.763,0,0,1-2.932-.746,4.411,4.411,0,0,1-1.973-2.3A22.408,22.408,0,0,1,1.99,20.685a32.551,32.551,0,0,1-.833-7.848A18.593,18.593,0,0,1,1.481,9.12a5.334,5.334,0,0,1,.6-1.6,4.035,4.035,0,0,1,.766-.942,4.936,4.936,0,0,1,.957-.714c.172-.1.346-.191.526-.287.226-.111.408-.191.588-.264A16.237,16.237,0,0,1,7.6,4.544c.9-.191,1.811-.327,2.718-.477,1-.165,1.979-.371,2.967-.574,2.706-.574,5.417-1.135,8.137-1.642,1.248-.232,2.588-.526,3.8-.658a5.742,5.742,0,0,1,2.528.2c.094.031.191.063.279.1s.034.013.011,0l.145.065a4.605,4.605,0,0,1,.53.293c.082.05.161.105.239.161l.084.063c-.1-.073.042.033.05.04a5.068,5.068,0,0,1,.446.413,4.427,4.427,0,0,1,.67.861,7.947,7.947,0,0,1,.6,1.148c-.038-.088.04.1.036.094.025.057.046.117.069.176.038.1.075.191.109.3.078.228.149.459.216.691a.573.573,0,0,0,1.106-.3Z" transform="translate(81.132 0)" fill="#c4c4c4"/>
        <path id="Path-87" data-name="Path" d="M.5.353A1.062,1.062,0,0,0,.068.915,1.034,1.034,0,0,0,0,1.359a1.246,1.246,0,0,0,.165.559,1.045,1.045,0,0,0,.412.394,1.072,1.072,0,0,0,.574.119,1.212,1.212,0,0,0,.574-.191,1.137,1.137,0,0,0,.4-.431,1.083,1.083,0,0,0,.1-.262,1.192,1.192,0,0,0,0-.473,1.579,1.579,0,0,0-.785-1A.574.574,0,0,0,.654.286.586.586,0,0,0,.86,1.07a1.443,1.443,0,0,1,.153.105L.9,1.086a1.288,1.288,0,0,1,.212.209l-.09-.115a.9.9,0,0,1,.111.191l-.057-.136a.7.7,0,0,1,.042.153L1.1,1.235a.574.574,0,0,1,0,.151l.021-.151a.5.5,0,0,1-.031.113l.057-.138a.6.6,0,0,1-.073.126l.09-.117a.712.712,0,0,1-.115.113l.117-.09a.8.8,0,0,1-.142.082l.136-.057A.714.714,0,0,1,1,1.31l.153-.019a.616.616,0,0,1-.145,0l.151.021a.766.766,0,0,1-.126-.034l.138.057a.473.473,0,0,1-.1-.059l.117.09a.5.5,0,0,1-.09-.09l.09.117a.544.544,0,0,1-.069-.121l.057.136a.674.674,0,0,1-.044-.165l.021.153a.635.635,0,0,1,0-.17l-.021.151a.662.662,0,0,1,.04-.149l-.057.138a.54.54,0,0,1,.071-.121l-.09.115a.507.507,0,0,1,.078-.078l-.117.088a.109.109,0,0,1,.025-.015.622.622,0,0,0,.262-.345A.574.574,0,0,0,.506.36Z" transform="translate(90.519 14.686)" fill="#c4c4c4"/>
        <path id="Path-88" data-name="Path" d="M.5.339A1.068,1.068,0,0,0,.285.53,1.229,1.229,0,0,0,.067.913,1,1,0,0,0,0,1.357a1.221,1.221,0,0,0,.163.559,1.051,1.051,0,0,0,.988.513,1.219,1.219,0,0,0,.574-.191,1.137,1.137,0,0,0,.4-.431,1.083,1.083,0,0,0,.1-.262,1.191,1.191,0,0,0,0-.473,1.567,1.567,0,0,0-.785-1A.593.593,0,0,0,1,.019.574.574,0,0,0,.863,1.068c.052.033.1.067.153.105L.9,1.084a1.382,1.382,0,0,1,.214.209l-.09-.115a.957.957,0,0,1,.111.191l-.059-.138a.7.7,0,0,1,.044.153L1.1,1.231a.586.586,0,0,1,0,.153l.021-.153a.766.766,0,0,1-.031.113l.057-.138a.637.637,0,0,1-.073.126l.09-.117a.712.712,0,0,1-.115.113l.115-.09a.574.574,0,0,1-.142.082l.138-.057A.613.613,0,0,1,1,1.306l.153-.019a.616.616,0,0,1-.145,0l.153.021a.475.475,0,0,1-.126-.034l.138.057a.454.454,0,0,1-.1-.059l.117.09A.637.637,0,0,1,1.1,1.273l.09.115a.641.641,0,0,1-.071-.121l.057.138a.718.718,0,0,1-.042-.165l.019.151a.725.725,0,0,1,0-.17l-.021.153a.706.706,0,0,1,.04-.151l-.057.138a.469.469,0,0,1,.069-.121l-.09.115a.519.519,0,0,1,.08-.078l-.117.09.023-.017a.626.626,0,0,0,.264-.345A.574.574,0,0,0,.945.3.559.559,0,0,0,.5.358Z" transform="translate(96.687 13.857)" fill="#c4c4c4"/>
        <path id="Path-89" data-name="Path" d="M.5.34A1.068,1.068,0,0,0,.286.532,1.191,1.191,0,0,0,.068.915,1.041,1.041,0,0,0,0,1.36a1.246,1.246,0,0,0,.165.557,1.047,1.047,0,0,0,.988.513,1.231,1.231,0,0,0,.574-.191,1.148,1.148,0,0,0,.4-.433,1.175,1.175,0,0,0,.1-.262,1.229,1.229,0,0,0,0-.473A1.559,1.559,0,0,0,1.444.078.593.593,0,0,0,1,.019.574.574,0,0,0,.659.283a.588.588,0,0,0,.2.787,1.679,1.679,0,0,1,.155.1L.9,1.083a1.3,1.3,0,0,1,.212.211l-.09-.117a.867.867,0,0,1,.111.191L1.078,1.23a.7.7,0,0,1,.042.153L1.1,1.23a.586.586,0,0,1,0,.153l.021-.153a.471.471,0,0,1-.031.113l.059-.138a.563.563,0,0,1-.075.126l.09-.117a.653.653,0,0,1-.115.115l.117-.09a.693.693,0,0,1-.142.08l.138-.057a.766.766,0,0,1-.157.044l.153-.021a.616.616,0,0,1-.145,0l.153.021a.509.509,0,0,1-.128-.034l.138.057a.517.517,0,0,1-.1-.057L1.2,1.36a.49.49,0,0,1-.09-.088l.09.115a.618.618,0,0,1-.069-.121l.057.138A.724.724,0,0,1,1.14,1.24l.021.151a.635.635,0,0,1,0-.17l-.021.153a.706.706,0,0,1,.04-.151l-.057.138a.586.586,0,0,1,.071-.121l-.09.117a.446.446,0,0,1,.078-.08l-.115.09.023-.017a.628.628,0,0,0,.264-.343A.6.6,0,0,0,1.295.562.574.574,0,0,0,.952.3.557.557,0,0,0,.51.358Z" transform="translate(102.855 13.023)" fill="#c4c4c4"/>
      </g>
    </g>
  </g>
</svg>
