<svg id="learn-illustration" xmlns="http://www.w3.org/2000/svg" width="250" height="250" viewBox="0 0 250 250">
  <g id="Group" transform="translate(34.073 66.895)">
    <path id="Path" d="M6.95,9.745S9.873,38.77,11.379,52.181c.2,1.811.553,3.838,2.044,4.881a6.569,6.569,0,0,0,2.425.871c2.58.555,5.551,1.03,7.628-.6A7.321,7.321,0,0,0,25.7,53.671C27.635,47.637,29.3,9.781,29.385,3.447c.121-8.5-.295,14.468-.444,5.97a17.457,17.457,0,0,1,.444-5.97c.649-1.9,2.406-3.606,4.4-3.436a199.622,199.622,0,0,1,.245,32.237c-.306,4.165-.743,8.368-.151,12.5l21.868-9.844C62.944,31.672,70.21,28.4,76.482,23.6q-.668,4.688-1.723,9.31c-.643,2.819-1.437,5.708-3.241,7.97-1.891,2.372-4.686,3.809-7.392,5.168L47.092,54.666c-7.7,3.891-15.45,7.8-23.683,10.4-4.374,1.382-9.188,2.372-13.483.785-5.405-1.993-8.715-7.695-9.6-13.387s.2-11.484,1.11-17.167C2.969,25.7,3.966,15.851,2.077,6.324c2.171,2.617,1.772,2.019,4.869,3.42" transform="translate(75.39 78.494)" fill="#c4c4c4"/>
    <path id="Path-2" data-name="Path" d="M6.938,10.312l.547,5.453q.649,6.385,1.307,12.767.766,7.513,1.571,15.025.354,3.33.718,6.659c.113,1.026.214,2.056.348,3.082a7.973,7.973,0,0,0,1.38,4c1.041,1.313,2.708,1.619,4.263,1.914a13.536,13.536,0,0,0,4.653.258,5.7,5.7,0,0,0,3.79-2.329,9.633,9.633,0,0,0,1.407-3.131,27.223,27.223,0,0,0,.574-3.135c.228-1.581.408-3.168.574-4.756.421-4.111.727-8.23,1-12.357q.454-6.739.787-13.483.283-5.639.5-11.28c.08-2.172.149-4.343.17-6.508a1.132,1.132,0,0,0-.168-.8.578.578,0,0,0-.9.117A2.958,2.958,0,0,0,29.356,3l-.061,2.262c-.048,1.759-.094,3.52-.174,5.277-.013.314-.029.628-.052.942,0,.092-.023.191-.025.281s.046-.191,0-.059v.029a.6.6,0,0,1,.383-.383h.306c.134.025.383.369.383.36-.021-.078.013.2,0,.059,0-.1-.013-.191-.019-.3-.019-.4-.029-.794-.036-1.191-.05-2.477-.412-5.377,1.148-7.5a3.625,3.625,0,0,1,3.114-1.629L33.748.577q.766,8.751.779,17.544c0,5.855-.323,11.676-.75,17.521a45.829,45.829,0,0,0,.082,9.827c.057.4.551.475.844.343l17.854-8.039c5.5-2.475,11.065-4.86,16.365-7.752A65.71,65.71,0,0,0,77.3,24.662l-.842-.647q-.551,3.845-1.357,7.656a34.753,34.753,0,0,1-1.851,6.605,12.076,12.076,0,0,1-4.02,5.049,40.533,40.533,0,0,1-5.821,3.288L49.289,53.75c-4.508,2.278-9.006,4.582-13.6,6.676a88.7,88.7,0,0,1-13.925,5.26c-4.374,1.177-9.239,1.642-13.245-.884a16.161,16.161,0,0,1-6.483-9.293c-1.359-4.682-.957-9.681-.268-14.442C2.5,35.966,3.418,30.9,3.881,25.755a71.217,71.217,0,0,0-.092-15.313q-.234-1.864-.591-3.7L2.241,7.3A10.414,10.414,0,0,0,4.423,9.541a20.351,20.351,0,0,0,2.8,1.267.591.591,0,0,0,.787-.2.574.574,0,0,0-.207-.787,22.171,22.171,0,0,1-2.76-1.242,3.69,3.69,0,0,1-.75-.647c-.436-.459-.836-.957-1.242-1.441s-1.058.05-.957.559A62.219,62.219,0,0,1,2.972,22.6,154.707,154.707,0,0,1,1.058,38.194C.243,43.3-.5,48.53.43,53.679A18.966,18.966,0,0,0,5.843,64.166,13.27,13.27,0,0,0,11,67.191a16.9,16.9,0,0,0,7.273.4,40.085,40.085,0,0,0,7.176-1.822c2.431-.812,4.822-1.736,7.183-2.731,4.712-1.987,9.295-4.257,13.858-6.559q7.164-3.61,14.319-7.231c2.216-1.12,4.467-2.188,6.634-3.4A16.6,16.6,0,0,0,72.629,41.7a17.273,17.273,0,0,0,2.791-6.125c.658-2.446,1.148-4.946,1.589-7.44q.335-1.895.607-3.8c.061-.421-.383-.991-.844-.649a83.274,83.274,0,0,1-15.339,8.845c-5.708,2.67-11.484,5.2-17.227,7.784L34.169,44.832l.844.343a41.9,41.9,0,0,1-.105-8.625c.191-2.9.44-5.792.574-8.694q.421-8.7.082-17.418Q35.373,5.5,34.937.583a.591.591,0,0,0-.574-.574,4.981,4.981,0,0,0-4.441,2.714c-1.091,1.889-1.06,4.169-1,6.282.023.854.019,1.711.071,2.565a2.238,2.238,0,0,0,.05.467.586.586,0,0,0,1.127.017,4,4,0,0,0,.092-.9c.033-.574.054-1.129.075-1.7.056-1.495.1-2.992.138-4.487.019-.672.036-1.34.056-2.016q0-.308.017-.614v-.17c0-.191-.038.153-.073.212l-.9.117c-.268-.337-.153-.551-.167-.264v.4c0,.5-.011,1.007-.021,1.512-.015.986-.048,1.973-.08,2.959-.113,3.373-.26,6.743-.419,10.114q-.31,6.477-.7,12.949c-.264,4.259-.557,8.518-.934,12.769-.155,1.763-.325,3.528-.528,5.287-.161,1.38-.3,2.523-.549,3.91A11.727,11.727,0,0,1,24.9,56.02a4.678,4.678,0,0,1-3.463,2.356,12.7,12.7,0,0,1-4.4-.327,9.327,9.327,0,0,1-2.31-.649,3.208,3.208,0,0,1-1.4-1.414,10.376,10.376,0,0,1-.858-3.729q-.343-3.074-.672-6.154-.785-7.283-1.531-14.57Q9.564,24.817,8.879,18.1q-.383-3.719-.754-7.436l-.034-.35a.59.59,0,0,0-.574-.574.574.574,0,0,0-.574.574Z" transform="translate(74.828 77.926)" fill="#c4c4c4"/>
    <path id="Path-3" data-name="Path" d="M17.161.484A12.2,12.2,0,0,0,5.773,3.141,17.652,17.652,0,0,0,.233,13.758a13.537,13.537,0,0,0,.22,6.033,10.719,10.719,0,0,0,2.3,4A13.509,13.509,0,0,0,13.867,28,16.68,16.68,0,0,0,24.572,22.49,13.429,13.429,0,0,0,28.144,15.3c.463-3.706-1.127-7.415-3.4-10.374C22.777,2.369,19.956.1,16.734.182" transform="translate(24.121 14.842)" fill="#81e2d2"/>
    <path id="Path-4" data-name="Path" d="M1.5,36.459,0,18.436c2.063-1.487,4.925-.279,7.118,1.007A142.519,142.519,0,0,1,40.442,46.468a1.935,1.935,0,0,0,3.229-2.012l-.023-.059C38.647,31.8,29.6,20.689,19.983,11.144,18.834,10,18.507,6.265,18.771,4.668c.23-1.38.689.433,2.033.427a9.36,9.36,0,0,1,4.211,1.057c7.559,3.778,12.956,10.91,16.641,18.511,3.828,7.9,6.071,16.461,9.188,24.676A1.637,1.637,0,0,0,52.4,50.414c1.175-.038,1.439-1.34,1.459-2.372C54.1,34.612,47.088,22.3,41.25,10.2c-1.577-3.265-2.957-7.532-.5-10.2,6.766,2.645,10.435,9.907,12.717,16.805a98.727,98.727,0,0,1,4.873,26.251,1.336,1.336,0,0,0,2.643.191c.281-1.378.383-2.871.565-4.224.827-6.225,4.567-11.766,9.23-15.971S86.826,10.034,92.338,7.021c1.7-.924-1.575,5.147.333,4.837.681,3.181-3.152,4.567-5.7,6.588A66.881,66.881,0,0,0,67.032,44.691c3.306-1.03,5.934-3.468,8.657-5.614,8.294-6.556,18.128-10.813,27.836-15,.7,9.222-4.519,7.562-8.386,9.89L72.725,47.459a25.064,25.064,0,0,0-5.04,3.637c-2.335,2.373-3.637,5.61-6.012,7.953a12.44,12.44,0,0,1-16.116.71c-2.3-1.914-3.828-4.617-6.022-6.649-2.3-2.127-5.237-3.417-8.112-4.666L2.2,35.732" transform="translate(37.888 26.584)" fill="#c4c4c4"/>
    <path id="Path-5" data-name="Path" d="M2.647,37.035l-1.5-18.023-.283.5c1.5-1.034,3.363-.549,4.906.149a43.432,43.432,0,0,1,4.822,2.783q4.9,3.047,9.54,6.485A142.023,142.023,0,0,1,37.5,44.138q1.013,1.045,2,2.105a7.588,7.588,0,0,0,1.809,1.744,2.563,2.563,0,0,0,3.254-.909c.886-1.34-.015-2.837-.565-4.113q-1.106-2.6-2.446-5.111A98.6,98.6,0,0,0,28.487,19.307q-1.855-2.128-3.8-4.178-.978-1.034-1.975-2.054a23.494,23.494,0,0,1-1.868-1.889A7.013,7.013,0,0,1,19.87,7.51a11.276,11.276,0,0,1,0-1.851,4.666,4.666,0,0,0,.1-.551l-.534.151.044.029c-.027-.05.031.029.036.034a1.843,1.843,0,0,0,.281.251,2.574,2.574,0,0,0,1.679.672,8.778,8.778,0,0,1,2.871.563,20.774,20.774,0,0,1,4.552,2.571,34.472,34.472,0,0,1,7.348,7.159c4.674,6.041,7.551,13.186,10.034,20.345,1.34,3.847,2.576,7.725,3.97,11.551a6.5,6.5,0,0,0,1.148,2.488,2.151,2.151,0,0,0,2.094.557C54.98,51.03,55,49.143,55,47.884c-.011-7.731-2.408-15.184-5.442-22.215-1.554-3.6-3.288-7.122-5.023-10.64-.836-1.7-1.7-3.382-2.488-5.1a15.341,15.341,0,0,1-1.459-4.785A5.284,5.284,0,0,1,41.721.974l-.559.147C48.527,4.046,51.881,12.29,54.049,19.3a98.708,98.708,0,0,1,3.283,14.287q.563,3.671.836,7.379.067.884.117,1.769a5.769,5.769,0,0,0,.151,1.464,1.864,1.864,0,0,0,1.457,1.225,1.926,1.926,0,0,0,1.771-.588,5.025,5.025,0,0,0,.731-2.751,31.007,31.007,0,0,1,1.254-6.445A27.717,27.717,0,0,1,70.416,25.3a83.475,83.475,0,0,1,7.149-6.125q4.211-3.355,8.6-6.494c1.363-.97,2.739-1.924,4.144-2.833.574-.366,1.148-.725,1.723-1.072q.383-.232.777-.454c.134-.077.274-.145.406-.226.065-.04.077,0,0-.017a.9.9,0,0,1-.337-.216c-.033-.029,0-.132-.017,0A3.51,3.51,0,0,1,92.8,8.3c-.1.475-.237.944-.364,1.413-.214.8-.645,1.985-.209,2.781a1.011,1.011,0,0,0,1.03.513l-.553-.423c.442,2.255-2,3.6-3.581,4.64A46.377,46.377,0,0,0,82.7,22.48,67.6,67.6,0,0,0,71.689,36.1a66.842,66.842,0,0,0-4.567,8.874c-.178.421.121,1.013.649.842a21.391,21.391,0,0,0,6.739-4.02c2.13-1.7,4.253-3.382,6.527-4.89a107.868,107.868,0,0,1,14.738-7.964c2.856-1.311,5.742-2.555,8.625-3.8l-.863-.5c.178,2.452.18,5.595-2.2,7.034-1.723,1.043-3.828,1.223-5.6,2.186-2.088,1.133-4.092,2.454-6.125,3.679L83.262,41.37,76.714,45.3c-2.019,1.215-4.087,2.375-6.043,3.69A17.537,17.537,0,0,0,66.1,53.4c-1.206,1.679-2.207,3.512-3.566,5.078A11.922,11.922,0,0,1,48.133,61a15.18,15.18,0,0,1-4.322-3.947,28.1,28.1,0,0,0-4.3-4.619,27.42,27.42,0,0,0-5.6-3.195c-4.5-2.027-9.055-3.947-13.59-5.918L6.471,37.295,3.057,35.81c-.672-.293-1.258.7-.574.991L30.757,49.1A53.835,53.835,0,0,1,36.9,52.047a18.5,18.5,0,0,1,4.9,4.339,28.25,28.25,0,0,0,4.259,4.626,12.024,12.024,0,0,0,4.829,2.22,13.281,13.281,0,0,0,10.217-1.914c3.455-2.4,4.808-6.556,7.754-9.423A30.789,30.789,0,0,1,74.647,47.9l6.527-3.937,13.148-7.913a18.647,18.647,0,0,1,3.828-1.941c.982-.323,1.981-.588,2.93-1a5.756,5.756,0,0,0,2.385-1.834,7.347,7.347,0,0,0,1.221-3.74,17.824,17.824,0,0,0-.01-2.871.585.585,0,0,0-.865-.5c-10.131,4.366-20.258,8.856-28.9,15.847-2.285,1.849-4.609,3.8-7.465,4.707l.649.844a66.2,66.2,0,0,1,15.28-22.14,46.469,46.469,0,0,1,6.542-5.348c2.054-1.34,4.423-2.986,3.874-5.782a.574.574,0,0,0-.553-.421.766.766,0,0,1-.132.01c-.013,0,0,.044,0,0s.105.1.13.1h0a.766.766,0,0,0-.029-.115c.017.119,0-.144,0-.18a5.857,5.857,0,0,1,.234-1.29,8.513,8.513,0,0,0,.551-2.651.812.812,0,0,0-.787-.81,3.353,3.353,0,0,0-1.407.645C90.554,8.308,89.348,9.1,88.16,9.9a171.692,171.692,0,0,0-16.2,12.424,34.475,34.475,0,0,0-7.421,8.68,24.286,24.286,0,0,0-2.425,5.683c-.6,2.171-.658,4.4-1.057,6.607-.1.561-.3,1.148-1,1-.8-.172-.611-1.244-.647-1.851q-.218-3.637-.7-7.25a99.284,99.284,0,0,0-3.018-14.4C53.6,13.585,50.65,5.3,43.868,1.2A16.1,16.1,0,0,0,41.462.022.561.561,0,0,0,40.9.17c-2.259,2.527-1.571,6.1-.433,8.981.662,1.673,1.5,3.277,2.3,4.89.871,1.772,1.749,3.541,2.611,5.317,3.376,6.965,6.581,14.164,7.89,21.838a40.846,40.846,0,0,1,.574,5.691c.021.754.383,3.989-1.221,3.482a1.217,1.217,0,0,1-.724-.785c-.191-.477-.362-.969-.54-1.453q-.528-1.459-1.036-2.923c-.676-1.956-1.33-3.918-1.993-5.878-2.461-7.273-5.088-14.627-9.413-21.043a39.937,39.937,0,0,0-6.665-7.714A31.268,31.268,0,0,0,28.137,7.5a15.412,15.412,0,0,0-4.881-2.2,9.379,9.379,0,0,0-1.323-.18,2.336,2.336,0,0,1-1.043-.159c-.383-.207-.634-.635-1.053-.766-1.248-.383-1.148,1.868-1.148,2.548a11.918,11.918,0,0,0,.7,4.113,4.14,4.14,0,0,0,.957,1.462q1,1,1.994,2.019A118.625,118.625,0,0,1,36.752,31.987a78.806,78.806,0,0,1,5.5,9.871q.574,1.258,1.112,2.538c.243.593.628,1.256.335,1.9a1.453,1.453,0,0,1-1.2.823c-.725.056-1.137-.528-1.577-1.007A142.718,142.718,0,0,0,24.006,30.456q-4.525-3.553-9.32-6.739Q12.267,22.1,9.779,20.591a23.079,23.079,0,0,0-4.825-2.475,5.288,5.288,0,0,0-4.668.4.574.574,0,0,0-.285.5L1.5,37.035c.061.731,1.21.739,1.148,0Z" transform="translate(37.316 26.009)" fill="#c4c4c4"/>
    <path id="Path-6" data-name="Path" d="M24.617,0A202.946,202.946,0,0,0,0,9.517Q3.526,21.478,7.055,33.443l.521.281c-.477.6.256,1.522,1.02,1.531a3.847,3.847,0,0,0,2.056-.919A23.1,23.1,0,0,1,13.513,32.8L32.5,23.713Q28.558,11.858,24.617,0Z" transform="translate(119.839 12.256)" fill="#ed7a7a"/>
    <path id="Path-7" data-name="Path" d="M1.437,2.871A1.451,1.451,0,0,0,2.872,1.436,1.46,1.46,0,0,0,1.437,0,1.452,1.452,0,0,0,0,1.436,1.46,1.46,0,0,0,1.437,2.871Z" transform="translate(136.065 33.05)" fill="#6573c9"/>
    <path id="Path-8" data-name="Path" d="M1.437,2.871A1.452,1.452,0,0,0,2.872,1.436,1.46,1.46,0,0,0,1.437,0,1.452,1.452,0,0,0,0,1.436,1.46,1.46,0,0,0,1.437,2.871Z" transform="translate(131.077 35.795)" fill="#6573c9"/>
    <path id="Path-9" data-name="Path" d="M139.736.545c-13.41,7.924-27.212,15.161-40.546,23.219-3.587,2.167-7.128,4.4-10.659,6.659A8.753,8.753,0,0,0,84.8,34.6a17.908,17.908,0,0,1-2.117,4.523c-3.744,4.856-11.138,5.386-16.3,2.693a10.812,10.812,0,0,1-3.143-2.408,10.7,10.7,0,0,1-2.01-3.776,10.74,10.74,0,0,0-1.2-2.655A8.351,8.351,0,0,0,57.9,30.927c-1.646-1.148-3.4-2.194-5.1-3.265C45.9,23.314,38.85,19.2,31.745,15.187c-6.63-3.75-13.3-7.423-19.906-11.211q-2.431-1.4-4.852-2.814A7.584,7.584,0,0,0,4.745.082,3.947,3.947,0,0,0,.015,4.293,43.6,43.6,0,0,0,.957,8.836C3.92,22.677,6.728,36.55,9.587,50.412Q11.666,60.48,13.8,70.54a11.144,11.144,0,0,0,1.851,4.5,10.035,10.035,0,0,0,3.886,3.172c3.784,1.723,7.656,3.279,11.484,4.9,7.691,3.254,15.313,6.607,22.731,10.464,6.716,3.5,14,7.228,21.82,6.38,7.465-.813,13.82-5.072,20.368-8.391,3.665-1.857,7.5-3.394,11.262-5.042l11.957-5.235,5.978-2.618a11.606,11.606,0,0,0,4.312-2.86c2.276-2.594,2.626-6.016,3.311-9.264q2.159-10.388,4.288-20.785c2.781-13.513,5.52-27.036,8.447-40.519a4.125,4.125,0,0,0-1.148-4.232A4,4,0,0,0,139.73.552c-1.623.884-.176,3.365,1.449,2.479a1.07,1.07,0,0,1,1.629.905,9.744,9.744,0,0,1-.371,1.843l-.454,2.105q-.993,4.636-1.962,9.277-2.148,10.267-4.251,20.544-2.142,10.416-4.3,20.829-1,4.814-2.019,9.632a16.1,16.1,0,0,1-1.189,4.309,7.2,7.2,0,0,1-3.007,2.99c-1.8.957-3.767,1.675-5.635,2.488l-5.832,2.559-11.7,5.122c-3.508,1.531-6.984,3.063-10.361,4.887A91.4,91.4,0,0,1,82.2,95.293a23.684,23.684,0,0,1-10.368,1.857,30.982,30.982,0,0,1-10.4-2.951c-3.445-1.56-6.766-3.417-10.156-5.107-3.637-1.813-7.348-3.5-11.075-5.137C36.5,82.335,32.784,80.773,29.071,79.2q-2.81-1.189-5.616-2.393a15.474,15.474,0,0,1-4.529-2.375c-2.28-2.09-2.5-5.269-3.108-8.133q-1.03-4.892-2.046-9.789C10.918,42.754,8.127,28.98,5.237,15.228Q4.28,10.685,3.309,6.149c-.145-.668-.367-1.369-.444-2.048a1.07,1.07,0,0,1,.482-1.074,1.051,1.051,0,0,1,.8-.14A10.236,10.236,0,0,1,6.376,4.136c6.38,3.731,12.847,7.31,19.294,10.925,6.818,3.828,13.609,7.687,20.289,11.745,3.459,2.105,6.956,4.2,10.305,6.471a4.9,4.9,0,0,1,1.56,1.562,14.256,14.256,0,0,1,.928,2.37,12.721,12.721,0,0,0,2.35,4.1c3.784,4.4,10.472,5.729,15.958,4.557a13.76,13.76,0,0,0,8.657-6.079c.93-1.487,1.221-3.2,2.023-4.733S90.307,32.7,91.716,31.8c13.05-8.37,26.669-15.766,40.169-23.405q4.67-2.645,9.3-5.369A1.436,1.436,0,0,0,139.736.545Z" transform="translate(18.097 46.036)" fill="#282a3a"/>
    <path id="Path-10" data-name="Path" d="M57.117,32.261l.017-.316a12.337,12.337,0,0,0-2.915-2.213C36.109,18.045,19.654,9.732,3.786.348a2.511,2.511,0,0,0-3.729,2.7c4,18.4,9.6,46.531,13.86,66.475a8.506,8.506,0,0,0,4.906,6.016c10.818,4.735,21.972,9.044,32.47,14.459a111.114,111.114,0,0,0,10.592,5.1Z" transform="translate(19.511 47.473)" fill="#282a3a" stroke="#282a3a" stroke-miterlimit="10" stroke-width="5"/>
    <path id="Path-11" data-name="Path" d="M58.117.347c-15.868,9.379-32.323,17.7-50.434,29.39A12.337,12.337,0,0,0,4.768,31.95l.017.316L0,95.326c5.451-2.119,10.592-5.566,15.787-7.848L43.08,75.529a8.506,8.506,0,0,0,4.906-6.016c4.257-19.945,9.857-48.072,13.86-66.475A2.511,2.511,0,0,0,58.117.347Z" transform="translate(100.44 47.474)" fill="none" stroke="#282a3a" stroke-miterlimit="10" stroke-width="5"/>
    <g id="Group-2" data-name="Group" transform="translate(35.781 8.628)">
      <path id="Path-12" data-name="Path" d="M3.1,20.072l-.383-3.237-.779-6.711L1.281,4.434c-.04-.346-.084-.693-.121-1.039a2,2,0,0,1,.492-1.614,1.914,1.914,0,0,1,1.815-.6A41.521,41.521,0,0,1,14.011,5.135a52.66,52.66,0,0,1,9.346,6.332,62.781,62.781,0,0,1,8.064,8.2,79.355,79.355,0,0,1,7.038,10.225A117.013,117.013,0,0,1,44.2,41.159c1.723,3.847,3.286,7.767,4.774,11.712q.544,1.443,1.074,2.892a.588.588,0,0,0,.706.4.574.574,0,0,0,.4-.706c-1.493-4.065-3.047-8.108-4.745-12.093-1.682-3.945-3.51-7.83-5.574-11.592A86.707,86.707,0,0,0,33.9,21a65.689,65.689,0,0,0-7.941-8.751A56.325,56.325,0,0,0,16.614,5.29,46.276,46.276,0,0,0,6.049.68Q5.356.48,4.659.3A8.271,8.271,0,0,0,3.233,0,3.063,3.063,0,0,0,.881.912a3.209,3.209,0,0,0-.854,2.7L.563,8.228,1.375,15.2l.538,4.638.027.234a.593.593,0,0,0,.574.574.577.577,0,0,0,.574-.574Z" transform="translate(0 19.777)" fill="#282a3a"/>
      <path id="Path-13" data-name="Path" d="M2.313,21.309,1.62,9.787,1.27,3.96,1.191,2.636A3.224,3.224,0,0,1,1.2,1.478c.191-.565,1.254-.308,1.681-.258a16.181,16.181,0,0,1,8.052,3.736,42.431,42.431,0,0,1,6.47,6.789,77.312,77.312,0,0,1,9.712,16.1,104.783,104.783,0,0,1,6.156,17.969,150.063,150.063,0,0,1,3.38,18.823q.136,1.148.256,2.287a.59.59,0,0,0,.574.574.574.574,0,0,0,.574-.574,159.682,159.682,0,0,0-3.21-19.487,110.1,110.1,0,0,0-6.054-18.63A79.38,79.38,0,0,0,19.109,12.08a49,49,0,0,0-6.458-7.174A19.317,19.317,0,0,0,4.42.331,12.887,12.887,0,0,0,2.051,0,1.8,1.8,0,0,0,.137,1.041a2.777,2.777,0,0,0-.126,1.1c.023.5.059.991.09,1.487L.278,6.608.987,18.4l.176,2.913c.044.735,1.192.739,1.148,0Z" transform="translate(19.511 7.484)" fill="#282a3a"/>
      <path id="Path-14" data-name="Path" d="M1.13,23.677c.905-6.412,2.555-13.085,6.958-18.05A19.091,19.091,0,0,1,11.4,2.638a17.276,17.276,0,0,1,1.914-1.16,1.858,1.858,0,0,1,1.667-.228,2,2,0,0,1,1,1.4q.413,1.244.8,2.488.779,2.5,1.466,5.028A145.691,145.691,0,0,1,22.262,30.7a147.559,147.559,0,0,1,1.072,20.842,144.32,144.32,0,0,1-1.914,20.764q-.212,1.292-.452,2.58c-.132.722.974,1.032,1.108.3a146.772,146.772,0,0,0,2.339-21.5,147.628,147.628,0,0,0-.829-21.472,148.125,148.125,0,0,0-3.962-21.275q-.685-2.6-1.468-5.168-.394-1.286-.806-2.565A6.839,6.839,0,0,0,16.424.971,2.647,2.647,0,0,0,14.737.025,3.25,3.25,0,0,0,12.716.5,18.542,18.542,0,0,0,8.942,3.143C3.869,7.687,1.557,14.337.411,20.873Q.192,22.125.016,23.382a.6.6,0,0,0,.4.706.578.578,0,0,0,.706-.4Z" transform="translate(40.235 0)" fill="#282a3a"/>
      <path id="Path-15" data-name="Path" d="M1.162,33.986A31.379,31.379,0,0,1,4.391,22.272a37.06,37.06,0,0,1,7.18-9.907,44.067,44.067,0,0,1,10.336-7.5,51.9,51.9,0,0,1,5.815-2.639c.507-.191,1.014-.383,1.531-.561a13.458,13.458,0,0,1,1.506-.5,1.426,1.426,0,0,1,.957.144,1.453,1.453,0,0,1,.687.766c-.027-.067.01.029.011.034.019.059.038.119.052.178a.62.62,0,0,1,.033.191,2.178,2.178,0,0,1-.073.685Q32.235,4.083,32.08,5q-.323,1.872-.551,3.759a70.193,70.193,0,0,0-.5,7.365q-.013.936,0,1.87a.575.575,0,0,0,1.148,0,70.041,70.041,0,0,1,.327-7.656q.191-1.878.471-3.742.149-.97.327-1.935c.113-.614.283-1.235.341-1.857A2.636,2.636,0,0,0,32.361.374,2.569,2.569,0,0,0,30.983,0a5.565,5.565,0,0,0-1.548.383A57.284,57.284,0,0,0,23.2,2.921a46.837,46.837,0,0,0-11.119,7.371A38.547,38.547,0,0,0,4.1,20.318,33.5,33.5,0,0,0,.144,32.444C.082,32.957.034,33.47,0,33.986a.574.574,0,0,0,.574.574.586.586,0,0,0,.574-.574Z" transform="translate(63.555 12.545)" fill="#282a3a"/>
      <path id="Path-16" data-name="Path" d="M1.067,37.725A82.573,82.573,0,0,1,27.435,7.152q2.8-1.954,5.742-3.673a36.821,36.821,0,0,1,3.482-1.838c.256-.115.517-.222.779-.323a3.686,3.686,0,0,1,.425-.142.909.909,0,0,1,.291-.038,1.562,1.562,0,0,1,1.078.354c-.077-.059.073.067.069.063.036.034.073.069.107.105a.861.861,0,0,1,.153.191,1.447,1.447,0,0,1,.237.536,1.933,1.933,0,0,1,.027.649c-.029.371-.063.743-.1,1.112q-.191,2.038-.461,4.065-.549,4.071-1.428,8.091-.218,1-.456,1.994c-.172.718.934,1.024,1.106.3q.991-4.138,1.635-8.349.325-2.121.563-4.255.121-1.062.216-2.128a5.129,5.129,0,0,0-.013-1.849A2.8,2.8,0,0,0,38.738.041a3.038,3.038,0,0,0-1.688.2C36.386.5,35.735.8,35.1,1.115a62.64,62.64,0,0,0-6.278,3.711A83.564,83.564,0,0,0,8.394,23.848,82.01,82.01,0,0,0,.84,35.645c-.26.5-.517,1-.766,1.5a.59.59,0,0,0,.2.787.574.574,0,0,0,.787-.207Z" transform="translate(67.43 25.559)" fill="#282a3a"/>
    </g>
    <path id="Path-17" data-name="Path" d="M27.247,5.255A16.417,16.417,0,0,0,20.2.74a14.857,14.857,0,0,0-8.372-.26A14.52,14.52,0,0,0,4.366,5.427,19.885,19.885,0,0,0,.414,14.056a17.342,17.342,0,0,0-.322,5.388A11.814,11.814,0,0,0,1.9,24.564a14.1,14.1,0,0,0,7.656,5.643,15.7,15.7,0,0,0,9.283-.046,18.708,18.708,0,0,0,8.026-5.082A17.01,17.01,0,0,0,29.681,21.1a13.548,13.548,0,0,0,1.4-5.009,14.221,14.221,0,0,0-2.37-8.962,17.018,17.018,0,0,0-1.459-1.87,1.447,1.447,0,0,0-2.031,0,1.468,1.468,0,0,0,0,2.031c.13.144.258.291.383.44l.191.226.09.115L25.746,7.9a8.393,8.393,0,0,1,.651.926A13.613,13.613,0,0,1,27.44,10.8l-.144-.343a12.954,12.954,0,0,1,.892,3.239l-.052-.383a13.219,13.219,0,0,1,0,3.466l.052-.383a11.511,11.511,0,0,1-.8,2.871l.145-.345a14.078,14.078,0,0,1-1.148,2.165c-.115.176-.235.352-.358.524-.054.077-.109.151-.165.226s-.331.415-.04.057c-.258.318-.517.637-.792.942A17.814,17.814,0,0,1,23.31,24.5c-.149.124-.3.247-.45.368-.04.031-.078.067-.121.1.011-.01.291-.222.105-.084l-.247.191q-.486.354-.99.672A17.317,17.317,0,0,1,19.187,27l.343-.145a15.617,15.617,0,0,1-3.92,1.078l.383-.052a14.317,14.317,0,0,1-3.731,0l.383.05a14.206,14.206,0,0,1-3.577-.969l.343.145a13.475,13.475,0,0,1-1.9-.988c-.314-.191-.6-.421-.911-.63.383.264.084.065,0,0l-.17-.14c-.142-.119-.281-.241-.417-.366q-.4-.366-.756-.766c-.126-.14-.249-.281-.369-.427-.065-.08-.278-.4-.029-.029-.052-.078-.115-.153-.17-.23A10.891,10.891,0,0,1,3.5,21.454l.145.343a10.336,10.336,0,0,1-.714-2.651l.05.383a15.121,15.121,0,0,1,.054-3.845l-.05.383a20.616,20.616,0,0,1,1.4-5.2l-.145.343a18.457,18.457,0,0,1,.99-2c.191-.331.392-.657.607-.974.1-.149.2-.295.306-.44.052-.073.105-.144.159-.214l.069-.092c.145-.191-.17.214-.061.078A15.722,15.722,0,0,1,7.8,5.934c.268-.253.547-.494.835-.724.038-.031.078-.065.119-.094-.01,0-.295.224-.113.088l.178-.132c.159-.115.32-.228.484-.335a12.614,12.614,0,0,1,2.067-1.106l-.343.145a12.633,12.633,0,0,1,3.154-.842l-.383.052A13.374,13.374,0,0,1,17.342,3l-.383-.052a14.56,14.56,0,0,1,3.667,1.014l-.343-.145a15.135,15.135,0,0,1,2.791,1.541c.1.071.191.144.3.216l.161.121c-.369-.266-.163-.126-.078-.059.211.167.417.341.618.519a14.891,14.891,0,0,1,1.148,1.133,1.449,1.449,0,0,0,2.031,0,1.47,1.47,0,0,0-.008-2.031Z" transform="translate(22.681 13.444)" fill="#81e2d2"/>
    <path id="Path-18" data-name="Path" d="M20.618,0Q10.024,8.627,0,17.929a31.084,31.084,0,0,0,9.306,5.189A121.007,121.007,0,0,0,26.873,28.6C26.207,18.968,23.868,9.545,21.537.182l-.829.176" transform="translate(74.328 16.953)" fill="#6573c9"/>
    <path id="Path-19" data-name="Path" d="M21.028.412Q16.9,3.776,12.861,7.243t-8,7.034Q2.617,16.292.419,18.342a1.437,1.437,0,0,0,0,2.029A32.908,32.908,0,0,0,10.281,25.9q5.486,2.188,11.17,3.828,3.212.928,6.473,1.679a1.436,1.436,0,0,0,1.252-.256,1.369,1.369,0,0,0,.574-1.127,106.7,106.7,0,0,0-1.489-11.534c-.67-3.713-1.495-7.4-2.375-11.065q-.744-3.1-1.531-6.2a1.463,1.463,0,0,0-1.765-1L21.761.4a1.444,1.444,0,0,0-1,1.765,1.468,1.468,0,0,0,1.765,1l.829-.176-1.774-1c1.447,5.815,2.894,11.636,3.947,17.537Q25.966,22,26.3,24.49l-.05-.383c.262,1.968.471,3.941.609,5.92l1.816-1.386a121.493,121.493,0,0,1-15.087-4.521c-1.353-.505-2.7-1.028-4.031-1.589l.343.144a39.014,39.014,0,0,1-4.041-1.949q-.957-.544-1.874-1.169c-.161-.111-.318-.224-.475-.339l-.191-.149c-.075-.056-.287-.253.025.023-.291-.256-.607-.49-.9-.746v2.023q3.9-3.623,7.9-7.147t8.062-6.944Q20.72,4.343,23.053,2.45a1.437,1.437,0,0,0,.421-1.014A1.466,1.466,0,0,0,23.053.419,1.443,1.443,0,0,0,22.039,0a1.637,1.637,0,0,0-1.014.419Z" transform="translate(72.898 15.533)" fill="#6573c9"/>
    <path id="Path-20" data-name="Path" d="M25.669.063q-4.944,1.552-9.806,3.352Q10.887,5.254,6.027,7.352,3.348,8.5.708,9.725a1.321,1.321,0,0,0-.588.685,1.416,1.416,0,0,0-.073.936q1.5,5.065,2.988,10.127L6.018,31.557l.838,2.84c.191.649.31,1.38.957,1.748.159.092.323.176.484.264l-.515-1.964a2.105,2.105,0,0,0-.247,1.811,2.81,2.81,0,0,0,1.148,1.478,3.143,3.143,0,0,0,3.327-.191c.383-.228.752-.5,1.137-.741s.836-.488,1.265-.708c.886-.454,1.792-.871,2.68-1.3l11.216-5.359L34.65,26.4a1.439,1.439,0,0,0,.66-1.621l-3.062-9.233q-1.531-4.617-3.082-9.277-.863-2.6-1.723-5.2a1.436,1.436,0,1,0-2.768.764l3.063,9.232q1.531,4.615,3.082,9.279.865,2.6,1.723,5.2l.658-1.621-9.228,4.425L14.7,32.784c-.806.383-1.619.766-2.4,1.2-.735.41-1.4.972-2.167,1.313l.343-.145a2.461,2.461,0,0,1-.593.165l.383-.052a1.685,1.685,0,0,1-.354,0l.383.052A1.418,1.418,0,0,1,10,35.232l.345.144a1.483,1.483,0,0,1-.216-.119c0-.01.322.285.1.071-.119-.117-.084-.191.067.107-.034-.069-.082-.132-.117-.2l.145.343a1.08,1.08,0,0,1-.075-.266l.05.383a1.127,1.127,0,0,1,0-.161l-.052.383a.888.888,0,0,1,.057-.209l-.145.343a1.148,1.148,0,0,1,.09-.145A1.436,1.436,0,0,0,10.4,34.8a1.459,1.459,0,0,0-.66-.859l-.521-.281.66.858L7.118,25.164,4.372,15.852q-.777-2.632-1.554-5.269L2.157,12.2q3.2-1.485,6.458-2.858l-.343.145q6.952-2.929,14.1-5.342,2.016-.685,4.056-1.317a1.46,1.46,0,0,0,1-1.767,1.461,1.461,0,0,0-1.765-1Z" transform="translate(118.405 10.809)" fill="#ed7a7a"/>
    <path id="Path-21" data-name="Path" d="M8.217,12.637A68.543,68.543,0,0,1,.6,16.932L0,26,30.324,11.959C31.048,7.111,31.77,4.848,32.493,0,25.191,5.5,16.1,8.024,8.217,12.637Z" transform="translate(114.866 71.71)" fill="#eac36e"/>
    <path id="Path-22" data-name="Path" d="M8.927,12.824a68.922,68.922,0,0,1-7.612,4.3A1.4,1.4,0,0,0,.6,18.36L0,27.432a1.418,1.418,0,0,0,.712,1.238,1.49,1.49,0,0,0,1.449,0l1.066-.494,2.84-1.307,4.1-1.914L15.02,22.72l5.072-2.358,4.818-2.23,4-1.855,2.695-1.248.7-.323c.052-.023.105-.046.155-.073l.029-.011a1.464,1.464,0,0,0,.66-.859,5.959,5.959,0,0,0,.105-.691c.461-2.94,1.133-5.84,1.656-8.768q.222-1.246.408-2.488a1.8,1.8,0,0,0,0-.766A1.418,1.418,0,0,0,34.807.3a1.363,1.363,0,0,0-.679-.281,1.305,1.305,0,0,0-.915.17,54.384,54.384,0,0,1-9.187,5.382c-3.2,1.537-6.535,2.921-9.771,4.466-1.811.863-3.6,1.774-5.333,2.785A1.436,1.436,0,1,0,10.37,15.3a101.36,101.36,0,0,1,9.614-4.747c3.262-1.462,6.525-2.906,9.643-4.647a44.45,44.45,0,0,0,5.028-3.241L32.551,1.047c-.456,3.045-1.137,6.043-1.69,9.069Q30.6,11.557,30.382,13l.66-.857-.815.383-2.192,1.013-3.269,1.514L20.8,16.9l-4.37,2.023-4.412,2.042-4.1,1.889L4.439,24.46,1.95,25.608c-.4.182-.8.358-1.187.549l-.052.023,2.159,1.24q.3-4.536.6-9.073L2.77,19.6a69.057,69.057,0,0,0,7.612-4.3,1.435,1.435,0,1,0-1.455-2.475Z" transform="translate(113.423 70.282)" fill="#eac36e"/>
    <g id="Group-3" data-name="Group" transform="translate(22.826 13.849)">
      <path id="Path-23" data-name="Path" d="M4,18.825,2.982,8.106a11.766,11.766,0,0,1-.056-2.569l-.052.383a4.594,4.594,0,0,1,.27-1.045L3,5.22A3.675,3.675,0,0,1,3.208,4.8c.04-.067.086-.132.128-.191.13-.207-.172.191-.059.071s.191-.214.295-.314c.056-.056.115-.107.174-.159s.289-.191-.046.025c.245-.151.471-.329.722-.473a8.475,8.475,0,0,1,.825-.41L4.9,3.5a8.648,8.648,0,0,1,2.216-.6l-.383.052a9.059,9.059,0,0,1,2.3,0l-.383-.052a8.629,8.629,0,0,1,2.14.584l-.343-.145c.26.113.513.235.766.371a1.458,1.458,0,0,0,1.964-.515,1.437,1.437,0,0,0-.515-1.964,9.964,9.964,0,0,0-10.156.341A5.253,5.253,0,0,0,.538,3.736a6.713,6.713,0,0,0-.53,2.951c.025.886.136,1.772.22,2.655l.278,2.94.62,6.542a1.545,1.545,0,0,0,.421,1.016A1.436,1.436,0,0,0,4,18.825Z" transform="translate(7.461 9.411)" fill="#ed7a7a"/>
      <path id="Path-24" data-name="Path" d="M1.437,2.871A1.452,1.452,0,0,0,2.872,1.436,1.46,1.46,0,0,0,1.437,0,1.452,1.452,0,0,0,0,1.436,1.46,1.46,0,0,0,1.437,2.871Z" transform="translate(22.881 11.656)" fill="#ed7a7a"/>
      <path id="Path-25" data-name="Path" d="M1.437,2.871A1.452,1.452,0,0,0,2.872,1.436,1.46,1.46,0,0,0,1.437,0,1.452,1.452,0,0,0,0,1.436,1.46,1.46,0,0,0,1.437,2.871Z" transform="translate(27.184 13.713)" fill="#ed7a7a"/>
      <path id="Path-26" data-name="Path" d="M1.437,2.871A1.451,1.451,0,0,0,2.872,1.436,1.46,1.46,0,0,0,1.437,0,1.452,1.452,0,0,0,0,1.436,1.46,1.46,0,0,0,1.437,2.871Z" transform="translate(3.613 23.255)" fill="#ed7a7a"/>
      <path id="Path-27" data-name="Path" d="M3.007,16.093a13.712,13.712,0,0,0,.052-3.987,16.161,16.161,0,0,1-.115-3.7l-.052.383A6.82,6.82,0,0,1,3.34,7.135l-.145.343a7.183,7.183,0,0,1,.792-1.4,1.7,1.7,0,0,1,.121-.163L3.966,6.1,4.052,6c.078-.1.161-.191.243-.283q.276-.3.574-.574c.094-.084.191-.168.285-.249l.159-.132c.2-.167-.27.2-.073.056s.45-.323.685-.471a10.407,10.407,0,0,1,1.485-.766l-.343.144A11.662,11.662,0,0,1,10,2.947L9.616,3a19.38,19.38,0,0,1,5.015.09l-.383-.05c1.449.191,2.886.488,4.316.8a22.012,22.012,0,0,1,3.78,1.114L22,4.81a10.347,10.347,0,0,1,2.234,1.269,1.441,1.441,0,0,0,1.106.145,1.468,1.468,0,0,0,.858-.66,1.453,1.453,0,0,0,.145-1.106,1.7,1.7,0,0,0-.66-.857,16.494,16.494,0,0,0-6.634-2.588,33.4,33.4,0,0,0-7.892-1,13.186,13.186,0,0,0-6.77,1.914,9.419,9.419,0,0,0-4.05,5.1A10.847,10.847,0,0,0,.084,11.17,19.049,19.049,0,0,1,.248,15.3L.3,14.92q-.029.212-.069.425a1.545,1.545,0,0,0,.145,1.106,1.459,1.459,0,0,0,.857.658,1.454,1.454,0,0,0,1.767-1Z" transform="translate(2.627 4.846)" fill="#ed7a7a"/>
      <path id="Path-28" data-name="Path" d="M2.81,5.693l.555-3.876a1.579,1.579,0,0,0-.144-1.1A1.439,1.439,0,0,0,1.255.2,1.391,1.391,0,0,0,.6,1.055L.042,4.931A1.577,1.577,0,0,0,.187,6.037a1.437,1.437,0,0,0,1.964.515A1.384,1.384,0,0,0,2.81,5.693Z" transform="translate(17.88 0.365)" fill="#ed7a7a"/>
      <path id="Path-29" data-name="Path" d="M2.665,4.4a8.093,8.093,0,0,0,.557-1.437,8.322,8.322,0,0,0,.241-1.531A1.436,1.436,0,0,0,1.011.422L.795.709A1.416,1.416,0,0,0,.6,1.432c-.01.138-.023.274-.042.41l.052-.383a6.11,6.11,0,0,1-.408,1.5l.145-.343c-.048.113-.1.226-.153.337a1.053,1.053,0,0,0-.17.532,1.085,1.085,0,0,0,.025.574,1.466,1.466,0,0,0,.66.858,1.443,1.443,0,0,0,1.106.144A1.42,1.42,0,0,0,2.676,4.4Z" transform="translate(22.708 2.366)" fill="#ed7a7a"/>
      <path id="Path-30" data-name="Path" d="M.4,1.431Q.3,3.255.057,5.068l.052-.383c-.021.161-.044.322-.067.482A1.585,1.585,0,0,0,.186,6.273a1.462,1.462,0,0,0,.859.658,1.445,1.445,0,0,0,1.1-.144,1.389,1.389,0,0,0,.66-.858c.216-1.493.383-2.99.465-4.494A1.445,1.445,0,0,0,1.839,0,1.47,1.47,0,0,0,.4,1.437Z" transform="translate(12.329 0)" fill="#ed7a7a"/>
      <path id="Path-31" data-name="Path" d="M0,1.432A8.294,8.294,0,0,0,1.24,5.555a1.5,1.5,0,0,0,.859.658,1.455,1.455,0,0,0,1.1-.144,1.439,1.439,0,0,0,.66-.857,1.466,1.466,0,0,0-.144-1.106A6.988,6.988,0,0,1,3.2,3.114l.145.343a6.99,6.99,0,0,1-.467-1.7l.052.383c-.031-.234-.05-.467-.059-.7A1.5,1.5,0,0,0,2.452.419,1.437,1.437,0,0,0,0,1.434Z" transform="translate(6.14 2.246)" fill="#ed7a7a"/>
      <path id="Path-32" data-name="Path" d="M.714,2.661l.748.5A1.074,1.074,0,0,0,2,3.331a1.279,1.279,0,0,0,1.06-.283,1.081,1.081,0,0,0,.369-.4L3.572,2.3a1.476,1.476,0,0,0,0-.766l-.145-.343A1.428,1.428,0,0,0,2.912.68L2.163.18A1.478,1.478,0,0,0,.2.7l-.145.343a1.437,1.437,0,0,0,0,.766L.2,2.155a1.413,1.413,0,0,0,.517.505Z" transform="translate(2.251 7.716)" fill="#ed7a7a"/>
      <path id="Path-33" data-name="Path" d="M1.434,3.086a7.83,7.83,0,0,0,1.118-.1A5.237,5.237,0,0,0,3.3,2.82a1.074,1.074,0,0,0,.488-.256A1.474,1.474,0,0,0,4.3,1.055L4.161.711A1.434,1.434,0,0,0,2.54.052a5.426,5.426,0,0,1-.779.167L2.144.167a5.168,5.168,0,0,1-.708.048A1.472,1.472,0,0,0,0,1.651l.05.383a1.445,1.445,0,0,0,.369.634,1.5,1.5,0,0,0,1.016.421Z" transform="translate(0 14.308)" fill="#ed7a7a"/>
      <path id="Path-34" data-name="Path" d="M2.153,3.049l.873-.373a1.378,1.378,0,0,0,.685-1.43,1.074,1.074,0,0,0-.17-.534L3.317.421A1.445,1.445,0,0,0,2.683.052L2.3,0a1.437,1.437,0,0,0-.724.191L.7.565a1.378,1.378,0,0,0-.685,1.43,1.055,1.055,0,0,0,.17.534l.224.291a1.445,1.445,0,0,0,.634.369l.383.052a1.437,1.437,0,0,0,.725-.191Z" transform="translate(0.504 19.195)" fill="#ed7a7a"/>
    </g>
    <g id="Group-4" data-name="Group" transform="translate(72.838 18.265)">
      <path id="Path-35" data-name="Path" d="M1.437,2.871A1.452,1.452,0,0,0,2.872,1.436,1.459,1.459,0,0,0,1.437,0,1.452,1.452,0,0,0,0,1.436,1.46,1.46,0,0,0,1.437,2.871Z" transform="translate(0 15.036)" fill="#eac36e"/>
      <path id="Path-36" data-name="Path" d="M.411,2.442s.138.168.142.168S.317,2.293.484,2.523c.078.107.151.218.222.331a5.8,5.8,0,0,1,.367.71L.928,3.221a5.922,5.922,0,0,1,.406,1.47l-.052-.383a5.9,5.9,0,0,1,0,1.531l.05-.383A5.359,5.359,0,0,1,.995,6.72,1.437,1.437,0,0,0,3.1,8.342a1.684,1.684,0,0,0,.66-.858A7,7,0,0,0,2.436.419a1.439,1.439,0,0,0-2.031,0,1.472,1.472,0,0,0,0,2.029Z" transform="translate(3.64 12.159)" fill="#eac36e"/>
      <path id="Path-37" data-name="Path" d="M.411,2.444c.1.113.191.226.283.343.159.191-.2-.276-.044-.057l.111.149q.247.345.471.706A11.816,11.816,0,0,1,2,5.095l-.144-.343a12.129,12.129,0,0,1,.833,3.063l-.052-.383a11.882,11.882,0,0,1,0,3.1l.052-.383A11.431,11.431,0,0,1,2.2,12.234,1.446,1.446,0,0,0,3.2,14a1.472,1.472,0,0,0,1.767-1,13.186,13.186,0,0,0-.85-10.116A12.782,12.782,0,0,0,2.436.419a1.441,1.441,0,0,0-2.031,0,1.474,1.474,0,0,0,0,2.031Z" transform="translate(7.793 8.634)" fill="#eac36e"/>
      <path id="Path-38" data-name="Path" d="M.414,2.454c.163.191.323.383.48.574l.14.178c.122.153-.061-.1-.086-.113a1.311,1.311,0,0,1,.224.3q.454.62.858,1.275A20.113,20.113,0,0,1,3.419,7.36l-.145-.343a20.913,20.913,0,0,1,1.445,5.264L4.667,11.9a20.322,20.322,0,0,1,.01,5.379l.052-.383a19.388,19.388,0,0,1-.507,2.488,1.436,1.436,0,1,0,2.768.764,20.863,20.863,0,0,0,.574-8A22.416,22.416,0,0,0,5.1,4.247,20.9,20.9,0,0,0,2.435.419a1.437,1.437,0,0,0-2.029,0,1.472,1.472,0,0,0,0,2.031Z" transform="translate(11.822 3.726)" fill="#eac36e"/>
      <path id="Path-39" data-name="Path" d="M2.432,9.367l3.6-3.472,1.78-1.723L8.7,3.312l.444-.431.207-.191.136-.132c-.214.142-.26.191-.134.117l-.343.145.056-.01H8.3l.057.015-.634-.369.027.027L7.384,1.85V1.161L7.528.817l.18-.232L8.341.216H8.312l1.4.369L9.683.562A1.52,1.52,0,0,0,8.668.141,1.457,1.457,0,0,0,7.654.562a1.454,1.454,0,0,0,0,2.031A1.562,1.562,0,0,0,9.1,2.976,1.531,1.531,0,0,0,9.761.424,1.6,1.6,0,0,0,7.91.194a5.2,5.2,0,0,0-1.064.926l-.89.859L2.425,5.387.4,7.338A1.436,1.436,0,0,0,2.432,9.369Z" transform="translate(15.218 0)" fill="#eac36e"/>
      <path id="Path-40" data-name="Path" d="M2.448,7.373A12.933,12.933,0,0,1,3.887,6.047c.243-.191-.268.2-.021.015l.207-.153c.124-.094.253-.191.383-.276.268-.191.538-.383.81-.561,1.183-.8,2.372-1.594,3.556-2.393A1.459,1.459,0,0,0,9.336.716,1.46,1.46,0,0,0,7.373.2c-1.21.813-2.421,1.621-3.637,2.44a18.135,18.135,0,0,0-3.325,2.7,1.461,1.461,0,0,0,0,2.031,1.457,1.457,0,0,0,2.031,0Z" transform="translate(17.609 7.393)" fill="#eac36e"/>
      <path id="Path-41" data-name="Path" d="M.421,2.452A9.794,9.794,0,0,0,3.79,4.515,1.436,1.436,0,0,0,5.411,2.406l-.226-.291a1.414,1.414,0,0,0-.634-.368l-.3-.122.343.144A8.642,8.642,0,0,1,2.733.681l.291.224C2.833.752,2.641.591,2.45.421A1.5,1.5,0,0,0,1.436,0,1.466,1.466,0,0,0,.419.421a1.439,1.439,0,0,0,0,2.031Z" transform="translate(22.415 9.954)" fill="#eac36e"/>
      <path id="Path-42" data-name="Path" d="M.215,2.164a7.819,7.819,0,0,0,4.224,3.17A52.007,52.007,0,0,0,9.875,7.1a1.437,1.437,0,0,0,.764-2.77A46.738,46.738,0,0,1,4.9,2.442l.343.145a8.91,8.91,0,0,1-1.705-.913c-.088-.061-.268-.232.065.057-.061-.054-.126-.1-.191-.155-.115-.1-.224-.2-.329-.31-.056-.059-.109-.119-.163-.182-.207-.243.191.26.031.046A4.9,4.9,0,0,1,2.684.715,1.44,1.44,0,0,0,.2,2.164Z" transform="translate(17.612 13.632)" fill="#eac36e"/>
      <path id="Path-43" data-name="Path" d="M.184,2.158A13.728,13.728,0,0,0,3.9,5.59a34.582,34.582,0,0,0,4.475,2.13L11.1,8.907a1.575,1.575,0,0,0,1.106.144,1.432,1.432,0,0,0,1-1.765,1.388,1.388,0,0,0-.658-.858C11,5.755,9.452,5.089,7.91,4.409,7.2,4.093,6.484,3.766,5.8,3.381a10.761,10.761,0,0,1-.974-.611c-.067-.046-.134-.092-.191-.14s-.314-.237-.115-.082-.034-.029-.078-.063L4.2,2.277a12.147,12.147,0,0,1-.882-.836c-.14-.147-.276-.3-.408-.452C2.835.907,2.766.822,2.7.738L2.623.644c-.111-.134.224.295.05.065a1.587,1.587,0,0,0-.858-.66A1.468,1.468,0,0,0,.709.194a1.453,1.453,0,0,0-.66.858A1.4,1.4,0,0,0,.194,2.158Z" transform="translate(16.781 19.083)" fill="#eac36e"/>
    </g>
    <g id="Group-5" data-name="Group" transform="translate(122.114 11.976)">
      <path id="Path-44" data-name="Path" d="M2.436,2.571l.124-.124a1.48,1.48,0,0,0,0-2.031L2.269.191A1.437,1.437,0,0,0,1.546,0L1.163.052A1.445,1.445,0,0,0,.529.421L.4.546a1.476,1.476,0,0,0,0,2.031L.7,2.8a1.437,1.437,0,0,0,.725.191L1.8,2.94a1.445,1.445,0,0,0,.634-.369Z" transform="translate(0 7.859)" fill="#6573c9"/>
      <path id="Path-45" data-name="Path" d="M1.437,2.871A1.45,1.45,0,0,0,2.872,1.436,1.46,1.46,0,0,0,1.437,0,1.452,1.452,0,0,0,0,1.436,1.462,1.462,0,0,0,1.437,2.871Z" transform="translate(4.597 5.983)" fill="#6573c9"/>
      <path id="Path-46" data-name="Path" d="M1.437,2.871A1.452,1.452,0,0,0,2.872,1.436,1.46,1.46,0,0,0,1.437,0,1.451,1.451,0,0,0,0,1.436,1.46,1.46,0,0,0,1.437,2.871Z" transform="translate(9.587 4.362)" fill="#6573c9"/>
      <path id="Path-47" data-name="Path" d="M1.437,2.871A1.452,1.452,0,0,0,2.872,1.436,1.46,1.46,0,0,0,1.437,0,1.452,1.452,0,0,0,0,1.436,1.459,1.459,0,0,0,1.437,2.871Z" transform="translate(14.451 2.241)" fill="#6573c9"/>
      <path id="Path-48" data-name="Path" d="M1.437,2.871A1.451,1.451,0,0,0,2.872,1.436,1.459,1.459,0,0,0,1.437,0,1.451,1.451,0,0,0,0,1.436,1.46,1.46,0,0,0,1.437,2.871Z" transform="translate(20.187 0)" fill="#6573c9"/>
      <path id="Path-49" data-name="Path" d="M1.437,2.871A1.451,1.451,0,0,0,2.872,1.436,1.459,1.459,0,0,0,1.437,0,1.452,1.452,0,0,0,0,1.436,1.46,1.46,0,0,0,1.437,2.871Z" transform="translate(13.079 7.356)" fill="#6573c9"/>
      <path id="Path-50" data-name="Path" d="M1.437,2.871A1.452,1.452,0,0,0,2.872,1.436,1.46,1.46,0,0,0,1.437,0,1.452,1.452,0,0,0,0,1.436,1.46,1.46,0,0,0,1.437,2.871Z" transform="translate(18.566 5.359)" fill="#6573c9"/>
      <path id="Path-51" data-name="Path" d="M1.437,2.871A1.452,1.452,0,0,0,2.872,1.436,1.46,1.46,0,0,0,1.437,0,1.452,1.452,0,0,0,0,1.436,1.46,1.46,0,0,0,1.437,2.871Z" transform="translate(23.305 8.353)" fill="#6573c9"/>
      <path id="Path-52" data-name="Path" d="M1.437,2.871A1.451,1.451,0,0,0,2.872,1.436,1.459,1.459,0,0,0,1.437,0,1.452,1.452,0,0,0,0,1.436,1.46,1.46,0,0,0,1.437,2.871Z" transform="translate(17.818 10.349)" fill="#6573c9"/>
      <path id="Path-53" data-name="Path" d="M1.437,2.871A1.451,1.451,0,0,0,2.872,1.436,1.462,1.462,0,0,0,1.437,0,1.45,1.45,0,0,0,0,1.436,1.459,1.459,0,0,0,1.437,2.871Z" transform="translate(11.832 12.593)" fill="#6573c9"/>
      <path id="Path-54" data-name="Path" d="M1.437,2.871A1.452,1.452,0,0,0,2.872,1.436,1.46,1.46,0,0,0,1.437,0,1.452,1.452,0,0,0,0,1.436,1.46,1.46,0,0,0,1.437,2.871Z" transform="translate(22.433 13.217)" fill="#6573c9"/>
      <path id="Path-55" data-name="Path" d="M1.437,2.871A1.452,1.452,0,0,0,2.872,1.436,1.459,1.459,0,0,0,1.437,0,1.452,1.452,0,0,0,0,1.436,1.46,1.46,0,0,0,1.437,2.871Z" transform="translate(16.197 15.961)" fill="#6573c9"/>
      <path id="Path-56" data-name="Path" d="M1.437,2.871A1.452,1.452,0,0,0,2.872,1.436,1.46,1.46,0,0,0,1.437,0,1.452,1.452,0,0,0,0,1.436,1.46,1.46,0,0,0,1.437,2.871Z" transform="translate(10.585 17.956)" fill="#6573c9"/>
      <path id="Path-57" data-name="Path" d="M.529.421.4.547a1.06,1.06,0,0,0-.3.461A1.474,1.474,0,0,0,.4,2.576L.7,2.8a1.437,1.437,0,0,0,.724.191L1.8,2.94a1.428,1.428,0,0,0,.632-.369l.126-.124a1.585,1.585,0,0,0,.419-1.014A1.074,1.074,0,0,0,2.856.879a1.1,1.1,0,0,0-.3-.463L2.269.191A1.418,1.418,0,0,0,1.543,0L1.161.052A1.424,1.424,0,0,0,.527.419Z" transform="translate(26.441 16.708)" fill="#6573c9"/>
      <path id="Path-58" data-name="Path" d="M1.437,2.871A1.452,1.452,0,0,0,2.872,1.436,1.46,1.46,0,0,0,1.437,0,1.452,1.452,0,0,0,0,1.436,1.46,1.46,0,0,0,1.437,2.871Z" transform="translate(20.936 18.829)" fill="#6573c9"/>
      <path id="Path-59" data-name="Path" d="M.67.421.421.67a1.072,1.072,0,0,0-.3.461,1.292,1.292,0,0,0,0,1.106,1.06,1.06,0,0,0,.3.461l.291.226a1.416,1.416,0,0,0,.724.191l.383-.052A1.428,1.428,0,0,0,2.452,2.7L2.7,2.446A1.072,1.072,0,0,0,3,1.985,1.292,1.292,0,0,0,3,.879,1.06,1.06,0,0,0,2.7.417L2.41.191A1.416,1.416,0,0,0,1.686,0L1.3.052A1.428,1.428,0,0,0,.67.421Z" transform="translate(24.304 22.322)" fill="#6573c9"/>
    </g>
    <g id="Group-6" data-name="Group" transform="translate(114.194 72.416)">
      <path id="Path-60" data-name="Path" d="M.448,1.437Q.4,5.246,0,9.039a1.436,1.436,0,0,0,2.452,1.014,1.646,1.646,0,0,0,.419-1.014q.406-3.79.448-7.6A1.455,1.455,0,0,0,1.883,0,1.46,1.46,0,0,0,.448,1.437Z" transform="translate(0 15.26)" fill="#ed7a7a"/>
      <path id="Path-61" data-name="Path" d="M.517,1.437,0,9.918a1.445,1.445,0,0,0,1.436,1.436A1.472,1.472,0,0,0,2.873,9.918l.515-8.481A1.445,1.445,0,0,0,1.952,0,1.47,1.47,0,0,0,.517,1.437Z" transform="translate(6.016 11.143)" fill="#ed7a7a"/>
      <path id="Path-62" data-name="Path" d="M1.437,2.871A1.452,1.452,0,0,0,2.872,1.436,1.46,1.46,0,0,0,1.437,0,1.451,1.451,0,0,0,0,1.436,1.46,1.46,0,0,0,1.437,2.871Z" transform="translate(11.895 9.15)" fill="#ed7a7a"/>
      <path id="Path-63" data-name="Path" d="M1.437,2.871A1.452,1.452,0,0,0,2.872,1.436,1.46,1.46,0,0,0,1.437,0,1.452,1.452,0,0,0,0,1.436,1.46,1.46,0,0,0,1.437,2.871Z" transform="translate(12.019 14.017)" fill="#ed7a7a"/>
      <path id="Path-64" data-name="Path" d="M.489,2.45,2.35,4.306l.913.911c.153.151.308.3.457.456.05.05.1.111.147.159-.145-.191-.178-.237-.1-.117a.936.936,0,0,1,.065.122l-.145-.343a1.06,1.06,0,0,1,.056.2L3.7,5.315a.808.808,0,0,1,0,.167l.05-.383a1.579,1.579,0,0,1-.092.322L3.8,5.078A22.257,22.257,0,0,1,2.212,8.014c-.289.459-.593.911-.911,1.351l-.255.345c-.063.086-.366.461-.086.119-.191.222-.356.448-.538.668l2.253,1.74.3-.4A1.436,1.436,0,0,0,1.358,9.723a1.675,1.675,0,0,0-.858.66l-.3.4a1.424,1.424,0,0,0-.144,1.106,1.481,1.481,0,0,0,.513.745,1.422,1.422,0,0,0,1.885-.113,27.7,27.7,0,0,0,3-4.36c.2-.364.383-.731.574-1.1a3.924,3.924,0,0,0,.547-1.709c0-1.168-1.064-1.96-1.816-2.71L2.522.415a1.448,1.448,0,0,0-2.029,0,1.459,1.459,0,0,0,0,2.029Z" transform="translate(15.864 6.235)" fill="#ed7a7a"/>
      <path id="Path-65" data-name="Path" d="M1.437,2.871A1.451,1.451,0,0,0,2.872,1.436,1.46,1.46,0,0,0,1.437,0,1.452,1.452,0,0,0,0,1.436,1.46,1.46,0,0,0,1.437,2.871Z" transform="translate(22.619 4.784)" fill="#ed7a7a"/>
      <path id="Path-66" data-name="Path" d="M5.742.7C3.4,4.424,1.939,8.61.316,12.677A3.022,3.022,0,0,0,0,13.768,1.57,1.57,0,0,0,1.531,15.38a1.552,1.552,0,0,0,1.5-1.531,1.476,1.476,0,0,0-1.868-1.434,1.463,1.463,0,0,0-1,1.767,1.455,1.455,0,0,0,1.765,1h.027L.85,15.039H.867l-.658-.858V14.2l-.052-.383v.029l.052-.383v.031l.145-.343.191-.241.634-.369h.708l.634.369.167.207.191.725a.281.281,0,0,1,0-.113l-.05.383a5.815,5.815,0,0,1,.293-.766l.322-.812.62-1.585c.417-1.068.84-2.136,1.286-3.195L5.206,8.1A41.116,41.116,0,0,1,8.221,2.15,1.449,1.449,0,0,0,7.706.186,1.464,1.464,0,0,0,5.742.7Z" transform="translate(24.04)" fill="#ed7a7a"/>
      <path id="Path-67" data-name="Path" d="M2.87,1.563V1.436A1.6,1.6,0,0,0,2.449.422a1.072,1.072,0,0,0-.461-.3A1.1,1.1,0,0,0,1.435,0L1.052.053A1.436,1.436,0,0,0,.418.422L.192.713A1.436,1.436,0,0,0,0,1.436v.126a1.083,1.083,0,0,0,.124.553,1.055,1.055,0,0,0,.3.461,1.072,1.072,0,0,0,.461.3A1.1,1.1,0,0,0,1.437,3l.383-.052a1.436,1.436,0,0,0,.634-.369l.226-.291a1.436,1.436,0,0,0,.191-.724Z" transform="translate(29.481 9.647)" fill="#ed7a7a"/>
    </g>
    <g id="Group-7" data-name="Group" transform="translate(11.857 6.6)">
      <path id="Path-68" data-name="Path" d="M.728,1.167c-.1.015.1-.011.1,0l.126-.011h.322a3.176,3.176,0,0,1,.322.015,1.325,1.325,0,0,1,.23.031,2.9,2.9,0,0,1,.6.17l.033.013c.056.027.109.054.161.084s.071.04.1.061c0,0,.147.1.078.048a1.235,1.235,0,0,1,.513.829,3.566,3.566,0,0,1-.161,1.311,7.886,7.886,0,0,0-.268,1.491,2.894,2.894,0,0,0,.383,1.558c.124.226.27.444.383.679-.033-.071.019.046.025.063.017.048.033.1.048.144s.021.078.031.119.038.191.034.163a2.268,2.268,0,0,1-.121,1.1A2.385,2.385,0,0,1,3.038,10a1.793,1.793,0,0,1-.48.329s-.163.092-.086.04c-.065.044-.013.01.056,0-.17,0,.015-.017-.01,0-.057-.034-.057-.033,0,.011.142.191.107.406-.1.657a.574.574,0,0,0,.207-.787.588.588,0,0,0-.787-.2.683.683,0,0,0-.291.94,1.068,1.068,0,0,0,.727.5,2.015,2.015,0,0,0,1.6-.7A3.568,3.568,0,0,0,4.91,7.694a5.3,5.3,0,0,0-.7-1.625,2.162,2.162,0,0,1-.077-1.531A10.719,10.719,0,0,0,4.466,2.79,2.528,2.528,0,0,0,3.9,1.038,3.787,3.787,0,0,0,.42.06a.578.578,0,0,0-.4.706.588.588,0,0,0,.706.4Z" transform="translate(12.205 63.837)" fill="#c4c4c4"/>
      <path id="Path-69" data-name="Path" d="M.857,1.688a6.487,6.487,0,0,1,6.02.479,6.258,6.258,0,0,1,2.81,5.344,6.091,6.091,0,0,1-.2,1.579,7.229,7.229,0,0,1-.626,1.516,1.914,1.914,0,0,0-.268,1,1.608,1.608,0,0,0,.511,1,5.373,5.373,0,0,1,.924,1.125,6.412,6.412,0,0,1-.138,5.92C8.619,22.119,6.3,23.826,4.124,25.434a.591.591,0,0,0-.2.785.574.574,0,0,0,.785.207,21.763,21.763,0,0,0,5.761-5.467,8.042,8.042,0,0,0,.991-6.826,5.652,5.652,0,0,0-.806-1.52,6.125,6.125,0,0,0-.611-.687c-.163-.155-.341-.27-.293-.484a4.641,4.641,0,0,1,.41-.852A7.824,7.824,0,0,0,10.5,9.7a7.67,7.67,0,0,0,.322-1.8A7.478,7.478,0,0,0,7.941,1.514,7.444,7.444,0,0,0,.285.7a.574.574,0,0,0-.207.785.588.588,0,0,0,.787.207Z" transform="translate(12.522 56.578)" fill="#c4c4c4"/>
      <path id="Path-70" data-name="Path" d="M.708,7.56A17.65,17.65,0,0,0,8.351,2.9,17.946,17.946,0,0,0,10.012.9.574.574,0,1,0,9.02.321,16.516,16.516,0,0,1,2.6,5.629a15.843,15.843,0,0,1-2.2.831.574.574,0,0,0,.3,1.106Z" transform="translate(16.519 83.306)" fill="#c4c4c4"/>
      <path id="Path-71" data-name="Path" d="M.555,1.148A.575.575,0,0,0,.555,0,.575.575,0,0,0,.555,1.148Z" transform="translate(28.435 79.319)" fill="#c4c4c4"/>
      <path id="Path-72" data-name="Path" d="M.555,1.148A.575.575,0,0,0,.555,0,.575.575,0,0,0,.555,1.148Z" transform="translate(29.681 73.326)" fill="#c4c4c4"/>
      <path id="Path-73" data-name="Path" d="M.555,1.148A.575.575,0,0,0,.555,0,.575.575,0,0,0,.555,1.148Z" transform="translate(28.941 67.595)" fill="#c4c4c4"/>
      <path id="Path-74" data-name="Path" d="M20.133,13.08C20.6,9.1,19.251,4.659,16.016,2.132A10.055,10.055,0,0,0,10.576.027a8.877,8.877,0,0,0-2.9.255A8.267,8.267,0,0,0,6.3.777c-.452.2-.863.479-1.3.706a2.8,2.8,0,0,1-.731.278.928.928,0,0,1-.283.015.459.459,0,0,1-.17-.063c-.191-.121-.274-.327-.44-.534A1.326,1.326,0,0,0,2.7.7a1.583,1.583,0,0,0-1.392.44l-.23.191c-.078.063.107-.075-.029.023-.04.029-.08.057-.124.084L.82,1.5c-.038.019-.029.015.033-.011a.743.743,0,0,1-.086.027c0,.033-.071-.01.025,0H.813a.48.48,0,0,1-.088-.031.574.574,0,0,0-.706.4.586.586,0,0,0,.4.706,1.279,1.279,0,0,0,1.169-.222c.168-.119.325-.255.488-.383-.082.065.09-.063.115-.08s.073-.04.107-.063c.094-.065-.077.011.036-.019a.775.775,0,0,1,.09-.023c-.161.034.077.025-.078,0,.031,0,.057.033.021,0,.13.128-.029-.038.052.033a5.428,5.428,0,0,1,.408.524,1.629,1.629,0,0,0,1.39.574A8.821,8.821,0,0,0,6.943,1.755a7.346,7.346,0,0,1,2.521-.574,8.782,8.782,0,0,1,5.111,1.351A9.486,9.486,0,0,1,18.122,6.81a12.235,12.235,0,0,1,.863,6.292.578.578,0,0,0,.574.574.588.588,0,0,0,.574-.574Z" transform="translate(8.861 47.498)" fill="#c4c4c4"/>
      <path id="Path-75" data-name="Path" d="M.983,1.223,1.231.974A.413.413,0,0,0,1.35.783a.521.521,0,0,0,0-.444A.413.413,0,0,0,1.231.147L1.116.057A.574.574,0,0,0,.824,0L.672.023A.574.574,0,0,0,.418.17L.169.419A.436.436,0,0,0,.05.61.415.415,0,0,0,0,.83a.421.421,0,0,0,.05.222.431.431,0,0,0,.119.191l.117.09a.574.574,0,0,0,.289.078l.153-.019a.574.574,0,0,0,.253-.149Z" transform="translate(8.957 43.656)" fill="#c4c4c4"/>
      <path id="Path-76" data-name="Path" d="M.705,2.651A17.619,17.619,0,0,0,5.083,1.09.574.574,0,1,0,4.509.1,16.516,16.516,0,0,1,.4,1.545.574.574,0,0,0,.711,2.651Z" transform="translate(28.939 55.611)" fill="#c4c4c4"/>
      <path id="Path-77" data-name="Path" d="M.269.414A5.606,5.606,0,0,0,1.517,5.965c.509.538,1.319-.276.812-.813A4.429,4.429,0,0,1,1.372.728.575.575,0,0,0,.263.422Z" transform="translate(57.962 69.637)" fill="#c4c4c4"/>
      <path id="Path-78" data-name="Path" d="M1.663.248C.626,1.735-.276,3.434.078,5.3A3.461,3.461,0,0,0,1.259,7.356a2.105,2.105,0,0,1,.371.306.574.574,0,0,1,.025.457c-.073.364-.161.72-.212,1.089a7.642,7.642,0,0,0,.622,4.567,4.818,4.818,0,0,0,1.478,1.7c.373.268.806.45,1.169.731a3.763,3.763,0,0,1,.766.865,21.273,21.273,0,0,0,1.79,2.439A12.648,12.648,0,0,0,9.62,21.505a.574.574,0,1,0,.574-.991,11.867,11.867,0,0,1-3.445-3.587,5.731,5.731,0,0,0-1.818-1.941,7.737,7.737,0,0,1-.976-.63,3.732,3.732,0,0,1-.609-.668A4.67,4.67,0,0,1,2.6,11.86a5.876,5.876,0,0,1-.113-.978A8.185,8.185,0,0,1,2.519,9.8a7.124,7.124,0,0,1,.144-.946A3.143,3.143,0,0,0,2.791,7.5a1.868,1.868,0,0,0-.777-1A2.216,2.216,0,0,1,1.4,5.71a3.28,3.28,0,0,1-.126-2.274A8.68,8.68,0,0,1,2.643.827.574.574,0,0,0,1.652.253Z" transform="translate(50.248 64.871)" fill="#c4c4c4"/>
      <path id="Path-79" data-name="Path" d="M.556,1.148A.575.575,0,0,0,.556,0,.575.575,0,0,0,.556,1.148Z" transform="translate(61.862 89.297)" fill="#c4c4c4"/>
      <path id="Path-80" data-name="Path" d="M.556,1.148A.575.575,0,0,0,.556,0,.575.575,0,0,0,.556,1.148Z" transform="translate(61.862 77.324)" fill="#c4c4c4"/>
      <path id="Path-81" data-name="Path" d="M.556,1.148A.575.575,0,0,0,.556,0,.575.575,0,0,0,.556,1.148Z" transform="translate(63.355 81.064)" fill="#c4c4c4"/>
      <path id="Path-82" data-name="Path" d="M3.485.075C.794,1.648-.142,5.019.017,7.959A39.574,39.574,0,0,0,1,13.747a25.578,25.578,0,0,1,.442,2.77c.071.766.1,1.531.134,2.3.122,3,.209,6.452,2.59,8.632a16.67,16.67,0,0,0,4.087,2.329,8.535,8.535,0,0,1,1.9,1.194,7.189,7.189,0,0,1,1.434,1.87,16.524,16.524,0,0,0,2.693,4.142A8.169,8.169,0,0,0,18.7,39.133a8.039,8.039,0,0,0,1.267.09.575.575,0,0,0,0-1.148A7.1,7.1,0,0,1,15.722,36.7,9.883,9.883,0,0,1,13,33.031a13.517,13.517,0,0,0-1.273-2.056,6.956,6.956,0,0,0-1.761-1.568c-1.282-.813-2.751-1.281-4.044-2.077a5.742,5.742,0,0,1-1.6-1.407,6.316,6.316,0,0,1-.884-1.679,14.932,14.932,0,0,1-.664-4.27,47.263,47.263,0,0,0-.35-4.8c-.285-1.872-.794-3.7-1.085-5.578A11.988,11.988,0,0,1,1.4,5.1,6.493,6.493,0,0,1,3.3,1.623a4.739,4.739,0,0,1,.766-.549A.573.573,0,0,0,3.489.082Z" transform="translate(42.888 60.08)" fill="#c4c4c4"/>
      <path id="Path-83" data-name="Path" d="M1.651,3.174a1.081,1.081,0,0,1-.383-.433c-.013-.027-.029-.054-.04-.08,0,.011.023.057,0,0a1.406,1.406,0,0,1-.054-.174c0-.029-.034-.191-.027-.117a1.284,1.284,0,0,1,0-.211.7.7,0,0,1,.05-.266,1,1,0,0,1,.138-.27c.048-.073,0-.013.059-.077s.084-.088.128-.13a1.361,1.361,0,0,1,.256-.17l.08-.042c-.011,0-.057.023,0,0a1.134,1.134,0,0,1,.174-.052l.09-.019h.31c-.011,0-.086-.013-.019,0l.155.034.149.05c.063.023,0,0-.015,0l.094.048a1.949,1.949,0,0,1,.27.17c-.071-.054.033.029.054.048s.1.086.14.132c.08.08.155.167.228.255h0l.052.071c.04.056.078.113.117.17a6.479,6.479,0,0,1,.423.766,7.486,7.486,0,0,1,.293.714.591.591,0,0,0,.706.4.574.574,0,0,0,.4-.706C5.061,2.138,4.443.752,3.258.224A2.306,2.306,0,0,0,1.2.262,2.28,2.28,0,0,0,.006,2.046a2.314,2.314,0,0,0,1.076,2.13.574.574,0,0,0,.574-.991Z" transform="translate(39.482 118.144)" fill="#c4c4c4"/>
      <path id="Path-84" data-name="Path" d="M.556,1.148A.575.575,0,0,0,.556,0,.575.575,0,0,0,.556,1.148Z" transform="translate(45.146 123.719)" fill="#c4c4c4"/>
      <path id="Path-85" data-name="Path" d="M1.165,9.785a2.255,2.255,0,0,1,.191-1.311,2.2,2.2,0,0,1,.358-.536c.18-.191.4-.341.574-.536a1.664,1.664,0,0,0,.172-1.8,1.929,1.929,0,0,1-.027-1.323A4.162,4.162,0,0,1,4.273,2.217,7.256,7.256,0,0,1,7.4,1.179a4.575,4.575,0,0,1,3,.706,4.81,4.81,0,0,1,1.608,2.029,5.742,5.742,0,0,1,.465,2.605,5.131,5.131,0,0,0,0,1.453A1.34,1.34,0,0,0,13.69,9.061a1.736,1.736,0,0,1,.4.069l.048.021a1.824,1.824,0,0,1,.161.1,2.06,2.06,0,0,1,.465.6,8.839,8.839,0,0,1,.748,1.771,10.145,10.145,0,0,1,.4,3.953.574.574,0,0,0,.574.574.586.586,0,0,0,.574-.574,11.031,11.031,0,0,0-.327-3.931,11.437,11.437,0,0,0-.67-1.807A4.018,4.018,0,0,0,15.07,8.4a1.914,1.914,0,0,0-.794-.412c-.161-.034-.329-.029-.488-.061-.023,0-.124-.046-.084-.027-.059-.038-.065-.042-.019-.011-.04-.046-.05-.054-.025-.027-.01.025-.033-.078,0,0-.019-.056-.036-.111-.05-.167-.04-.176,0,.1-.013-.09V7.476a6.785,6.785,0,0,1,.05-.766,6.732,6.732,0,0,0-.459-3.034,6.045,6.045,0,0,0-1.818-2.528A5.444,5.444,0,0,0,8.009,0,8.464,8.464,0,0,0,4.285.911,6.125,6.125,0,0,0,1.706,3.162a3.445,3.445,0,0,0-.519,1.8,3.177,3.177,0,0,0,.174.957c.067.191.228.511.122.679a1.659,1.659,0,0,1-.322.289,2.988,2.988,0,0,0-.333.327A3.325,3.325,0,0,0,.3,8.035,3.541,3.541,0,0,0,.056,10.1a.574.574,0,0,0,.706.4.588.588,0,0,0,.4-.706Z" transform="translate(34.398 109.356)" fill="#c4c4c4"/>
      <path id="Path-86" data-name="Path" d="M1.155,17.277a2.37,2.37,0,0,1,.266-1.265c.228-.486.5-.957.7-1.451A4.226,4.226,0,0,0,2.4,12.806c-.021-.565-.1-1.125-.09-1.692A9.484,9.484,0,0,1,3.905,6.066,10.615,10.615,0,0,1,13.15,1.151a12.144,12.144,0,0,1,9.243,5.513,11.814,11.814,0,0,1,1.25,2.479A25.707,25.707,0,0,0,24.7,12.36a18.208,18.208,0,0,0,2.079,2.68,22.236,22.236,0,0,1,1.8,2.733A22.909,22.909,0,0,1,31.458,30.09q-.04.8-.142,1.591a.58.58,0,0,0,.574.574.588.588,0,0,0,.574-.574,23.9,23.9,0,0,0-2.216-13.174,22.8,22.8,0,0,0-1.661-2.9,30.845,30.845,0,0,0-2.13-2.726,5.463,5.463,0,0,1-.882-1.34,12.367,12.367,0,0,1-.523-1.723,13.064,13.064,0,0,0-1.135-2.84A13.473,13.473,0,0,0,14.458.146,11,11,0,0,0,8.562.8a12.25,12.25,0,0,0-4.72,3.445A11.247,11.247,0,0,0,1.318,9.508a10.476,10.476,0,0,0-.151,1.547c-.01.559.059,1.112.086,1.669A3.413,3.413,0,0,1,1,14.293c-.22.5-.5.974-.712,1.481a3.158,3.158,0,0,0-.278,1.51.591.591,0,0,0,.574.574.574.574,0,0,0,.574-.574Z" transform="translate(29.365 99.577)" fill="#c4c4c4"/>
      <path id="Path-87" data-name="Path" d="M1.147,23.137A8.064,8.064,0,0,1,2.6,19.154a13.45,13.45,0,0,0,1.217-1.748A5.936,5.936,0,0,0,4.335,15.1a10.185,10.185,0,0,1,.234-1.985,5.444,5.444,0,0,1,.664-1.531,8.01,8.01,0,0,1,2.4-2.4A12.25,12.25,0,0,1,10.912,7.65c.651-.191,1.325-.308,1.971-.515A4.634,4.634,0,0,0,14.8,5.952c.469-.473.869-1.009,1.34-1.485A10.106,10.106,0,0,1,17.477,3.3a11.469,11.469,0,0,1,10.269-1.56,6.9,6.9,0,0,1,.792.314.6.6,0,0,0,.787-.207.574.574,0,0,0-.207-.787A12.3,12.3,0,0,0,21.462.292,12.166,12.166,0,0,0,14.84,4.155a8.146,8.146,0,0,1-1.416,1.453,6.01,6.01,0,0,1-2.063.72,14.164,14.164,0,0,0-3.6,1.418A8.309,8.309,0,0,0,3.3,13.679c-.1.754-.063,1.531-.2,2.278a4.315,4.315,0,0,1-.93,1.885A11.609,11.609,0,0,0,.917,19.757a9.231,9.231,0,0,0-.756,2.211A10.606,10.606,0,0,0,0,23.144a.574.574,0,0,0,.574.574.586.586,0,0,0,.574-.574Z" transform="translate(21.546 88.191)" fill="#c4c4c4"/>
      <path id="Path-88" data-name="Path" d="M.555,1.148A.575.575,0,0,0,.555,0,.575.575,0,0,0,.555,1.148Z" transform="translate(51.881 90.294)" fill="#c4c4c4"/>
      <path id="Path-89" data-name="Path" d="M.556,1.148A.575.575,0,0,0,.556,0,.575.575,0,0,0,.556,1.148Z" transform="translate(53.876 92.29)" fill="#c4c4c4"/>
      <path id="Path-90" data-name="Path" d="M.025.724,1.033,3.39l.5,1.34a6.866,6.866,0,0,0,.519,1.2A5.553,5.553,0,0,0,3.929,7.4,5.551,5.551,0,0,1,5.353,8.83a5.857,5.857,0,0,1,.924,2.186.575.575,0,0,0,1.108-.3,6.919,6.919,0,0,0-3.181-4.5,5.779,5.779,0,0,1-.9-.574,2.134,2.134,0,0,1-.528-.88c-.168-.438-.333-.879-.5-1.319L1.127.418a.59.59,0,0,0-.706-.4.574.574,0,0,0-.4.706Z" transform="translate(58.965 98.486)" fill="#c4c4c4"/>
      <path id="Path-91" data-name="Path" d="M1.121,20.148a10.424,10.424,0,0,1,4.02-5.262c1-.67,2.1-1.187,3.089-1.868a8.342,8.342,0,0,0,1.414-1.191,15.121,15.121,0,0,0,1.089-1.4A8.364,8.364,0,0,1,11.767,9.2a3.78,3.78,0,0,1,1.3-.766,9.594,9.594,0,0,0,3.166-1.367,7.211,7.211,0,0,0,1.646-2.848c.1-.239.214-.477.341-.7a4.2,4.2,0,0,1,.394-.59,4.008,4.008,0,0,1,1-.877,6.422,6.422,0,0,1,2.929-.869,11.747,11.747,0,0,1,3.357.268.586.586,0,0,0,.706-.4.574.574,0,0,0-.4-.706,10.633,10.633,0,0,0-6.4.32,5.415,5.415,0,0,0-2.362,1.926c-.634.932-.856,2.046-1.443,2.992a2.7,2.7,0,0,1-1.055.982,8.688,8.688,0,0,1-1.56.563,7.593,7.593,0,0,0-1.617.653,5.082,5.082,0,0,0-1.353,1.2,18.243,18.243,0,0,1-2.257,2.68,27.153,27.153,0,0,1-3.062,1.914A11.808,11.808,0,0,0,.021,19.847a.575.575,0,0,0,1.108.3Z" transform="translate(17.625 76.801)" fill="#c4c4c4"/>
      <path id="Path-92" data-name="Path" d="M1.677.248C-.075,2.832-.237,6.112.214,9.108c.515,3.422,1.761,6.686,2.192,10.127.249,1.985.335,3.985.421,5.981a.574.574,0,0,0,1.148,0c-.075-1.748-.151-3.5-.335-5.239A37.665,37.665,0,0,0,2.7,14.785C1.939,11.69.94,8.578,1.183,5.347A9.22,9.22,0,0,1,2.668.827.574.574,0,0,0,1.677.253Z" transform="translate(32.359 54.204)" fill="#c4c4c4"/>
      <path id="Path-93" data-name="Path" d="M.727,2.987,5.3,2c1.474-.316,2.948-.662,4.446-.848a.593.593,0,0,0,.574-.574A.577.577,0,0,0,9.75,0C8.181.194,6.636.539,5.091.872L.421,1.879a.574.574,0,0,0-.4.706.586.586,0,0,0,.706.4Z" transform="translate(34.187 65.152)" fill="#c4c4c4"/>
      <path id="Path-94" data-name="Path" d="M.021.724,3,8.709a.59.59,0,0,0,.706.4.574.574,0,0,0,.4-.706L1.127.419a.59.59,0,0,0-.706-.4.574.574,0,0,0-.4.706Z" transform="translate(57.856 2.494)" fill="#c4c4c4"/>
      <path id="Path-95" data-name="Path" d="M0,.574V3.063a.574.574,0,0,0,1.148,0V.574A.574.574,0,0,0,0,.574Z" transform="translate(64.584 3.991)" fill="#c4c4c4"/>
      <path id="Path-96" data-name="Path" d="M.555,1.148A.575.575,0,0,0,.555,0,.575.575,0,0,0,.555,1.148Z" transform="translate(64.351)" fill="#c4c4c4"/>
      <path id="Path-97" data-name="Path" d="M.113.574a91.5,91.5,0,0,1,.09,10.7Q.126,12.786,0,14.3a.574.574,0,0,0,1.148,0A91.492,91.492,0,0,0,1.414,3.6C1.38,2.592,1.328,1.581,1.261.574A.588.588,0,0,0,.687,0,.574.574,0,0,0,.113.574Z" transform="translate(95.49 3.237)" fill="#c4c4c4"/>
      <path id="Path-98" data-name="Path" d="M.037.574A8.782,8.782,0,0,0,.558,4.466a.59.59,0,0,0,.706.4.574.574,0,0,0,.4-.706A7.873,7.873,0,0,1,1.186.574.574.574,0,0,0,.612,0,.59.59,0,0,0,.037.574Z" transform="translate(89.751 10.227)" fill="#c4c4c4"/>
      <path id="Path-99" data-name="Path" d="M.556,1.148A.575.575,0,0,0,.556,0,.575.575,0,0,0,.556,1.148Z" transform="translate(87.799 4.739)" fill="#c4c4c4"/>
      <path id="Path-100" data-name="Path" d="M.947.574A17.38,17.38,0,0,1,.021,4.927a.575.575,0,0,0,1.108.3A18.624,18.624,0,0,0,2.1.574.574.574,0,0,0,1.521,0,.586.586,0,0,0,.947.574Z" transform="translate(101.04 9.228)" fill="#c4c4c4"/>
      <path id="Path-101" data-name="Path" d="M.555,1.148A.575.575,0,0,0,.555,0,.575.575,0,0,0,.555,1.148Z" transform="translate(102.517 2.992)" fill="#c4c4c4"/>
      <path id="Path-102" data-name="Path" d="M5.921.285A54.229,54.229,0,0,1,.162,8.563a.59.59,0,0,0,0,.812.574.574,0,0,0,.812,0A55.818,55.818,0,0,0,6.907.859.573.573,0,0,0,5.916.285Z" transform="translate(144.849 23.227)" fill="#c4c4c4"/>
      <path id="Path-103" data-name="Path" d="M.556,1.148A.575.575,0,0,0,.556,0,.575.575,0,0,0,.556,1.148Z" transform="translate(151.654 32.924)" fill="#c4c4c4"/>
      <path id="Path-104" data-name="Path" d="M.555,1.148A.575.575,0,0,0,.555,0,.575.575,0,0,0,.555,1.148Z" transform="translate(154.398 28.435)" fill="#c4c4c4"/>
      <path id="Path-105" data-name="Path" d="M.172.977,5.722,6.39c.53.515,1.34-.3.813-.813L.983.166C.455-.351-.357.46.172.977Z" transform="translate(1.662 22.763)" fill="#c4c4c4"/>
      <path id="Path-106" data-name="Path" d="M.555,1.148A.575.575,0,0,0,.555,0,.575.575,0,0,0,.555,1.148Z" transform="translate(0 32.173)" fill="#c4c4c4"/>
    </g>
    <g id="Group-8" data-name="Group" transform="translate(7.982 2.245)">
      <path id="Path-107" data-name="Path" d="M1.437,2.871A1.451,1.451,0,0,0,2.872,1.436,1.462,1.462,0,0,0,1.437,0,1.451,1.451,0,0,0,0,1.436,1.459,1.459,0,0,0,1.437,2.871Z" transform="translate(6.984 15.215)" fill="#81e2d2"/>
      <path id="Path-108" data-name="Path" d="M1.437,2.871A1.452,1.452,0,0,0,2.872,1.436,1.46,1.46,0,0,0,1.437,0,1.452,1.452,0,0,0,0,1.436,1.46,1.46,0,0,0,1.437,2.871Z" transform="translate(93.288)" fill="#81e2d2"/>
      <path id="Path-109" data-name="Path" d="M1.206.191.706.44A1.083,1.083,0,0,0,.3.81,1.279,1.279,0,0,0,.021,1.87a1.055,1.055,0,0,0,.17.534L.416,2.7a1.445,1.445,0,0,0,.634.369l.383.052a1.437,1.437,0,0,0,.724-.191l.5-.249a1.081,1.081,0,0,0,.4-.369,1.093,1.093,0,0,0,.256-.488A1.6,1.6,0,0,0,3.17.712L2.944.421A1.428,1.428,0,0,0,2.312.052L1.93,0a1.437,1.437,0,0,0-.724.191Z" transform="translate(166.877 25.447)" fill="#81e2d2"/>
      <path id="Path-110" data-name="Path" d="M1.437,2.871A1.452,1.452,0,0,0,2.872,1.436,1.46,1.46,0,0,0,1.437,0,1.451,1.451,0,0,0,0,1.436,1.46,1.46,0,0,0,1.437,2.871Z" transform="translate(0 60.364)" fill="#81e2d2"/>
      <path id="Path-111" data-name="Path" d="M2.867,1.933v-.5A1.612,1.612,0,0,0,2.446.419,1.585,1.585,0,0,0,1.432,0L1.049.052A1.407,1.407,0,0,0,.417.419L.191.71A1.418,1.418,0,0,0,0,1.436v.5A1.585,1.585,0,0,0,.421,2.95a1.06,1.06,0,0,0,.461.3,1.078,1.078,0,0,0,.553.123l.383-.05a1.436,1.436,0,0,0,.634-.369l.224-.291a1.437,1.437,0,0,0,.191-.725Z" transform="translate(161.638 55.625)" fill="#81e2d2"/>
    </g>
    <g id="Group-9" data-name="Group" transform="translate(5.985 0.492)">
      <path id="Path-112" data-name="Path" d="M1.437,2.871A1.451,1.451,0,0,0,2.872,1.436,1.459,1.459,0,0,0,1.437,0,1.452,1.452,0,0,0,0,1.436,1.46,1.46,0,0,0,1.437,2.871Z" transform="translate(0 47.899)" fill="#eac36e"/>
      <path id="Path-113" data-name="Path" d="M1.437,2.871A1.45,1.45,0,0,0,2.872,1.436,1.46,1.46,0,0,0,1.437,0,1.452,1.452,0,0,0,0,1.436,1.46,1.46,0,0,0,1.437,2.871Z" transform="translate(42.653 7.49)" fill="#eac36e"/>
      <path id="Path-114" data-name="Path" d="M1.437,2.871A1.452,1.452,0,0,0,2.872,1.436,1.462,1.462,0,0,0,1.437,0,1.45,1.45,0,0,0,0,1.436,1.459,1.459,0,0,0,1.437,2.871Z" transform="translate(19.207 6.492)" fill="#eac36e"/>
      <path id="Path-115" data-name="Path" d="M1.437,2.871A1.452,1.452,0,0,0,2.872,1.436,1.462,1.462,0,0,0,1.437,0,1.45,1.45,0,0,0,0,1.436,1.46,1.46,0,0,0,1.437,2.871Z" transform="translate(108.255 0)" fill="#eac36e"/>
      <path id="Path-116" data-name="Path" d="M1.437,2.871A1.452,1.452,0,0,0,2.872,1.436,1.46,1.46,0,0,0,1.437,0,1.452,1.452,0,0,0,0,1.436,1.46,1.46,0,0,0,1.437,2.871Z" transform="translate(119.489 7.241)" fill="#eac36e"/>
      <path id="Path-117" data-name="Path" d="M1.437,2.871A1.45,1.45,0,0,0,2.872,1.436,1.46,1.46,0,0,0,1.437,0,1.452,1.452,0,0,0,0,1.436,1.462,1.462,0,0,0,1.437,2.871Z" transform="translate(165.618 43.409)" fill="#eac36e"/>
      <path id="Path-118" data-name="Path" d="M1.437,2.871A1.452,1.452,0,0,0,2.872,1.436,1.46,1.46,0,0,0,1.437,0,1.452,1.452,0,0,0,0,1.436,1.46,1.46,0,0,0,1.437,2.871Z" transform="translate(173.849 58.875)" fill="#eac36e"/>
    </g>
    <g id="Group-10" data-name="Group" transform="translate(1.994 0)">
      <path id="Path-119" data-name="Path" d="M1.437,2.871A1.451,1.451,0,0,0,2.872,1.436,1.459,1.459,0,0,0,1.437,0,1.452,1.452,0,0,0,0,1.436,1.46,1.46,0,0,0,1.437,2.871Z" transform="translate(0 34.179)" fill="#ed7a7a"/>
      <path id="Path-120" data-name="Path" d="M1.437,2.871A1.452,1.452,0,0,0,2.872,1.436,1.46,1.46,0,0,0,1.437,0,1.452,1.452,0,0,0,0,1.436,1.459,1.459,0,0,0,1.437,2.871Z" transform="translate(83.311)" fill="#ed7a7a"/>
      <path id="Path-121" data-name="Path" d="M1.437,2.871A1.452,1.452,0,0,0,2.872,1.436,1.46,1.46,0,0,0,1.437,0,1.451,1.451,0,0,0,0,1.436,1.459,1.459,0,0,0,1.437,2.871Z" transform="translate(36.668 0.748)" fill="#ed7a7a"/>
      <path id="Path-122" data-name="Path" d="M1.437,2.871A1.45,1.45,0,0,0,2.872,1.436,1.459,1.459,0,0,0,1.437,0,1.452,1.452,0,0,0,0,1.436,1.462,1.462,0,0,0,1.437,2.871Z" transform="translate(155.397 18.459)" fill="#ed7a7a"/>
      <path id="Path-123" data-name="Path" d="M1.437,2.871A1.452,1.452,0,0,0,2.872,1.436,1.462,1.462,0,0,0,1.437,0,1.451,1.451,0,0,0,0,1.436,1.46,1.46,0,0,0,1.437,2.871Z" transform="translate(165.875 69.842)" fill="#ed7a7a"/>
    </g>
    <g id="Group-11" data-name="Group" transform="translate(0 5.738)">
      <path id="Path-124" data-name="Path" d="M1.437,2.871A1.452,1.452,0,0,0,2.872,1.436,1.462,1.462,0,0,0,1.437,0,1.451,1.451,0,0,0,0,1.436,1.459,1.459,0,0,0,1.437,2.871Z" transform="translate(10.227 66.847)" fill="#6573c9"/>
      <path id="Path-125" data-name="Path" d="M1.437,2.871A1.452,1.452,0,0,0,2.872,1.436,1.46,1.46,0,0,0,1.437,0,1.451,1.451,0,0,0,0,1.436,1.46,1.46,0,0,0,1.437,2.871Z" transform="translate(0 14.218)" fill="#6573c9"/>
      <path id="Path-126" data-name="Path" d="M1.437,2.871A1.452,1.452,0,0,0,2.872,1.436,1.462,1.462,0,0,0,1.437,0,1.451,1.451,0,0,0,0,1.436,1.46,1.46,0,0,0,1.437,2.871Z" transform="translate(59.116 1.994)" fill="#6573c9"/>
      <path id="Path-127" data-name="Path" d="M1.437,2.871A1.452,1.452,0,0,0,2.872,1.436,1.46,1.46,0,0,0,1.437,0,1.452,1.452,0,0,0,0,1.436,1.46,1.46,0,0,0,1.437,2.871Z" transform="translate(135.692)" fill="#6573c9"/>
      <path id="Path-128" data-name="Path" d="M1.437,2.871A1.451,1.451,0,0,0,2.872,1.436,1.46,1.46,0,0,0,1.437,0,1.452,1.452,0,0,0,0,1.436,1.46,1.46,0,0,0,1.437,2.871Z" transform="translate(168.367 10.724)" fill="#6573c9"/>
      <path id="Path-129" data-name="Path" d="M1.437,2.871A1.451,1.451,0,0,0,2.872,1.436,1.46,1.46,0,0,0,1.437,0,1.452,1.452,0,0,0,0,1.436,1.46,1.46,0,0,0,1.437,2.871Z" transform="translate(174.603 61.11)" fill="#6573c9"/>
    </g>
  </g>
</svg>
