<svg id="app-store" xmlns="http://www.w3.org/2000/svg" width="208" height="60.349" viewBox="0 0 208 60.349">
  <g id="Group_67" data-name="Group 67" transform="translate(0 0)">
    <rect id="Rectangle_90" data-name="Rectangle 90" width="208" height="60.349" rx="7.382"/>
  </g>
  <g id="Group_68" data-name="Group 68" transform="translate(66.207 8.979)">
    <path id="Path_3999" data-name="Path 3999" d="M97.543,35.762l-.872,2.881H94.762l3.247-10.169h2.36l3.292,10.169h-1.984l-.917-2.881Zm2.9-1.4-.8-2.5c-.2-.619-.361-1.313-.511-1.9h-.03c-.15.589-.3,1.3-.481,1.9l-.781,2.5Z" transform="translate(-94.762 -27.915)" fill="#fff"/>
    <path id="Path_4000" data-name="Path 4000" d="M106.759,31.393l1.187,3.727c.211.649.361,1.237.5,1.84h.045c.135-.6.3-1.176.5-1.84l1.172-3.727h1.939l-2.8,7.348H107.48l-2.721-7.348Z" transform="translate(-95.096 -28.013)" fill="#fff"/>
    <path id="Path_4001" data-name="Path 4001" d="M119.768,36.97a9.876,9.876,0,0,0,.121,1.765h-1.669l-.134-.815h-.045a2.672,2.672,0,0,1-2.165.981,2.176,2.176,0,0,1-2.3-2.188c0-1.84,1.638-2.79,4.344-2.776v-.121c0-.482-.2-1.282-1.488-1.282a3.861,3.861,0,0,0-1.97.543l-.361-1.207a5.251,5.251,0,0,1,2.645-.649c2.346,0,3.021,1.493,3.021,3.107Zm-1.8-1.826c-1.308-.015-2.556.256-2.556,1.373a.972.972,0,0,0,1.053,1.055,1.518,1.518,0,0,0,1.458-1.011,1.246,1.246,0,0,0,.045-.407Z" transform="translate(-95.391 -28.007)" fill="#fff"/>
    <path id="Path_4002" data-name="Path 4002" d="M123.6,30.231a1.046,1.046,0,1,1,.015,0Zm-.917,8.4V31.287h1.849v7.348Z" transform="translate(-95.692 -27.907)" fill="#fff"/>
    <path id="Path_4003" data-name="Path 4003" d="M127.35,27.9H129.2V38.624H127.35Z" transform="translate(-95.852 -27.896)" fill="#fff"/>
    <path id="Path_4004" data-name="Path 4004" d="M137.695,36.97a9.977,9.977,0,0,0,.12,1.765h-1.668l-.135-.815h-.045a2.67,2.67,0,0,1-2.164.981,2.177,2.177,0,0,1-2.3-2.188c0-1.84,1.639-2.79,4.344-2.776v-.121c0-.482-.194-1.282-1.488-1.282a3.855,3.855,0,0,0-1.969.543l-.361-1.207a5.248,5.248,0,0,1,2.645-.649c2.345,0,3.021,1.493,3.021,3.107Zm-1.8-1.826c-1.307-.015-2.555.256-2.555,1.373a.972.972,0,0,0,1.052,1.055,1.516,1.516,0,0,0,1.458-1.011,1.246,1.246,0,0,0,.045-.407Z" transform="translate(-95.991 -28.007)" fill="#fff"/>
    <path id="Path_4005" data-name="Path 4005" d="M140.611,27.9h1.849v4.391h.03a2.647,2.647,0,0,1,2.345-1.176c1.789,0,3.066,1.493,3.051,3.726,0,2.641-1.668,3.953-3.322,3.953a2.517,2.517,0,0,1-2.315-1.268h-.03l-.091,1.1h-1.577c.03-.5.06-1.313.06-2.052Zm1.849,7.695a2.057,2.057,0,0,0,.044.438,1.691,1.691,0,0,0,1.638,1.3c1.158,0,1.864-.92,1.864-2.414,0-1.3-.617-2.354-1.849-2.354a1.719,1.719,0,0,0-1.638,1.358,2.229,2.229,0,0,0-.06.483Z" transform="translate(-96.294 -27.896)" fill="#fff"/>
    <path id="Path_4006" data-name="Path 4006" d="M150.392,27.9h1.849V38.624h-1.849Z" transform="translate(-96.623 -27.896)" fill="#fff"/>
    <path id="Path_4007" data-name="Path 4007" d="M156.364,35.582a1.991,1.991,0,0,0,2.254,1.9,5.875,5.875,0,0,0,2.03-.332l.271,1.267a6.553,6.553,0,0,1-2.555.468,3.47,3.47,0,0,1-3.774-3.712c0-2.037,1.233-3.952,3.578-3.952,2.375,0,3.156,1.961,3.156,3.575a4.734,4.734,0,0,1-.059.785Zm3.217-1.3a1.578,1.578,0,0,0-1.518-1.795,1.812,1.812,0,0,0-1.7,1.795Z" transform="translate(-96.763 -28.007)" fill="#fff"/>
    <path id="Path_4008" data-name="Path 4008" d="M170.867,38.9a3.547,3.547,0,0,1-3.669-3.787,3.621,3.621,0,0,1,3.789-3.892,3.519,3.519,0,0,1,3.638,3.771,3.63,3.63,0,0,1-3.743,3.908Zm.06-1.344c1.052,0,1.789-1.026,1.789-2.519,0-1.147-.512-2.474-1.774-2.474-1.309,0-1.835,1.283-1.835,2.5,0,1.418.707,2.489,1.8,2.489Z" transform="translate(-97.185 -28.007)" fill="#fff"/>
    <path id="Path_4009" data-name="Path 4009" d="M177.132,33.576c0-.846-.03-1.554-.06-2.188h1.608l.09,1.1h.045a2.683,2.683,0,0,1,2.345-1.267c1.278,0,2.6.829,2.6,3.153v4.36h-1.848V34.587c0-1.056-.391-1.857-1.4-1.857a1.554,1.554,0,0,0-1.443,1.086,1.737,1.737,0,0,0-.09.589v4.33h-1.849Z" transform="translate(-97.515 -28.007)" fill="#fff"/>
    <path id="Path_4010" data-name="Path 4010" d="M192.707,29.442v1.886h1.759v1.388h-1.759v3.229c0,.9.241,1.358.947,1.358a2.412,2.412,0,0,0,.721-.075l.03,1.4a4.023,4.023,0,0,1-1.338.2,2.113,2.113,0,0,1-1.593-.6,2.9,2.9,0,0,1-.586-2.067v-3.44h-1.038V31.328h1.038V29.955Z" transform="translate(-97.943 -27.948)" fill="#fff"/>
    <path id="Path_4011" data-name="Path 4011" d="M196.755,27.9H198.6v4.376h.03a2.44,2.44,0,0,1,.917-.829,2.6,2.6,0,0,1,1.278-.332c1.247,0,2.556.829,2.556,3.183v4.33h-1.849V34.49c0-1.056-.391-1.871-1.413-1.871a1.544,1.544,0,0,0-1.443,1.041,1.681,1.681,0,0,0-.075.559v4.406h-1.849Z" transform="translate(-98.174 -27.896)" fill="#fff"/>
    <path id="Path_4012" data-name="Path 4012" d="M207.624,35.582a1.992,1.992,0,0,0,2.255,1.9,5.869,5.869,0,0,0,2.029-.332l.271,1.267a6.546,6.546,0,0,1-2.555.468,3.469,3.469,0,0,1-3.773-3.712c0-2.037,1.232-3.952,3.578-3.952,2.374,0,3.156,1.961,3.156,3.575a4.606,4.606,0,0,1-.06.785Zm3.217-1.3a1.578,1.578,0,0,0-1.517-1.795,1.813,1.813,0,0,0-1.7,1.795Z" transform="translate(-98.478 -28.007)" fill="#fff"/>
  </g>
  <g id="Group_71" data-name="Group 71" transform="translate(19.018 8.383)">
    <g id="Group_69" data-name="Group 69">
      <path id="Path_4013" data-name="Path 4013" d="M72.912,48.8a9.05,9.05,0,0,1,4.3-7.6,9.223,9.223,0,0,0-7.276-3.949C66.872,36.933,63.9,39.1,62.345,39.1c-1.589,0-3.995-1.808-6.579-1.756a9.687,9.687,0,0,0-8.153,4.992c-3.524,6.126-.9,15.128,2.481,20.083,1.69,2.424,3.664,5.132,6.249,5.036,2.528-.105,3.47-1.616,6.523-1.616,3.024,0,3.911,1.616,6.546,1.555,2.713-.044,4.42-2.437,6.05-4.884a20.021,20.021,0,0,0,2.77-5.658A8.74,8.74,0,0,1,72.912,48.8" transform="translate(-45.94 -27.613)" fill="#fff"/>
      <path id="Path_4014" data-name="Path 4014" d="M68.486,33.666a8.917,8.917,0,0,0,2.031-6.386,9.017,9.017,0,0,0-5.844,3.036,8.494,8.494,0,0,0-2.087,6.15,7.463,7.463,0,0,0,5.9-2.8" transform="translate(-46.495 -27.28)" fill="#fff"/>
    </g>
    <g id="Group_70" data-name="Group 70" transform="translate(46.085 18.408)">
      <path id="Path_4015" data-name="Path 4015" d="M111.045,67.366h-3.521l-1.93-6.088h-6.7l-1.839,6.088H93.62l6.648-20.721h4.1Zm-6.031-8.642-1.744-5.411q-.281-.826-1.043-3.9h-.061q-.307,1.324-.982,3.9l-1.716,5.411Z" transform="translate(-93.62 -46.336)" fill="#fff"/>
      <path id="Path_4016" data-name="Path 4016" d="M128.835,59.9a8.514,8.514,0,0,1-2.052,6.026,5.99,5.99,0,0,1-4.562,1.966,4.565,4.565,0,0,1-4.229-2.122h-.058v7.87h-3.31V57.531q0-2.4-.122-4.918h2.908l.185,2.368h.063a5.869,5.869,0,0,1,9.417-.584,8.261,8.261,0,0,1,1.76,5.5m-3.368.122a6.182,6.182,0,0,0-.98-3.6,3.386,3.386,0,0,0-2.877-1.477,3.431,3.431,0,0,0-2.221.815,3.792,3.792,0,0,0-1.3,2.14,4.328,4.328,0,0,0-.152,1.011v2.493a4,4,0,0,0,.992,2.75,3.294,3.294,0,0,0,2.589,1.121,3.37,3.37,0,0,0,2.908-1.443,6.364,6.364,0,0,0,1.043-3.813" transform="translate(-94.319 -46.525)" fill="#fff"/>
      <path id="Path_4017" data-name="Path 4017" d="M146.547,59.9a8.51,8.51,0,0,1-2.053,6.026,5.985,5.985,0,0,1-4.563,1.966,4.558,4.558,0,0,1-4.224-2.122h-.061v7.87h-3.308V57.531q0-2.4-.122-4.918h2.907l.186,2.368h.063a5.868,5.868,0,0,1,9.416-.584,8.26,8.26,0,0,1,1.758,5.5m-3.367.122a6.162,6.162,0,0,0-.982-3.6,3.383,3.383,0,0,0-2.877-1.477,3.433,3.433,0,0,0-2.221.815,3.788,3.788,0,0,0-1.3,2.14,4.205,4.205,0,0,0-.155,1.011v2.493a3.982,3.982,0,0,0,.994,2.75,3.286,3.286,0,0,0,2.59,1.121,3.375,3.375,0,0,0,2.908-1.443,6.4,6.4,0,0,0,1.042-3.813" transform="translate(-94.911 -46.525)" fill="#fff"/>
      <path id="Path_4018" data-name="Path 4018" d="M166.406,61.543a5.525,5.525,0,0,1-1.835,4.3,8.1,8.1,0,0,1-5.62,1.813,9.841,9.841,0,0,1-5.353-1.289l.766-2.767a9.043,9.043,0,0,0,4.782,1.32,4.517,4.517,0,0,0,2.913-.844,2.777,2.777,0,0,0,1.038-2.265,2.9,2.9,0,0,0-.855-2.124,7.984,7.984,0,0,0-2.852-1.6q-5.421-2.034-5.418-5.943a5.26,5.26,0,0,1,1.9-4.186,7.477,7.477,0,0,1,5.054-1.635,10,10,0,0,1,4.685.985l-.825,2.705a8.137,8.137,0,0,0-3.953-.952,3.982,3.982,0,0,0-2.724.86,2.471,2.471,0,0,0-.825,1.875,2.528,2.528,0,0,0,.947,2.028,10.658,10.658,0,0,0,3,1.6,10.194,10.194,0,0,1,3.921,2.52,5.3,5.3,0,0,1,1.255,3.6" transform="translate(-95.626 -46.325)" fill="#fff"/>
      <path id="Path_4019" data-name="Path 4019" d="M177.848,54.985H174.2V62.24q0,2.768,1.931,2.766a5.977,5.977,0,0,0,1.467-.152l.091,2.52a7.4,7.4,0,0,1-2.57.368,3.955,3.955,0,0,1-3.063-1.2,5.905,5.905,0,0,1-1.1-4.029V54.985h-2.175V52.493h2.175V49.759l3.247-.985v3.719h3.645Z" transform="translate(-96.134 -46.407)" fill="#fff"/>
      <path id="Path_4020" data-name="Path 4020" d="M194.674,59.961a8.217,8.217,0,0,1-1.959,5.657,6.989,6.989,0,0,1-5.451,2.273,6.641,6.641,0,0,1-5.222-2.183,7.951,7.951,0,0,1-1.946-5.5,8.128,8.128,0,0,1,2.007-5.688,6.918,6.918,0,0,1,5.4-2.215,6.793,6.793,0,0,1,5.269,2.182,7.889,7.889,0,0,1,1.9,5.473m-3.431.107a6.754,6.754,0,0,0-.889-3.545,3.263,3.263,0,0,0-2.968-1.788,3.311,3.311,0,0,0-3.033,1.788,6.883,6.883,0,0,0-.885,3.609,6.741,6.741,0,0,0,.885,3.543,3.333,3.333,0,0,0,3.005,1.787,3.3,3.3,0,0,0,2.966-1.818,6.746,6.746,0,0,0,.919-3.576" transform="translate(-96.513 -46.525)" fill="#fff"/>
      <path id="Path_4021" data-name="Path 4021" d="M206.024,55.532a5.942,5.942,0,0,0-1.04-.091,3.134,3.134,0,0,0-2.7,1.323,4.994,4.994,0,0,0-.825,2.95v7.839h-3.306l.028-10.235q0-2.584-.122-4.705h2.88l.122,2.861h.089a5.113,5.113,0,0,1,1.655-2.368,4,4,0,0,1,2.391-.8,5.436,5.436,0,0,1,.825.059Z" transform="translate(-97.114 -46.525)" fill="#fff"/>
      <path id="Path_4022" data-name="Path 4022" d="M221.145,59.375a8.1,8.1,0,0,1-.119,1.507H211.1a4.346,4.346,0,0,0,1.437,3.383,4.9,4.9,0,0,0,3.248,1.042A10.959,10.959,0,0,0,219.8,64.6l.519,2.306a12.4,12.4,0,0,1-4.993.924,7.209,7.209,0,0,1-5.436-2.046,7.576,7.576,0,0,1-1.975-5.488,8.586,8.586,0,0,1,1.839-5.627,6.326,6.326,0,0,1,5.2-2.4,5.545,5.545,0,0,1,4.874,2.4,8.105,8.105,0,0,1,1.312,4.705m-3.154-.861a4.5,4.5,0,0,0-.641-2.551,2.891,2.891,0,0,0-2.637-1.384,3.141,3.141,0,0,0-2.632,1.353,4.922,4.922,0,0,0-.977,2.582Z" transform="translate(-97.443 -46.524)" fill="#fff"/>
    </g>
  </g>
</svg>
