<svg xmlns="http://www.w3.org/2000/svg" xmlns:xlink="http://www.w3.org/1999/xlink" width="60" height="60" viewBox="0 0 60 60">
  <defs>
    <clipPath id="clip-path">
      <rect id="Rectangle_2357" data-name="Rectangle 2357" width="36" height="36" transform="translate(-24412 -5069)" fill="none" stroke="#707070" stroke-width="1"/>
    </clipPath>
  </defs>
  <g id="discord" transform="translate(-1270 -6372)">
    <g id="Ellipse_306" data-name="Ellipse 306" transform="translate(1270 6372)" fill="#fff" stroke="#fff" stroke-width="3">
      <circle cx="30" cy="30" r="30" stroke="none"/>
      <circle cx="30" cy="30" r="28.5" fill="none"/>
    </g>
    <g id="Component_393_1" data-name="Component 393 – 1" transform="translate(1282 6384)">
      <g id="Mask_Group_199" data-name="Mask Group 199" transform="translate(24412 5069)" clip-path="url(#clip-path)">
        <g id="_016-discord" data-name="016-discord" transform="translate(-24405 -5063)">
          <path id="Path_5846" data-name="Path 5846" d="M3.58,21.2H17.839l-.681-2.2C17.259,19.079,23,24,23,24V2.475A2.654,2.654,0,0,0,20.352,0L3.585,0A2.553,2.553,0,0,0,1,2.48V18.72A2.5,2.5,0,0,0,3.58,21.2ZM14.128,5.683l-.033.012.012-.012ZM6.5,6.952a6.169,6.169,0,0,1,3.532-1.27l.137.135a7.279,7.279,0,0,0-3.26,1.537,11.355,11.355,0,0,1,10.121.066A8.225,8.225,0,0,0,13.9,5.883l.186-.183a6.175,6.175,0,0,1,3.479,1.26,15.437,15.437,0,0,1,1.844,7.02,5.329,5.329,0,0,1-3.931,1.726s-.472-.534-.808-1a4.039,4.039,0,0,0,2.24-1.4c-3.173,2-5.954,1.686-9.281.336a.077.077,0,0,1-.061-.03V13.6a.08.08,0,0,0-.061-.03H7.45a3.378,3.378,0,0,0-.34-.2,4.014,4.014,0,0,0,2.174,1.4c-.411.469-.818,1-.818,1a4.447,4.447,0,0,1-3.8-1.806A15.473,15.473,0,0,1,6.5,6.952Z" transform="translate(-1 0)" fill="#5c6bc0"/>
          <path id="Path_5847" data-name="Path 5847" d="M14.308,12.771a1.338,1.338,0,0,0,0-2.675v0a1.337,1.337,0,0,0,0,2.672Z" transform="translate(-1 0)" fill="#5c6bc0"/>
          <path id="Path_5848" data-name="Path 5848" d="M9.69,12.771a1.338,1.338,0,0,0,0-2.675l0,0a1.337,1.337,0,0,0,0,2.672Z" transform="translate(-1 0)" fill="#5c6bc0"/>
        </g>
      </g>
    </g>
  </g>
</svg>
