<svg id="play-store" xmlns="http://www.w3.org/2000/svg" xmlns:xlink="http://www.w3.org/1999/xlink" width="208" height="60.125" viewBox="0 0 208 60.125">
  <defs>
    <linearGradient id="linear-gradient" x1="0.808" y1="0.5" x2="-1.573" y2="0.5" gradientUnits="objectBoundingBox">
      <stop offset="0" stop-color="gold"/>
      <stop offset="0.075" stop-color="#fece00"/>
      <stop offset="0.48" stop-color="#fca704"/>
      <stop offset="0.803" stop-color="#fa8e07"/>
      <stop offset="1" stop-color="#fa8608"/>
    </linearGradient>
    <linearGradient id="linear-gradient-2" x1="0.862" y1="0.178" x2="-0.501" y2="1.948" gradientUnits="objectBoundingBox">
      <stop offset="0" stop-color="#e82b36"/>
      <stop offset="1" stop-color="#b4005a"/>
    </linearGradient>
    <linearGradient id="linear-gradient-3" x1="-0.507" y1="-0.956" x2="0.606" y2="0.489" gradientUnits="objectBoundingBox">
      <stop offset="0" stop-color="#2f8e5b"/>
      <stop offset="0.39" stop-color="#4ea157"/>
      <stop offset="0.768" stop-color="#67b054"/>
      <stop offset="1" stop-color="#70b653"/>
    </linearGradient>
  </defs>
  <g id="Group_73" data-name="Group 73" transform="translate(0 0)">
    <rect id="Rectangle_91" data-name="Rectangle 91" width="208" height="60.125" rx="7.382"/>
  </g>
  <g id="Group_75" data-name="Group 75" transform="translate(14.849 10.339)">
    <path id="Path_4023" data-name="Path 4023" d="M133.621,129.338a6.588,6.588,0,1,0,6.613,6.588A6.493,6.493,0,0,0,133.621,129.338Zm0,10.58a4,4,0,1,1,3.718-3.992A3.812,3.812,0,0,1,133.621,139.918ZM119.2,129.338a6.588,6.588,0,1,0,6.612,6.588A6.493,6.493,0,0,0,119.2,129.338Zm0,10.58a4,4,0,1,1,3.717-3.992A3.811,3.811,0,0,1,119.2,139.918Zm-17.159-8.559v2.795h6.687a5.833,5.833,0,0,1-1.521,3.519,6.85,6.85,0,0,1-5.165,2.045,7.436,7.436,0,0,1,0-14.871,7.127,7.127,0,0,1,5.04,2l1.971-1.971a9.749,9.749,0,0,0-7.011-2.82,10.232,10.232,0,1,0,0,20.461,9.356,9.356,0,0,0,7.137-2.87,9.238,9.238,0,0,0,2.42-6.538,9.083,9.083,0,0,0-.15-1.747Zm70.174,2.171a6.123,6.123,0,0,0-5.64-4.192,6.26,6.26,0,0,0-6.212,6.588,6.446,6.446,0,0,0,6.537,6.588,6.552,6.552,0,0,0,5.49-2.92l-2.246-1.5a3.764,3.764,0,0,1-3.244,1.822,3.35,3.35,0,0,1-3.193-2l8.808-3.643Zm-8.983,2.2a3.614,3.614,0,0,1,3.444-3.843,2.55,2.55,0,0,1,2.445,1.4Zm-7.161,6.387h2.894V122.751h-2.894Zm-4.742-11.3h-.1a4.567,4.567,0,0,0-3.469-1.472,6.594,6.594,0,0,0,0,13.175,4.493,4.493,0,0,0,3.469-1.5h.1v.948c0,2.521-1.347,3.868-3.518,3.868a3.644,3.644,0,0,1-3.318-2.346l-2.521,1.048a6.279,6.279,0,0,0,5.839,3.893c3.393,0,6.263-2,6.263-6.862V129.737h-2.745Zm-3.318,9.108a4.007,4.007,0,0,1,0-7.985c1.971,0,3.519,1.7,3.519,4.018A3.682,3.682,0,0,1,148.008,139.918Zm37.762-17.167h-6.925v19.362h2.889v-7.336h4.036a6.022,6.022,0,1,0,0-12.026Zm.075,9.332h-4.111v-6.638h4.111a3.32,3.32,0,1,1,0,6.638ZM203.7,129.3a5.426,5.426,0,0,0-5.157,2.964l2.566,1.072a2.737,2.737,0,0,1,2.64-1.42,2.783,2.783,0,0,1,3.039,2.491v.2a6.4,6.4,0,0,0-3.015-.747c-2.765,0-5.579,1.52-5.579,4.359,0,2.59,2.267,4.259,4.808,4.259a4.075,4.075,0,0,0,3.686-1.893h.1v1.495h2.79v-7.423C209.583,131.22,207.017,129.3,203.7,129.3Zm-.349,10.612c-.947,0-2.267-.474-2.267-1.644,0-1.495,1.644-2.068,3.064-2.068a5.149,5.149,0,0,1,2.64.648A3.5,3.5,0,0,1,203.356,139.914Zm16.391-10.188-3.314,8.394h-.1l-3.438-8.394h-3.113l5.156,11.733L212,147.985h3.014l7.946-18.259Zm-26.031,12.388H196.6V122.751h-2.889Z" transform="translate(-43.538 -106.723)" fill="#fff"/>
    <g id="Group_74" data-name="Group 74">
      <path id="Path_4024" data-name="Path 4024" d="M42.4,106.768a3.1,3.1,0,0,0-.715,2.174v34.226a3.1,3.1,0,0,0,.715,2.173l.115.113L61.69,126.281v-.453L42.517,106.656Z" transform="translate(-41.687 -106.153)" fill="#40bff2"/>
      <path id="Path_4025" data-name="Path 4025" d="M68.849,133.166l-6.39-6.393v-.453l6.392-6.392.143.082,7.572,4.3c2.163,1.229,2.163,3.239,0,4.468l-7.572,4.3Z" transform="translate(-42.456 -106.644)" fill="url(#linear-gradient)"/>
      <path id="Path_4026" data-name="Path 4026" d="M68.253,133.338,61.717,126.8,42.43,146.087c.714.755,1.89.848,3.216.1l22.607-12.845" transform="translate(-41.715 -106.899)" fill="url(#linear-gradient-2)"/>
      <path id="Path_4027" data-name="Path 4027" d="M68.253,119.5,45.646,106.654c-1.326-.754-2.5-.66-3.216.094l19.287,19.287Z" transform="translate(-41.715 -106.133)" fill="url(#linear-gradient-3)"/>
    </g>
  </g>
  <g id="Group_76" data-name="Group 76" transform="translate(63.613 10.026)">
    <path id="Path_4028" data-name="Path 4028" d="M99.123,107.831a3.309,3.309,0,0,0-2.195-.846,3.5,3.5,0,0,0,0,7,2.642,2.642,0,0,0,2.909-2.46H97.246V110.45h3.993c0,3.2-1.706,4.708-4.311,4.708a4.675,4.675,0,0,1,0-9.349,4.5,4.5,0,0,1,3.081,1.2Z" transform="translate(-92.326 -105.808)" fill="#fff"/>
    <path id="Path_4029" data-name="Path 4029" d="M108.723,105.918v1.15h-4.166v2.91h3.637v1.151h-3.637v2.75h4.3v1.151h-5.527v-9.112Z" transform="translate(-92.733 -105.812)" fill="#fff"/>
    <path id="Path_4030" data-name="Path 4030" d="M116.953,105.918v1.163h-2.765v7.948h-1.242v-7.948h-2.765v-1.163Z" transform="translate(-92.987 -105.812)" fill="#fff"/>
    <path id="Path_4031" data-name="Path 4031" d="M123.293,105.918v9.112h-1.23v-9.112Z" transform="translate(-93.427 -105.812)" fill="#fff"/>
    <path id="Path_4032" data-name="Path 4032" d="M131.787,105.918v1.163h-2.765v7.948H127.78v-7.948h-2.765v-1.163Z" transform="translate(-93.537 -105.812)" fill="#fff"/>
    <path id="Path_4033" data-name="Path 4033" d="M140.88,105.808a4.675,4.675,0,1,1-4.6,4.682A4.621,4.621,0,0,1,140.88,105.808Zm0,8.159a3.486,3.486,0,1,0-3.372-3.477A3.4,3.4,0,0,0,140.88,113.967Z" transform="translate(-93.954 -105.808)" fill="#fff"/>
    <path id="Path_4034" data-name="Path 4034" d="M153.212,115.03l-4.152-6.863v6.863h-1.23v-9.112h1.216l4.113,6.81v-6.81h1.23v9.112Z" transform="translate(-94.382 -105.812)" fill="#fff"/>
  </g>
</svg>
