<svg xmlns="http://www.w3.org/2000/svg" xmlns:xlink="http://www.w3.org/1999/xlink" width="60" height="60" viewBox="0 0 60 60">
  <defs>
    <clipPath id="clip-path">
      <rect id="Rectangle_2364" data-name="Rectangle 2364" width="36" height="36" transform="translate(-7188 8810)" fill="none" stroke="#707070" stroke-width="1"/>
    </clipPath>
  </defs>
  <g id="twitter" transform="translate(-1120 -6372)">
    <g id="Ellipse_306" data-name="Ellipse 306" transform="translate(1120 6372)" fill="#fff" stroke="#fff" stroke-width="3">
      <circle cx="30" cy="30" r="30" stroke="none"/>
      <circle cx="30" cy="30" r="28.5" fill="none"/>
    </g>
    <g id="Component_384_19" data-name="Component 384 – 19" transform="translate(1132 6384)">
      <g id="Mask_Group_215" data-name="Mask Group 215" transform="translate(7188 -8810)" clip-path="url(#clip-path)">
        <path id="_096-twitter" data-name="096-twitter" d="M21.552,7.749c0-.217-.008-.428-.018-.636A9.822,9.822,0,0,0,24,4.559h0a10.276,10.276,0,0,1-2.835.777A4.894,4.894,0,0,0,23.33,2.616a9.845,9.845,0,0,1-3.12,1.191A4.92,4.92,0,0,0,11.7,7.171a5.066,5.066,0,0,0,.114,1.122A13.93,13.93,0,0,1,1.671,3.146,4.92,4.92,0,0,0,3.183,9.722,4.863,4.863,0,0,1,.96,9.116V9.17A4.943,4.943,0,0,0,4.9,14.005a5.2,5.2,0,0,1-2.221.078,4.969,4.969,0,0,0,4.6,3.428,9.89,9.89,0,0,1-6.1,2.1A9.306,9.306,0,0,1,0,19.542,13.856,13.856,0,0,0,7.548,21.75a13.907,13.907,0,0,0,14-14Z" transform="translate(-7182 8816)" fill="#58b4f9"/>
      </g>
    </g>
  </g>
</svg>
