<svg id="Connect.Up_Logo" data-name="Connect.Up Logo" xmlns="http://www.w3.org/2000/svg" width="304" height="45.36" viewBox="0 0 304 45.36">
  <g id="Group_1407" data-name="Group 1407" transform="translate(237.192 1.283)" style="isolation: isolate">
    <path id="Path_1804" data-name="Path 1804" d="M1281.9,756.371v8.358h-5.927l-2.381,1.642v-10Z" transform="translate(-1273.59 -756.371)" fill="#f8855c"/>
  </g>
  <g id="Group_1413" data-name="Group 1413" transform="translate(262.257 1.283)" style="isolation: isolate">
    <path id="Path_1804-2" data-name="Path 1804" d="M1273.59,756.371v8.358h5.927l2.381,1.642v-10Z" transform="translate(-1273.59 -756.371)" fill="#f8855c"/>
  </g>
  <path id="Path_1805" data-name="Path 1805" d="M1298.664,820.52v10.508c0,6.469-3.95,9.732-8.415,9.732-4.294,0-8.358-3.263-8.358-9.732V820.52h-8.3v8.847c0,11.965,5.9,19.006,16.659,19.006,10.877,0,16.716-7.041,16.716-19.006V820.52Z" transform="translate(-1036.398 -803.013)" fill="#f8855c" style="isolation: isolate"/>
  <g id="Group_1415" data-name="Group 1415">
    <path id="Path_1806" data-name="Path 1806" d="M368.328,761.368a16.36,16.36,0,0,0-8.928-2.5,15.016,15.016,0,1,0,0,30.024,16.358,16.358,0,0,0,8.928-2.5v8.018a21.393,21.393,0,0,1-9.383,2.047c-13.306,0-23.2-10.122-23.2-22.632,0-12.453,9.894-22.518,23.2-22.518a21.578,21.578,0,0,1,9.383,2.047Z" transform="translate(-335.745 -751.303)" fill="#22282f"/>
    <path id="Path_1807" data-name="Path 1807" d="M523.293,773.821c0,12.51-10.122,22.632-23.143,22.632-13.136,0-23.2-10.122-23.2-22.632,0-12.453,10.065-22.518,23.2-22.518C513.171,751.3,523.293,761.368,523.293,773.821Zm-38.042,0a14.87,14.87,0,1,0,14.9-14.955A14.842,14.842,0,0,0,485.251,773.821Z" transform="translate(-441.237 -751.303)" fill="#22282f"/>
    <path id="Path_1808" data-name="Path 1808" d="M897.632,756.7h23.144v7.165h-14.9v9.894h13.477v7.165H905.877v11.031h15.354v7.165h-23.6Z" transform="translate(-755.525 -755.334)" fill="#22282f"/>
    <path id="Path_1809" data-name="Path 1809" d="M1034.993,761.368a16.359,16.359,0,0,0-8.927-2.5,15.016,15.016,0,1,0,0,30.024,16.357,16.357,0,0,0,8.927-2.5v8.018a21.392,21.392,0,0,1-9.383,2.047c-13.306,0-23.2-10.122-23.2-22.632,0-12.453,9.894-22.518,23.2-22.518a21.578,21.578,0,0,1,9.383,2.047Z" transform="translate(-833.803 -751.303)" fill="#22282f"/>
    <path id="Path_1810" data-name="Path 1810" d="M1150.348,764.091h-8.985V756.7h26.215v7.392h-8.985V799.12h-8.245Z" transform="translate(-937.613 -755.334)" fill="#22282f"/>
    <path id="Path_1811" data-name="Path 1811" d="M1433.351,786.894V799.12h-8.245V756.7h11.089c9.667,0,17.4,4.322,17.4,14.671,0,10.292-8.928,15.524-17.628,15.524Zm0-22.461V779.16h2.331c5.687,0,9.439-3.014,9.439-7.79,0-4.208-2.673-6.937-9.439-6.937Z" transform="translate(-1149.594 -755.334)" fill="#22282f"/>
    <path id="Path_1812" data-name="Path 1812" d="M682.978,756.7H676.61V799.12h8.245V770.744l20.3,28.375h8.075v-.01Z" transform="translate(-590.402 -755.334)" fill="#22282f"/>
    <path id="Path_1813" data-name="Path 1813" d="M759.174,756.7v28.717L738.817,756.7H730.8v0l30.258,42.418h6.363V756.7Z" transform="translate(-630.885 -755.334)" fill="#22282f"/>
  </g>
</svg>
