<svg xmlns="http://www.w3.org/2000/svg" width="143.432" height="45.359" viewBox="0 0 143.432 45.359">
  <g id="wss-logo" transform="translate(-309.332 -1033.498)">
    <path id="Path_5796" data-name="Path 5796" d="M353.875,1058.408l-10.322-5.959h0v-11.662a1.253,1.253,0,0,0-.626-1.085l-10.457-6.037a1.253,1.253,0,0,0-1.253,0l-10.457,6.037a1.253,1.253,0,0,0-.626,1.085v11.745h0l-10.176,5.875a1.253,1.253,0,0,0-.626,1.085v12.074a1.253,1.253,0,0,0,.626,1.085l10.456,6.037a1.253,1.253,0,0,0,1.253,0l10.249-5.917,10.249,5.917a1.253,1.253,0,0,0,1.253,0l10.456-6.037a1.253,1.253,0,0,0,.626-1.085v-12.074A1.253,1.253,0,0,0,353.875,1058.408Zm-10.322-5.641h0l-.009-.024Zm-22.1,16.1,1.781-1.028c.03-.018.059-.036.088-.056a1.252,1.252,0,0,0,.539-1.029V1064.7a1.252,1.252,0,0,0-.626-1.085l-1.407-.812v-3.812l4.71,2.719a1.253,1.253,0,0,1,.626,1.085v5.764a1.252,1.252,0,0,1-.624,1.083h0l-4.992,2.882a1.252,1.252,0,0,1-1.253,0l-4.992-2.882a1.253,1.253,0,0,1-.626-1.085v-5.764a1.253,1.253,0,0,1,.626-1.085l4.9-2.83v3.705h0l-1.781,1.029a1.252,1.252,0,0,0-.626,1.085v2.057a1.253,1.253,0,0,0,.626,1.085l1.781,1.028A1.252,1.252,0,0,0,321.458,1068.869Zm9.522,1.719a1.253,1.253,0,0,1-.626,1.085l-.146.084-8.613,4.973a1.253,1.253,0,0,1-1.253,0l-8.759-5.057a1.253,1.253,0,0,1-.626-1.085v-10.114a1.253,1.253,0,0,1,.626-1.085l8.624-4.979v3.272l-5.916,3.416a1.252,1.252,0,0,0-.626,1.085v6.987a1.252,1.252,0,0,0,.626,1.085l6.051,3.493a1.252,1.252,0,0,0,1.253,0l6.03-3.481.021-.012a1.252,1.252,0,0,0,.626-1.085v-6.987a1.253,1.253,0,0,0-.626-1.085l-5.814-3.356v-3.176l8.868,5.12a1.251,1.251,0,0,1,.28.788v10.114Zm1.268-12.49h0a1.256,1.256,0,0,1-.5.093l-9.069-5.236-.737-.425a1.251,1.251,0,0,1-.181-.647v-10.114a1.252,1.252,0,0,1,.626-1.085l8.759-5.057a1.252,1.252,0,0,1,1.253,0l8.759,5.057a1.252,1.252,0,0,1,.626,1.085v9.631l-2.636-1.522v-6.69a1.253,1.253,0,0,0-.626-1.085l-6.051-3.494a1.254,1.254,0,0,0-1.253,0l-6.051,3.494a1.252,1.252,0,0,0-.626,1.085v6.774h0v.213a1.252,1.252,0,0,0,.626,1.085l.224.13,5.826,3.364a1.252,1.252,0,0,0,1.253,0l5.826-3.364,2.787,1.609h0l.011.006-8.7,5.021A1.254,1.254,0,0,1,332.248,1058.1Zm1.939-13.335-1.781-1.029a1.254,1.254,0,0,0-1.253,0l-1.782,1.029a1.253,1.253,0,0,0-.626,1.085v2.057a1.252,1.252,0,0,0,.626,1.085l.087.05,1.7.979a1.254,1.254,0,0,0,1.253,0l1.76-1.016,3.05,1.761-4.79,2.766a1.253,1.253,0,0,1-1.253,0l-4.745-2.74-.247-.143a1.253,1.253,0,0,1-.626-1.085v-.187h0V1043.8a1.252,1.252,0,0,1,.626-1.085l4.992-2.882a1.253,1.253,0,0,1,1.253,0l4.992,2.882a1.252,1.252,0,0,1,.626,1.085v5.442l-3.23-1.865v-1.527A1.253,1.253,0,0,0,334.187,1044.763Zm17.918,26.91-8.759,5.057a1.253,1.253,0,0,1-1.253,0l-8.54-4.931,2.708-1.564,5.832,3.367a1.253,1.253,0,0,0,1.253,0l6.051-3.493a1.253,1.253,0,0,0,.626-1.085v-6.987a1.253,1.253,0,0,0-.626-1.085l-3.707-2.141-2.064-1.191-.28-.162a1.251,1.251,0,0,0-1.253,0l-.237.137h0l-2.235,1.29-3.578,2.066a1.253,1.253,0,0,0-.626,1.085v6.684l-2.665,1.539-.043.024v-9.811a1.25,1.25,0,0,1,.28-.788h0l8.868-5.12.667-.385a1.251,1.251,0,0,1,.823.152l.28.162,8.479,4.9a1.253,1.253,0,0,1,.626,1.085v10.114A1.253,1.253,0,0,1,352.1,1071.672Zm-7.042-8.059-1.437-.83-.345-.2a1.253,1.253,0,0,0-1.253,0l-.173.1-1.609.929a1.253,1.253,0,0,0-.626,1.085v1.6l-3.191,1.843v-5.488a1.253,1.253,0,0,1,.626-1.085l2.565-1.481,2.235-1.29h0l.192-.111a1.253,1.253,0,0,1,1.253,0l.325.188,2.064,1.191,2.6,1.5a1.253,1.253,0,0,1,.626,1.085v5.764a1.252,1.252,0,0,1-.626,1.085l-4.992,2.882a1.253,1.253,0,0,1-1.253,0l-4.751-2.743,3.031-1.75,1.7.982a1.251,1.251,0,0,0,1.253,0l1.782-1.028a1.253,1.253,0,0,0,.626-1.085V1064.7A1.253,1.253,0,0,0,345.063,1063.613Z" fill="#31b1ff"/>
    <g id="Group_5393" data-name="Group 5393" transform="translate(360.065 1042.614)">
      <g id="Group_5382" data-name="Group 5382" transform="translate(0 0.167)">
        <path id="Path_5797" data-name="Path 5797" d="M548.192,1085.759l-2.521-9.014h1.259l2.063,7.417,2.189-7.417h1.21l2.189,7.418,2.061-7.418h1.192l-2.518,9.014h-1.391l-2.144-7.219-2.145,7.219Z" transform="translate(-545.671 -1076.745)"/>
      </g>
      <g id="Group_5383" data-name="Group 5383" transform="translate(13.804 0.167)">
        <path id="Path_5798" data-name="Path 5798" d="M615.552,1076.745h1.185v9.014h-1.185V1081.7h-4.378v4.056h-1.2v-9.014h1.2v3.824h4.378Z" transform="translate(-609.976 -1076.745)"/>
      </g>
      <g id="Group_5384" data-name="Group 5384" transform="translate(21.916 0.167)">
        <path id="Path_5799" data-name="Path 5799" d="M654.565,1085.759l-.735-2.022h-4.053l-.736,2.022h-1.275l3.361-9.014h1.352l3.361,9.014Zm-4.381-3.142h3.238l-1.619-4.45Z" transform="translate(-647.766 -1076.745)"/>
      </g>
      <g id="Group_5385" data-name="Group 5385" transform="translate(31.342 0.167)">
        <path id="Path_5800" data-name="Path 5800" d="M697.018,1085.759,695,1082.308h-2.128v3.451h-1.2v-9.014h3.606a2.714,2.714,0,0,1,1.983.818,2.748,2.748,0,0,1,.3,3.573,2.79,2.79,0,0,1-1.346,1.017l2.125,3.605Zm-4.146-7.893v3.36h2.408a1.512,1.512,0,0,0,1.14-.5,1.671,1.671,0,0,0,.47-1.191,1.649,1.649,0,0,0-.47-1.185,1.523,1.523,0,0,0-1.14-.489Z" transform="translate(-691.674 -1076.745)"/>
      </g>
      <g id="Group_5386" data-name="Group 5386" transform="translate(39.492 0.167)">
        <path id="Path_5801" data-name="Path 5801" d="M734.833,1077.878h-3.992v2.923h3.824v1.133h-3.824v3.824h-1.2v-9.014h5.189Z" transform="translate(-729.644 -1076.745)"/>
      </g>
      <g id="Group_5387" data-name="Group 5387" transform="translate(49.42)">
        <path id="Path_5802" data-name="Path 5802" d="M779.3,1085.314a3.819,3.819,0,0,1-2.157-.593,3.132,3.132,0,0,1-1.255-1.623l1.03-.592a2.658,2.658,0,0,0,3.824,1.255,1.217,1.217,0,0,0,.489-1.011,1.08,1.08,0,0,0-.489-.966,7.041,7.041,0,0,0-1.635-.683l-.86-.3a6.138,6.138,0,0,1-.743-.328,1.951,1.951,0,0,1-1.056-1.088,2.11,2.11,0,0,1-.174-.876,2.3,2.3,0,0,1,.824-1.861,3.028,3.028,0,0,1,2.009-.689,3.22,3.22,0,0,1,1.861.541,3.367,3.367,0,0,1,1.191,1.429l-1,.579a2.063,2.063,0,0,0-2.047-1.391,1.841,1.841,0,0,0-1.185.36,1.185,1.185,0,0,0-.451.978,1.044,1.044,0,0,0,.425.9,5.563,5.563,0,0,0,1.469.643l.524.186.487.172a4.641,4.641,0,0,1,.483.194q.155.077.418.219a1.694,1.694,0,0,1,.392.271q.129.129.3.316a1.246,1.246,0,0,1,.251.381,3.047,3.047,0,0,1,.135.445,2.379,2.379,0,0,1,.058.535,2.306,2.306,0,0,1-.863,1.886A3.458,3.458,0,0,1,779.3,1085.314Z" transform="translate(-775.892 -1075.965)"/>
      </g>
      <g id="Group_5388" data-name="Group 5388" transform="translate(56.592 0.167)">
        <path id="Path_5803" data-name="Path 5803" d="M815.806,1076.745v1.133H813.14v7.881h-1.185v-7.881H809.3v-1.133Z" transform="translate(-809.303 -1076.745)"/>
      </g>
      <g id="Group_5389" data-name="Group 5389" transform="translate(64.563 0.167)">
        <path id="Path_5804" data-name="Path 5804" d="M851.778,1085.759l-2.019-3.451h-2.127v3.451h-1.2v-9.014h3.605a2.714,2.714,0,0,1,1.983.818,2.748,2.748,0,0,1,.3,3.573,2.792,2.792,0,0,1-1.346,1.017l2.125,3.605Zm-4.146-7.893v3.36h2.408a1.512,1.512,0,0,0,1.14-.5,1.671,1.671,0,0,0,.47-1.191,1.649,1.649,0,0,0-.47-1.185,1.523,1.523,0,0,0-1.14-.489Z" transform="translate(-846.434 -1076.745)"/>
      </g>
      <g id="Group_5390" data-name="Group 5390" transform="translate(72.714 0.167)">
        <path id="Path_5805" data-name="Path 5805" d="M885.6,1084.625h4.185v1.133H884.4v-9.014h5.318v1.133H885.6v2.769h3.8v1.12h-3.8Z" transform="translate(-884.404 -1076.745)"/>
      </g>
      <g id="Group_5391" data-name="Group 5391" transform="translate(79.822 0.167)">
        <path id="Path_5806" data-name="Path 5806" d="M918.713,1084.625H922.9v1.133h-5.382v-9.014h5.318v1.133h-4.121v2.769h3.8v1.12h-3.8Z" transform="translate(-917.516 -1076.745)"/>
      </g>
      <g id="Group_5392" data-name="Group 5392" transform="translate(86.196 0.167)">
        <path id="Path_5807" data-name="Path 5807" d="M953.711,1076.745v1.133h-2.666v7.881h-1.184v-7.881h-2.653v-1.133Z" transform="translate(-947.208 -1076.745)"/>
      </g>
    </g>
    <path id="Path_5808" data-name="Path 5808" d="M549.142,1148.571a4.908,4.908,0,0,1-2.727-.721,3.933,3.933,0,0,1-1.583-1.99l1.849-1.081a2.463,2.463,0,0,0,2.523,1.677,2.265,2.265,0,0,0,1.316-.313,1.033,1.033,0,0,0-.078-1.74,7.687,7.687,0,0,0-1.849-.7,8.163,8.163,0,0,1-2.272-1.019,2.634,2.634,0,0,1-1.034-2.257,2.9,2.9,0,0,1,1.05-2.366,3.807,3.807,0,0,1,2.554-.893,4.183,4.183,0,0,1,3.918,2.46l-1.818,1.05a2.189,2.189,0,0,0-2.1-1.411,1.662,1.662,0,0,0-1.05.306.958.958,0,0,0-.392.791,1.025,1.025,0,0,0,.423.846,6.324,6.324,0,0,0,1.661.689l.752.251q.2.063.7.266a3.046,3.046,0,0,1,.69.329,2.759,2.759,0,0,1,1.034.971,2.89,2.89,0,0,1,.407,1.551,2.933,2.933,0,0,1-1.113,2.413A4.44,4.44,0,0,1,549.142,1148.571Zm0,.215a5.14,5.14,0,0,1-2.843-.756,4.161,4.161,0,0,1-1.667-2.1l-.062-.169,2.223-1.3.09.236a2.249,2.249,0,0,0,2.322,1.539,2.08,2.08,0,0,0,1.192-.273.818.818,0,0,0-.065-1.382,7.55,7.55,0,0,0-1.8-.682,8.415,8.415,0,0,1-2.337-1.049,2.851,2.851,0,0,1-1.126-2.433,3.113,3.113,0,0,1,1.128-2.532,4.03,4.03,0,0,1,2.691-.942A4.4,4.4,0,0,1,553,1139.53l.086.179-2.193,1.267-.1-.212a1.975,1.975,0,0,0-1.905-1.287,1.465,1.465,0,0,0-.918.26.747.747,0,0,0-.309.622.813.813,0,0,0,.34.677,6.226,6.226,0,0,0,1.591.654l.758.253c.138.042.374.132.718.271a3.2,3.2,0,0,1,.734.353,2.946,2.946,0,0,1,1.1,1.045,3.1,3.1,0,0,1,.433,1.652,3.15,3.15,0,0,1-1.193,2.581A4.665,4.665,0,0,1,549.142,1148.786Zm-4.042-2.833a3.726,3.726,0,0,0,1.432,1.718,4.725,4.725,0,0,0,2.61.686,4.25,4.25,0,0,0,2.733-.846,2.953,2.953,0,0,0,.657-3.684,2.573,2.573,0,0,0-.964-.9,2.892,2.892,0,0,0-.651-.311q-.5-.2-.694-.263l-.757-.252a6.442,6.442,0,0,1-1.716-.717,1.241,1.241,0,0,1-.515-1.022,1.168,1.168,0,0,1,.475-.961,1.876,1.876,0,0,1,1.182-.351,2.354,2.354,0,0,1,2.189,1.326l1.446-.835a4.039,4.039,0,0,0-1.414-1.552,4.091,4.091,0,0,0-2.22-.609,3.614,3.614,0,0,0-2.415.842,2.671,2.671,0,0,0-.974,2.2,2.411,2.411,0,0,0,.948,2.084,7.987,7.987,0,0,0,2.207.985,7.765,7.765,0,0,1,1.9.729,1.247,1.247,0,0,1,.088,2.1,2.443,2.443,0,0,1-1.441.353,2.657,2.657,0,0,1-2.625-1.583Zm8.885-8.57h8.07v2.068h-2.962v8.9H556.93v-8.9h-2.946Zm5.323,11.184h-2.592v-8.9H553.77v-2.5h8.5v2.5h-2.962Zm-2.163-.429h1.733v-8.9h2.961V1137.6H554.2v1.639h2.946Zm15.127.215h-2.335l-2.209-3.808h-1.645v3.808h-2.163v-10.969h4.388a3.638,3.638,0,0,1,3.651,3.635,3.338,3.338,0,0,1-.58,1.888,3.63,3.63,0,0,1-1.536,1.308Zm-3.965-8.948h-2.225v3.244h2.225a1.376,1.376,0,0,0,1.05-.478,1.644,1.644,0,0,0,.439-1.152,1.617,1.617,0,0,0-.439-1.144A1.387,1.387,0,0,0,568.307,1139.4Zm4.34,9.162h-2.834l-2.21-3.808H566.3v3.808H563.7v-11.4h4.6a3.853,3.853,0,0,1,3.866,3.85,3.565,3.565,0,0,1-.616,2.008,3.847,3.847,0,0,1-1.413,1.279Zm-2.586-.429H571.9l-2.36-4.018.216-.1a3.433,3.433,0,0,0,1.447-1.232,3.141,3.141,0,0,0,.544-1.769,3.423,3.423,0,0,0-3.437-3.421h-4.173v10.54h1.733v-3.808h1.984Zm-1.754-5.275h-2.44v-3.673h2.44a1.6,1.6,0,0,1,1.207.538,1.831,1.831,0,0,1,.5,1.29,1.859,1.859,0,0,1-.5,1.3A1.59,1.59,0,0,1,568.307,1142.862Zm-2.01-.429h2.01a1.161,1.161,0,0,0,.892-.408,1.424,1.424,0,0,0,.382-1.007,1.4,1.4,0,0,0-.381-1,1.171,1.171,0,0,0-.893-.4H566.3Zm17.3,5.919h-2.351l-.658-1.974h-4.372l-.658,1.974h-2.335l3.839-10.969h2.68Zm-5.187-8.478-1.5,4.482h3.009Zm5.49,8.692H581.1l-.658-1.974h-4.063l-.658,1.974h-2.792l3.99-11.4H579.9Zm-2.5-.429H583.3l-3.7-10.54h-2.375l-3.689,10.54h1.877l.658-1.974h4.681Zm-1.188-3.567h-3.606l1.8-5.371Zm-3.009-.429h2.412l-1.206-3.592Zm6.5-6.758h8.07v2.068H588.82v8.9h-2.162v-8.9h-2.946Zm5.323,11.184h-2.592v-8.9H583.5v-2.5H592v2.5h-2.962Zm-2.163-.429h1.733v-8.9h2.962V1137.6h-7.641v1.639h2.946Zm8.937-4.314v2.46h4.623v2.068h-6.785v-10.969h6.707v2.068h-4.544v2.335h4.152v2.037Zm4.837,4.743h-7.215v-11.4h7.137v2.5h-4.544v1.906h4.152v2.467h-4.152v2.031h4.623Zm-6.785-.429h6.356V1146.5h-4.623v-2.89h4.152V1142h-4.152v-2.764h4.544V1137.6h-6.278Zm13.936-5.677h5.5v.846a5.065,5.065,0,0,1-1.5,3.808,5.353,5.353,0,0,1-3.886,1.457,5.775,5.775,0,0,1-4.215-1.646,5.789,5.789,0,0,1-.016-8.1,5.576,5.576,0,0,1,4.106-1.661,5.752,5.752,0,0,1,2.789.689,5.191,5.191,0,0,1,1.99,1.865l-1.849,1.066a2.9,2.9,0,0,0-1.191-1.1,3.7,3.7,0,0,0-1.755-.423,3.443,3.443,0,0,0-2.586,1.034,3.792,3.792,0,0,0,.016,5.156,3.715,3.715,0,0,0,2.727,1,3.674,3.674,0,0,0,2.068-.548,2.721,2.721,0,0,0,1.128-1.536H607.8Zm.11,6.326a6.006,6.006,0,0,1-4.366-1.707,6,6,0,0,1-.018-8.406,5.809,5.809,0,0,1,4.258-1.725,5.986,5.986,0,0,1,2.892.716,5.429,5.429,0,0,1,2.071,1.941l.115.188-2.225,1.282-.108-.185a2.705,2.705,0,0,0-1.106-1.015,3.5,3.5,0,0,0-1.655-.4,3.209,3.209,0,0,0-2.431.969,3.309,3.309,0,0,0-.942,2.436,3.248,3.248,0,0,0,.956,2.418,3.527,3.527,0,0,0,2.575.94,3.484,3.484,0,0,0,1.95-.513,2.452,2.452,0,0,0,.943-1.142h-3.233v-2.341h5.93v1.061a5.292,5.292,0,0,1-1.57,3.962A5.582,5.582,0,0,1,607.907,1148.786Zm-.125-11.408a5.433,5.433,0,0,0-5.536,5.505,5.318,5.318,0,0,0,1.6,3.891,5.591,5.591,0,0,0,4.064,1.583,5.168,5.168,0,0,0,3.737-1.4,4.879,4.879,0,0,0,1.439-3.654v-.631h-5.071v1.482h3.4l-.083.277a2.942,2.942,0,0,1-1.215,1.653,4.407,4.407,0,0,1-5.064-.481,4.007,4.007,0,0,1-.017-5.46,3.662,3.662,0,0,1,2.737-1.1,3.923,3.923,0,0,1,1.855.448,3.2,3.2,0,0,1,1.161,1l1.476-.85a5.03,5.03,0,0,0-1.79-1.6A5.565,5.565,0,0,0,607.781,1137.377Zm7.709,10.974v-10.969h2.163v10.969Zm2.377.215h-2.592v-11.4h2.592Zm-2.162-.429h1.733V1137.6h-1.733Zm6.806-4.314v2.46h4.623v2.068h-6.785v-10.969h6.707v2.068h-4.544v2.335h4.153v2.037Zm4.837,4.743h-7.214v-11.4h7.136v2.5h-4.544v1.906h4.153v2.467h-4.153v2.031h4.623Zm-6.785-.429h6.356V1146.5H622.3v-2.89h4.153V1142H622.3v-2.764h4.544V1137.6h-6.278Zm12.494.434a4.908,4.908,0,0,1-2.727-.721,3.933,3.933,0,0,1-1.583-1.99l1.849-1.081a2.463,2.463,0,0,0,2.523,1.677,2.265,2.265,0,0,0,1.316-.313,1.033,1.033,0,0,0-.078-1.74,7.685,7.685,0,0,0-1.849-.7,8.16,8.16,0,0,1-2.272-1.019,2.634,2.634,0,0,1-1.034-2.257,2.9,2.9,0,0,1,1.05-2.366,3.808,3.808,0,0,1,2.554-.893,4.183,4.183,0,0,1,3.918,2.46l-1.818,1.05a2.19,2.19,0,0,0-2.1-1.411,1.661,1.661,0,0,0-1.05.306.958.958,0,0,0-.392.791,1.025,1.025,0,0,0,.423.846,6.326,6.326,0,0,0,1.661.689l.752.251q.2.063.7.266a3.045,3.045,0,0,1,.69.329,2.756,2.756,0,0,1,1.034.971,2.89,2.89,0,0,1,.407,1.551,2.933,2.933,0,0,1-1.113,2.413A4.441,4.441,0,0,1,633.057,1148.571Zm0,.215a5.14,5.14,0,0,1-2.843-.756,4.162,4.162,0,0,1-1.667-2.1l-.062-.169,2.223-1.3.09.236a2.249,2.249,0,0,0,2.323,1.539,2.08,2.08,0,0,0,1.192-.273.818.818,0,0,0-.065-1.382,7.548,7.548,0,0,0-1.8-.682,8.416,8.416,0,0,1-2.337-1.049,2.851,2.851,0,0,1-1.126-2.433,3.113,3.113,0,0,1,1.128-2.532,4.03,4.03,0,0,1,2.691-.942,4.4,4.4,0,0,1,4.111,2.582l.086.179-2.193,1.267-.1-.212a1.975,1.975,0,0,0-1.905-1.287,1.465,1.465,0,0,0-.918.26.748.748,0,0,0-.309.622.813.813,0,0,0,.34.677,6.223,6.223,0,0,0,1.591.654l.758.253c.138.042.374.132.718.271a3.2,3.2,0,0,1,.734.353,2.949,2.949,0,0,1,1.1,1.045,3.1,3.1,0,0,1,.433,1.652,3.151,3.151,0,0,1-1.193,2.581A4.666,4.666,0,0,1,633.057,1148.786Zm-4.042-2.833a3.725,3.725,0,0,0,1.432,1.718,4.725,4.725,0,0,0,2.61.686,4.251,4.251,0,0,0,2.733-.846,2.954,2.954,0,0,0,.657-3.684,2.574,2.574,0,0,0-.964-.9,2.894,2.894,0,0,0-.651-.311q-.5-.2-.694-.263l-.757-.252a6.442,6.442,0,0,1-1.716-.717,1.241,1.241,0,0,1-.515-1.022,1.167,1.167,0,0,1,.475-.961,1.876,1.876,0,0,1,1.182-.351,2.354,2.354,0,0,1,2.189,1.326l1.446-.835a4.038,4.038,0,0,0-1.414-1.552,4.092,4.092,0,0,0-2.22-.609,3.615,3.615,0,0,0-2.415.842,2.671,2.671,0,0,0-.974,2.2,2.412,2.412,0,0,0,.948,2.084,7.993,7.993,0,0,0,2.207.985,7.766,7.766,0,0,1,1.9.729,1.247,1.247,0,0,1,.088,2.1,2.444,2.444,0,0,1-1.441.353,2.657,2.657,0,0,1-2.626-1.583Z" transform="translate(-184.74 -81.243)" fill="#31b1ff"/>
  </g>
</svg>
